<?xml version="1.0" encoding="UTF-8"?>
<svg xmlns="http://www.w3.org/2000/svg" xmlns:xlink="http://www.w3.org/1999/xlink" width="px" height="14px" viewBox="0 0 96 14" version="1.1">
<g id="surface1">
<path style=" stroke:none;fill-rule:nonzero;fill:rgb(13.72549%,13.72549%,13.72549%);fill-opacity:1;" d="M 7.644531 8.488281 L 5.820312 3.726562 C 5.765625 3.585938 5.710938 3.421875 5.652344 3.238281 C 5.59375 3.046875 5.535156 2.84375 5.480469 2.632812 C 5.367188 3.074219 5.25 3.441406 5.132812 3.734375 L 3.3125 8.488281 Z M 10.914062 12.832031 L 9.699219 12.832031 C 9.558594 12.832031 9.445312 12.796875 9.359375 12.726562 C 9.273438 12.65625 9.207031 12.566406 9.164062 12.457031 L 8.082031 9.632812 L 2.875 9.632812 L 1.789062 12.457031 C 1.757812 12.554688 1.695312 12.644531 1.601562 12.71875 C 1.511719 12.796875 1.398438 12.832031 1.261719 12.832031 L 0.046875 12.832031 L 4.6875 1.128906 L 6.273438 1.128906 Z M 20.609375 10.414062 C 20.695312 10.414062 20.769531 10.453125 20.835938 10.523438 L 21.457031 11.199219 C 20.984375 11.753906 20.40625 12.1875 19.726562 12.5 C 19.050781 12.808594 18.234375 12.964844 17.273438 12.964844 C 16.441406 12.964844 15.6875 12.820312 15.003906 12.53125 C 14.324219 12.238281 13.746094 11.828125 13.265625 11.304688 C 12.785156 10.777344 12.414062 10.148438 12.148438 9.410156 C 11.882812 8.675781 11.75 7.867188 11.75 6.984375 C 11.75 6.105469 11.890625 5.296875 12.164062 4.558594 C 12.4375 3.824219 12.824219 3.195312 13.320312 2.664062 C 13.824219 2.136719 14.421875 1.730469 15.121094 1.441406 C 15.816406 1.148438 16.585938 1 17.425781 1 C 18.253906 1 18.980469 1.132812 19.613281 1.398438 C 20.246094 1.667969 20.800781 2.027344 21.28125 2.484375 L 20.761719 3.214844 C 20.730469 3.265625 20.6875 3.3125 20.632812 3.351562 C 20.585938 3.382812 20.515625 3.402344 20.429688 3.402344 C 20.332031 3.402344 20.214844 3.347656 20.074219 3.246094 C 19.933594 3.136719 19.75 3.015625 19.523438 2.886719 C 19.296875 2.753906 19.011719 2.636719 18.671875 2.535156 C 18.332031 2.425781 17.914062 2.371094 17.417969 2.371094 C 16.820312 2.371094 16.273438 2.476562 15.773438 2.691406 C 15.277344 2.898438 14.847656 3.199219 14.488281 3.597656 C 14.132812 3.996094 13.851562 4.480469 13.652344 5.050781 C 13.453125 5.621094 13.355469 6.265625 13.355469 6.984375 C 13.355469 7.714844 13.457031 8.367188 13.660156 8.9375 C 13.871094 9.507812 14.15625 9.992188 14.511719 10.390625 C 14.875 10.785156 15.296875 11.082031 15.78125 11.289062 C 16.273438 11.496094 16.804688 11.601562 17.371094 11.601562 C 17.714844 11.601562 18.027344 11.582031 18.300781 11.542969 C 18.582031 11.5 18.839844 11.433594 19.070312 11.347656 C 19.308594 11.261719 19.527344 11.152344 19.726562 11.019531 C 19.929688 10.882812 20.132812 10.722656 20.332031 10.539062 C 20.425781 10.457031 20.515625 10.414062 20.609375 10.414062 Z M 29.765625 8.488281 L 27.945312 3.726562 C 27.890625 3.585938 27.832031 3.421875 27.773438 3.238281 C 27.714844 3.046875 27.65625 2.84375 27.601562 2.632812 C 27.488281 3.074219 27.375 3.441406 27.253906 3.734375 L 25.433594 8.488281 Z M 33.035156 12.832031 L 31.820312 12.832031 C 31.679688 12.832031 31.566406 12.796875 31.480469 12.726562 C 31.394531 12.65625 31.332031 12.566406 31.289062 12.457031 L 30.203125 9.632812 L 24.996094 9.632812 L 23.910156 12.457031 C 23.878906 12.554688 23.816406 12.644531 23.726562 12.71875 C 23.632812 12.796875 23.519531 12.832031 23.386719 12.832031 L 22.171875 12.832031 L 26.808594 1.128906 L 28.398438 1.128906 Z M 44.941406 6.984375 C 44.941406 7.863281 44.804688 8.660156 44.527344 9.378906 C 44.253906 10.097656 43.863281 10.710938 43.363281 11.222656 C 42.859375 11.734375 42.257812 12.132812 41.550781 12.417969 C 40.847656 12.695312 40.070312 12.832031 39.21875 12.832031 L 34.886719 12.832031 L 34.886719 1.128906 L 39.21875 1.128906 C 40.070312 1.128906 40.847656 1.273438 41.550781 1.554688 C 42.257812 1.832031 42.859375 2.230469 43.363281 2.746094 C 43.863281 3.257812 44.253906 3.875 44.527344 4.59375 C 44.804688 5.3125 44.941406 6.109375 44.941406 6.984375 Z M 43.332031 6.984375 C 43.332031 6.265625 43.234375 5.625 43.039062 5.058594 C 42.84375 4.492188 42.570312 4.011719 42.214844 3.621094 C 41.855469 3.230469 41.425781 2.929688 40.917969 2.722656 C 40.410156 2.515625 39.84375 2.414062 39.21875 2.414062 L 36.457031 2.414062 L 36.457031 11.550781 L 39.21875 11.550781 C 39.84375 11.550781 40.410156 11.449219 40.917969 11.242188 C 41.425781 11.035156 41.855469 10.738281 42.214844 10.351562 C 42.570312 9.957031 42.84375 9.480469 43.039062 8.914062 C 43.234375 8.347656 43.332031 7.703125 43.332031 6.984375 Z M 54.6875 11.542969 L 54.675781 12.832031 L 47.527344 12.832031 L 47.527344 1.128906 L 54.675781 1.128906 L 54.675781 2.421875 L 49.097656 2.421875 L 49.097656 6.308594 L 53.617188 6.308594 L 53.617188 7.550781 L 49.097656 7.550781 L 49.097656 11.542969 Z M 69.269531 1.128906 L 69.269531 12.832031 L 67.894531 12.832031 L 67.894531 4.234375 C 67.894531 4.121094 67.894531 3.996094 67.902344 3.867188 C 67.914062 3.734375 67.921875 3.601562 67.933594 3.464844 L 63.949219 10.785156 C 63.828125 11.027344 63.636719 11.152344 63.382812 11.152344 L 63.15625 11.152344 C 62.902344 11.152344 62.714844 11.027344 62.589844 10.785156 L 58.527344 3.433594 C 58.558594 3.722656 58.574219 3.988281 58.574219 4.234375 L 58.574219 12.832031 L 57.199219 12.832031 L 57.199219 1.128906 L 58.355469 1.128906 C 58.496094 1.128906 58.605469 1.144531 58.679688 1.171875 C 58.753906 1.199219 58.828125 1.273438 58.898438 1.398438 L 62.90625 8.601562 C 62.972656 8.734375 63.03125 8.871094 63.09375 9.011719 C 63.15625 9.152344 63.214844 9.296875 63.269531 9.445312 C 63.324219 9.296875 63.382812 9.152344 63.441406 9.011719 C 63.5 8.863281 63.566406 8.726562 63.632812 8.59375 L 67.570312 1.398438 C 67.632812 1.273438 67.703125 1.199219 67.78125 1.171875 C 67.859375 1.144531 67.972656 1.128906 68.113281 1.128906 Z M 74.132812 12.832031 L 72.558594 12.832031 L 72.558594 1.128906 L 74.132812 1.128906 Z M 85.566406 10.414062 C 85.652344 10.414062 85.730469 10.453125 85.792969 10.523438 L 86.417969 11.199219 C 85.941406 11.753906 85.363281 12.1875 84.683594 12.5 C 84.011719 12.808594 83.191406 12.964844 82.230469 12.964844 C 81.402344 12.964844 80.644531 12.820312 79.964844 12.53125 C 79.285156 12.238281 78.703125 11.828125 78.222656 11.304688 C 77.742188 10.777344 77.371094 10.148438 77.105469 9.410156 C 76.84375 8.675781 76.710938 7.867188 76.710938 6.984375 C 76.710938 6.105469 76.847656 5.296875 77.121094 4.558594 C 77.398438 3.824219 77.785156 3.195312 78.28125 2.664062 C 78.78125 2.136719 79.382812 1.730469 80.078125 1.441406 C 80.773438 1.148438 81.542969 1 82.386719 1 C 83.210938 1 83.941406 1.132812 84.570312 1.398438 C 85.203125 1.667969 85.757812 2.027344 86.238281 2.484375 L 85.722656 3.214844 C 85.6875 3.265625 85.644531 3.3125 85.59375 3.351562 C 85.542969 3.382812 85.476562 3.402344 85.390625 3.402344 C 85.292969 3.402344 85.171875 3.347656 85.035156 3.246094 C 84.894531 3.136719 84.710938 3.015625 84.484375 2.886719 C 84.257812 2.753906 83.972656 2.636719 83.632812 2.535156 C 83.292969 2.425781 82.875 2.371094 82.378906 2.371094 C 81.777344 2.371094 81.230469 2.476562 80.734375 2.691406 C 80.238281 2.898438 79.808594 3.199219 79.445312 3.597656 C 79.089844 3.996094 78.8125 4.480469 78.613281 5.050781 C 78.414062 5.621094 78.3125 6.265625 78.3125 6.984375 C 78.3125 7.714844 78.414062 8.367188 78.621094 8.9375 C 78.832031 9.507812 79.113281 9.992188 79.472656 10.390625 C 79.832031 10.785156 80.257812 11.082031 80.742188 11.289062 C 81.234375 11.496094 81.761719 11.601562 82.328125 11.601562 C 82.675781 11.601562 82.984375 11.582031 83.261719 11.542969 C 83.539062 11.5 83.796875 11.433594 84.027344 11.347656 C 84.265625 11.261719 84.484375 11.152344 84.683594 11.019531 C 84.890625 10.882812 85.09375 10.722656 85.292969 10.539062 C 85.382812 10.457031 85.476562 10.414062 85.566406 10.414062 Z M 94.496094 2.960938 C 94.449219 3.042969 94.394531 3.105469 94.335938 3.148438 C 94.28125 3.1875 94.214844 3.203125 94.132812 3.203125 C 94.042969 3.203125 93.933594 3.160156 93.808594 3.066406 C 93.683594 2.972656 93.527344 2.871094 93.339844 2.765625 C 93.15625 2.648438 92.933594 2.546875 92.667969 2.453125 C 92.410156 2.359375 92.09375 2.316406 91.71875 2.316406 C 91.371094 2.316406 91.058594 2.363281 90.789062 2.460938 C 90.523438 2.554688 90.300781 2.683594 90.117188 2.84375 C 89.9375 3.007812 89.804688 3.203125 89.710938 3.425781 C 89.621094 3.644531 89.574219 3.878906 89.574219 4.136719 C 89.574219 4.460938 89.652344 4.734375 89.808594 4.953125 C 89.972656 5.164062 90.183594 5.347656 90.441406 5.5 C 90.707031 5.652344 91.003906 5.785156 91.332031 5.898438 C 91.667969 6.007812 92.007812 6.125 92.351562 6.242188 C 92.703125 6.363281 93.042969 6.5 93.371094 6.652344 C 93.707031 6.796875 94.003906 6.984375 94.261719 7.214844 C 94.527344 7.441406 94.738281 7.722656 94.894531 8.054688 C 95.054688 8.386719 95.136719 8.796875 95.136719 9.28125 C 95.136719 9.792969 95.050781 10.273438 94.878906 10.726562 C 94.707031 11.171875 94.453125 11.5625 94.117188 11.894531 C 93.789062 12.226562 93.378906 12.488281 92.894531 12.679688 C 92.414062 12.867188 91.867188 12.964844 91.25 12.964844 C 90.496094 12.964844 89.808594 12.828125 89.195312 12.554688 C 88.578125 12.277344 88.050781 11.90625 87.617188 11.4375 L 88.070312 10.683594 C 88.113281 10.625 88.164062 10.578125 88.222656 10.539062 C 88.289062 10.496094 88.359375 10.472656 88.433594 10.472656 C 88.503906 10.472656 88.582031 10.503906 88.667969 10.5625 C 88.757812 10.617188 88.863281 10.6875 88.976562 10.773438 C 89.089844 10.863281 89.21875 10.957031 89.363281 11.0625 C 89.511719 11.164062 89.675781 11.261719 89.859375 11.347656 C 90.046875 11.433594 90.261719 11.507812 90.496094 11.566406 C 90.734375 11.621094 91.003906 11.648438 91.300781 11.648438 C 91.671875 11.648438 92.003906 11.597656 92.296875 11.492188 C 92.585938 11.390625 92.832031 11.246094 93.03125 11.0625 C 93.238281 10.871094 93.394531 10.644531 93.5 10.382812 C 93.609375 10.121094 93.664062 9.832031 93.664062 9.507812 C 93.664062 9.15625 93.582031 8.867188 93.421875 8.644531 C 93.265625 8.414062 93.054688 8.226562 92.796875 8.070312 C 92.539062 7.917969 92.242188 7.792969 91.90625 7.6875 C 91.570312 7.578125 91.230469 7.46875 90.886719 7.363281 C 90.539062 7.246094 90.199219 7.117188 89.867188 6.96875 C 89.53125 6.824219 89.234375 6.632812 88.976562 6.398438 C 88.714844 6.164062 88.507812 5.871094 88.34375 5.523438 C 88.1875 5.171875 88.109375 4.734375 88.109375 4.21875 C 88.109375 3.804688 88.1875 3.402344 88.34375 3.015625 C 88.507812 2.628906 88.738281 2.289062 89.039062 1.988281 C 89.347656 1.6875 89.722656 1.449219 90.164062 1.269531 C 90.613281 1.089844 91.125 1 91.703125 1 C 92.351562 1 92.941406 1.101562 93.46875 1.308594 C 94.003906 1.515625 94.472656 1.816406 94.878906 2.207031 Z M 94.496094 2.960938 "/>
</g>
</svg>
