<?xml version="1.0" encoding="UTF-8"?>
<svg xmlns="http://www.w3.org/2000/svg" xmlns:xlink="http://www.w3.org/1999/xlink" width="px" height="14px" viewBox="0 0 102 14" version="1.1">
<g id="surface1">
<path style=" stroke:none;fill-rule:nonzero;fill:rgb(13.72549%,13.72549%,13.72549%);fill-opacity:1;" d="M 7.660156 8.488281 L 5.832031 3.726562 C 5.78125 3.585938 5.722656 3.421875 5.664062 3.238281 C 5.605469 3.046875 5.546875 2.84375 5.492188 2.632812 C 5.378906 3.074219 5.261719 3.441406 5.144531 3.734375 L 3.320312 8.488281 Z M 10.9375 12.832031 L 9.71875 12.832031 C 9.578125 12.832031 9.464844 12.796875 9.378906 12.726562 C 9.292969 12.65625 9.226562 12.566406 9.183594 12.457031 L 8.097656 9.632812 L 2.878906 9.632812 L 1.792969 12.457031 C 1.761719 12.554688 1.699219 12.644531 1.605469 12.71875 C 1.515625 12.796875 1.402344 12.832031 1.265625 12.832031 L 0.046875 12.832031 L 4.699219 1.128906 L 6.289062 1.128906 Z M 22.867188 6.984375 C 22.867188 7.863281 22.730469 8.660156 22.453125 9.378906 C 22.179688 10.097656 21.789062 10.710938 21.285156 11.222656 C 20.78125 11.734375 20.175781 12.132812 19.46875 12.417969 C 18.765625 12.695312 17.988281 12.832031 17.132812 12.832031 L 12.792969 12.832031 L 12.792969 1.128906 L 17.132812 1.128906 C 17.988281 1.128906 18.765625 1.273438 19.46875 1.554688 C 20.175781 1.832031 20.78125 2.230469 21.285156 2.746094 C 21.789062 3.257812 22.179688 3.875 22.453125 4.59375 C 22.730469 5.3125 22.867188 6.109375 22.867188 6.984375 Z M 21.253906 6.984375 C 21.253906 6.265625 21.15625 5.625 20.960938 5.058594 C 20.765625 4.492188 20.492188 4.011719 20.132812 3.621094 C 19.777344 3.230469 19.34375 2.929688 18.835938 2.722656 C 18.328125 2.515625 17.757812 2.414062 17.132812 2.414062 L 14.367188 2.414062 L 14.367188 11.550781 L 17.132812 11.550781 C 17.757812 11.550781 18.328125 11.449219 18.835938 11.242188 C 19.34375 11.035156 19.777344 10.738281 20.132812 10.351562 C 20.492188 9.957031 20.765625 9.480469 20.960938 8.914062 C 21.15625 8.347656 21.253906 7.703125 21.253906 6.984375 Z M 37.558594 1.128906 L 37.558594 12.832031 L 36.179688 12.832031 L 36.179688 4.234375 C 36.179688 4.121094 36.179688 3.996094 36.1875 3.867188 C 36.199219 3.734375 36.207031 3.601562 36.21875 3.464844 L 32.226562 10.785156 C 32.101562 11.027344 31.914062 11.152344 31.660156 11.152344 L 31.433594 11.152344 C 31.179688 11.152344 30.988281 11.027344 30.863281 10.785156 L 26.792969 3.433594 C 26.824219 3.722656 26.839844 3.988281 26.839844 4.234375 L 26.839844 12.832031 L 25.460938 12.832031 L 25.460938 1.128906 L 26.621094 1.128906 C 26.761719 1.128906 26.871094 1.144531 26.945312 1.171875 C 27.019531 1.199219 27.09375 1.273438 27.164062 1.398438 L 31.179688 8.601562 C 31.246094 8.734375 31.308594 8.871094 31.367188 9.011719 C 31.433594 9.152344 31.492188 9.296875 31.546875 9.445312 C 31.601562 9.296875 31.65625 9.152344 31.714844 9.011719 C 31.777344 8.863281 31.839844 8.726562 31.910156 8.59375 L 35.855469 1.398438 C 35.917969 1.273438 35.988281 1.199219 36.066406 1.171875 C 36.144531 1.144531 36.257812 1.128906 36.398438 1.128906 Z M 42.429688 12.832031 L 40.855469 12.832031 L 40.855469 1.128906 L 42.429688 1.128906 Z M 51.675781 2.960938 C 51.625 3.042969 51.574219 3.105469 51.511719 3.148438 C 51.460938 3.1875 51.390625 3.203125 51.308594 3.203125 C 51.21875 3.203125 51.109375 3.160156 50.984375 3.066406 C 50.863281 2.972656 50.703125 2.871094 50.515625 2.765625 C 50.332031 2.648438 50.105469 2.546875 49.84375 2.453125 C 49.582031 2.359375 49.265625 2.316406 48.890625 2.316406 C 48.539062 2.316406 48.230469 2.363281 47.960938 2.460938 C 47.695312 2.554688 47.46875 2.683594 47.285156 2.84375 C 47.109375 3.007812 46.972656 3.203125 46.878906 3.425781 C 46.789062 3.644531 46.742188 3.878906 46.742188 4.136719 C 46.742188 4.460938 46.820312 4.734375 46.976562 4.953125 C 47.140625 5.164062 47.351562 5.347656 47.609375 5.5 C 47.875 5.652344 48.171875 5.785156 48.503906 5.898438 C 48.839844 6.007812 49.179688 6.125 49.527344 6.242188 C 49.878906 6.363281 50.21875 6.5 50.546875 6.652344 C 50.882812 6.796875 51.179688 6.984375 51.441406 7.214844 C 51.707031 7.441406 51.917969 7.722656 52.074219 8.054688 C 52.234375 8.386719 52.316406 8.796875 52.316406 9.28125 C 52.316406 9.792969 52.230469 10.273438 52.058594 10.726562 C 51.882812 11.171875 51.628906 11.5625 51.292969 11.894531 C 50.964844 12.226562 50.554688 12.488281 50.070312 12.679688 C 49.585938 12.867188 49.039062 12.964844 48.421875 12.964844 C 47.664062 12.964844 46.976562 12.828125 46.359375 12.554688 C 45.746094 12.277344 45.21875 11.90625 44.777344 11.4375 L 45.234375 10.683594 C 45.277344 10.625 45.328125 10.578125 45.386719 10.539062 C 45.453125 10.496094 45.523438 10.472656 45.597656 10.472656 C 45.667969 10.472656 45.746094 10.503906 45.832031 10.5625 C 45.925781 10.617188 46.027344 10.6875 46.140625 10.773438 C 46.253906 10.863281 46.386719 10.957031 46.53125 11.0625 C 46.675781 11.164062 46.84375 11.261719 47.027344 11.347656 C 47.214844 11.433594 47.429688 11.507812 47.667969 11.566406 C 47.90625 11.621094 48.171875 11.648438 48.46875 11.648438 C 48.84375 11.648438 49.175781 11.597656 49.46875 11.492188 C 49.761719 11.390625 50.007812 11.246094 50.207031 11.0625 C 50.414062 10.871094 50.570312 10.644531 50.675781 10.382812 C 50.785156 10.121094 50.839844 9.832031 50.839844 9.507812 C 50.839844 9.15625 50.757812 8.867188 50.597656 8.644531 C 50.441406 8.414062 50.230469 8.226562 49.972656 8.070312 C 49.710938 7.917969 49.414062 7.792969 49.078125 7.6875 C 48.742188 7.578125 48.402344 7.46875 48.058594 7.363281 C 47.710938 7.246094 47.371094 7.117188 47.035156 6.96875 C 46.699219 6.824219 46.402344 6.632812 46.140625 6.398438 C 45.882812 6.164062 45.671875 5.871094 45.507812 5.523438 C 45.351562 5.171875 45.273438 4.734375 45.273438 4.21875 C 45.273438 3.804688 45.351562 3.402344 45.507812 3.015625 C 45.671875 2.628906 45.902344 2.289062 46.207031 1.988281 C 46.515625 1.6875 46.890625 1.449219 47.335938 1.269531 C 47.785156 1.089844 48.296875 1 48.875 1 C 49.527344 1 50.113281 1.101562 50.644531 1.308594 C 51.179688 1.515625 51.652344 1.816406 52.058594 2.207031 Z M 60.8125 2.960938 C 60.761719 3.042969 60.707031 3.105469 60.648438 3.148438 C 60.59375 3.1875 60.527344 3.203125 60.445312 3.203125 C 60.355469 3.203125 60.246094 3.160156 60.121094 3.066406 C 59.996094 2.972656 59.839844 2.871094 59.652344 2.765625 C 59.46875 2.648438 59.242188 2.546875 58.976562 2.453125 C 58.71875 2.359375 58.402344 2.316406 58.027344 2.316406 C 57.675781 2.316406 57.367188 2.363281 57.09375 2.460938 C 56.828125 2.554688 56.605469 2.683594 56.421875 2.84375 C 56.242188 3.007812 56.109375 3.203125 56.015625 3.425781 C 55.921875 3.644531 55.878906 3.878906 55.878906 4.136719 C 55.878906 4.460938 55.957031 4.734375 56.113281 4.953125 C 56.273438 5.164062 56.484375 5.347656 56.746094 5.5 C 57.011719 5.652344 57.308594 5.785156 57.636719 5.898438 C 57.972656 6.007812 58.316406 6.125 58.660156 6.242188 C 59.011719 6.363281 59.351562 6.5 59.683594 6.652344 C 60.019531 6.796875 60.316406 6.984375 60.574219 7.214844 C 60.839844 7.441406 61.050781 7.722656 61.207031 8.054688 C 61.371094 8.386719 61.453125 8.796875 61.453125 9.28125 C 61.453125 9.792969 61.367188 10.273438 61.191406 10.726562 C 61.019531 11.171875 60.765625 11.5625 60.429688 11.894531 C 60.101562 12.226562 59.691406 12.488281 59.203125 12.679688 C 58.722656 12.867188 58.175781 12.964844 57.558594 12.964844 C 56.800781 12.964844 56.113281 12.828125 55.496094 12.554688 C 54.878906 12.277344 54.351562 11.90625 53.914062 11.4375 L 54.367188 10.683594 C 54.410156 10.625 54.464844 10.578125 54.523438 10.539062 C 54.585938 10.496094 54.65625 10.472656 54.734375 10.472656 C 54.804688 10.472656 54.882812 10.503906 54.96875 10.5625 C 55.0625 10.617188 55.164062 10.6875 55.277344 10.773438 C 55.390625 10.863281 55.519531 10.957031 55.667969 11.0625 C 55.8125 11.164062 55.976562 11.261719 56.160156 11.347656 C 56.351562 11.433594 56.566406 11.507812 56.804688 11.566406 C 57.039062 11.621094 57.308594 11.648438 57.605469 11.648438 C 57.980469 11.648438 58.3125 11.597656 58.605469 11.492188 C 58.894531 11.390625 59.140625 11.246094 59.34375 11.0625 C 59.546875 10.871094 59.703125 10.644531 59.8125 10.382812 C 59.921875 10.121094 59.976562 9.832031 59.976562 9.507812 C 59.976562 9.15625 59.894531 8.867188 59.730469 8.644531 C 59.574219 8.414062 59.367188 8.226562 59.105469 8.070312 C 58.847656 7.917969 58.550781 7.792969 58.214844 7.6875 C 57.878906 7.578125 57.539062 7.46875 57.191406 7.363281 C 56.847656 7.246094 56.503906 7.117188 56.167969 6.96875 C 55.835938 6.824219 55.535156 6.632812 55.277344 6.398438 C 55.019531 6.164062 54.808594 5.871094 54.644531 5.523438 C 54.488281 5.171875 54.410156 4.734375 54.410156 4.21875 C 54.410156 3.804688 54.488281 3.402344 54.644531 3.015625 C 54.808594 2.628906 55.039062 2.289062 55.34375 1.988281 C 55.652344 1.6875 56.027344 1.449219 56.46875 1.269531 C 56.917969 1.089844 57.433594 1 58.011719 1 C 58.660156 1 59.25 1.101562 59.78125 1.308594 C 60.316406 1.515625 60.785156 1.816406 61.191406 2.207031 Z M 65.574219 12.832031 L 64 12.832031 L 64 1.128906 L 65.574219 1.128906 Z M 79.613281 6.984375 C 79.613281 7.863281 79.476562 8.667969 79.199219 9.402344 C 78.925781 10.132812 78.535156 10.761719 78.03125 11.289062 C 77.527344 11.816406 76.921875 12.230469 76.214844 12.523438 C 75.511719 12.8125 74.734375 12.957031 73.878906 12.957031 C 73.023438 12.957031 72.246094 12.8125 71.542969 12.523438 C 70.839844 12.230469 70.234375 11.816406 69.730469 11.289062 C 69.230469 10.761719 68.839844 10.132812 68.5625 9.402344 C 68.289062 8.667969 68.148438 7.863281 68.148438 6.984375 C 68.148438 6.109375 68.289062 5.304688 68.5625 4.578125 C 68.839844 3.84375 69.230469 3.210938 69.730469 2.683594 C 70.234375 2.148438 70.839844 1.734375 71.542969 1.441406 C 72.246094 1.148438 73.023438 1 73.878906 1 C 74.734375 1 75.511719 1.148438 76.214844 1.441406 C 76.921875 1.734375 77.527344 2.148438 78.03125 2.683594 C 78.535156 3.210938 78.925781 3.84375 79.199219 4.578125 C 79.476562 5.304688 79.613281 6.109375 79.613281 6.984375 Z M 78 6.984375 C 78 6.265625 77.902344 5.621094 77.707031 5.050781 C 77.511719 4.480469 77.238281 3.996094 76.878906 3.605469 C 76.523438 3.207031 76.089844 2.902344 75.582031 2.691406 C 75.074219 2.476562 74.503906 2.371094 73.878906 2.371094 C 73.253906 2.371094 72.691406 2.476562 72.183594 2.691406 C 71.671875 2.902344 71.238281 3.207031 70.875 3.605469 C 70.519531 3.996094 70.242188 4.480469 70.046875 5.050781 C 69.851562 5.621094 69.757812 6.265625 69.757812 6.984375 C 69.757812 7.703125 69.851562 8.351562 70.046875 8.921875 C 70.242188 9.488281 70.519531 9.96875 70.875 10.367188 C 71.238281 10.757812 71.671875 11.0625 72.183594 11.273438 C 72.691406 11.480469 73.253906 11.582031 73.878906 11.582031 C 74.503906 11.582031 75.074219 11.480469 75.582031 11.273438 C 76.089844 11.0625 76.523438 10.757812 76.878906 10.367188 C 77.238281 9.96875 77.511719 9.488281 77.707031 8.921875 C 77.902344 8.351562 78 7.703125 78 6.984375 Z M 91.609375 1.128906 L 91.609375 12.832031 L 90.824219 12.832031 C 90.699219 12.832031 90.59375 12.8125 90.507812 12.769531 C 90.425781 12.722656 90.34375 12.652344 90.265625 12.546875 L 83.539062 3.726562 C 83.546875 3.863281 83.554688 3.996094 83.5625 4.128906 C 83.566406 4.257812 83.570312 4.378906 83.570312 4.496094 L 83.570312 12.832031 L 82.191406 12.832031 L 82.191406 1.128906 L 83.003906 1.128906 C 83.074219 1.128906 83.132812 1.136719 83.179688 1.148438 C 83.230469 1.152344 83.273438 1.164062 83.308594 1.1875 C 83.347656 1.203125 83.386719 1.230469 83.425781 1.269531 C 83.460938 1.300781 83.503906 1.34375 83.546875 1.398438 L 90.273438 10.210938 C 90.261719 10.070312 90.25 9.933594 90.238281 9.804688 C 90.234375 9.667969 90.230469 9.539062 90.230469 9.417969 L 90.230469 1.128906 Z M 100.855469 2.960938 C 100.804688 3.042969 100.753906 3.105469 100.691406 3.148438 C 100.636719 3.1875 100.570312 3.203125 100.488281 3.203125 C 100.398438 3.203125 100.289062 3.160156 100.164062 3.066406 C 100.039062 2.972656 99.882812 2.871094 99.695312 2.765625 C 99.511719 2.648438 99.285156 2.546875 99.019531 2.453125 C 98.761719 2.359375 98.445312 2.316406 98.070312 2.316406 C 97.71875 2.316406 97.410156 2.363281 97.140625 2.460938 C 96.875 2.554688 96.648438 2.683594 96.464844 2.84375 C 96.285156 3.007812 96.152344 3.203125 96.058594 3.425781 C 95.96875 3.644531 95.921875 3.878906 95.921875 4.136719 C 95.921875 4.460938 96 4.734375 96.15625 4.953125 C 96.320312 5.164062 96.53125 5.347656 96.789062 5.5 C 97.054688 5.652344 97.351562 5.785156 97.683594 5.898438 C 98.019531 6.007812 98.359375 6.125 98.703125 6.242188 C 99.054688 6.363281 99.398438 6.5 99.726562 6.652344 C 100.0625 6.796875 100.359375 6.984375 100.621094 7.214844 C 100.882812 7.441406 101.09375 7.722656 101.253906 8.054688 C 101.414062 8.386719 101.496094 8.796875 101.496094 9.28125 C 101.496094 9.792969 101.410156 10.273438 101.234375 10.726562 C 101.0625 11.171875 100.808594 11.5625 100.472656 11.894531 C 100.144531 12.226562 99.734375 12.488281 99.25 12.679688 C 98.765625 12.867188 98.21875 12.964844 97.601562 12.964844 C 96.84375 12.964844 96.15625 12.828125 95.539062 12.554688 C 94.925781 12.277344 94.394531 11.90625 93.957031 11.4375 L 94.414062 10.683594 C 94.457031 10.625 94.507812 10.578125 94.566406 10.539062 C 94.632812 10.496094 94.703125 10.472656 94.777344 10.472656 C 94.847656 10.472656 94.925781 10.503906 95.011719 10.5625 C 95.105469 10.617188 95.207031 10.6875 95.320312 10.773438 C 95.433594 10.863281 95.566406 10.957031 95.710938 11.0625 C 95.855469 11.164062 96.023438 11.261719 96.207031 11.347656 C 96.394531 11.433594 96.609375 11.507812 96.847656 11.566406 C 97.085938 11.621094 97.351562 11.648438 97.648438 11.648438 C 98.023438 11.648438 98.355469 11.597656 98.648438 11.492188 C 98.941406 11.390625 99.1875 11.246094 99.386719 11.0625 C 99.59375 10.871094 99.75 10.644531 99.855469 10.382812 C 99.964844 10.121094 100.019531 9.832031 100.019531 9.507812 C 100.019531 9.15625 99.9375 8.867188 99.777344 8.644531 C 99.617188 8.414062 99.410156 8.226562 99.152344 8.070312 C 98.890625 7.917969 98.59375 7.792969 98.257812 7.6875 C 97.921875 7.578125 97.582031 7.46875 97.234375 7.363281 C 96.890625 7.246094 96.550781 7.117188 96.214844 6.96875 C 95.878906 6.824219 95.582031 6.632812 95.320312 6.398438 C 95.0625 6.164062 94.851562 5.871094 94.6875 5.523438 C 94.53125 5.171875 94.453125 4.734375 94.453125 4.21875 C 94.453125 3.804688 94.53125 3.402344 94.6875 3.015625 C 94.851562 2.628906 95.082031 2.289062 95.386719 1.988281 C 95.695312 1.6875 96.070312 1.449219 96.515625 1.269531 C 96.964844 1.089844 97.476562 1 98.054688 1 C 98.703125 1 99.292969 1.101562 99.824219 1.308594 C 100.359375 1.515625 100.832031 1.816406 101.234375 2.207031 Z M 100.855469 2.960938 "/>
</g>
</svg>
