<?xml version="1.0" encoding="UTF-8"?>
<svg xmlns="http://www.w3.org/2000/svg" xmlns:xlink="http://www.w3.org/1999/xlink" width="px" height="14px" viewBox="0 0 107 14" version="1.1">
<g id="surface1">
<path style=" stroke:none;fill-rule:nonzero;fill:rgb(13.72549%,13.72549%,13.72549%);fill-opacity:1;" d="M 9.679688 10.414062 C 9.765625 10.414062 9.84375 10.453125 9.90625 10.523438 L 10.535156 11.199219 C 10.058594 11.753906 9.476562 12.1875 8.792969 12.5 C 8.113281 12.808594 7.292969 12.964844 6.324219 12.964844 C 5.488281 12.964844 4.730469 12.820312 4.046875 12.53125 C 3.363281 12.238281 2.777344 11.828125 2.296875 11.304688 C 1.8125 10.777344 1.4375 10.148438 1.171875 9.410156 C 0.90625 8.675781 0.773438 7.867188 0.773438 6.984375 C 0.773438 6.105469 0.910156 5.296875 1.1875 4.558594 C 1.464844 3.824219 1.851562 3.195312 2.351562 2.664062 C 2.859375 2.136719 3.460938 1.730469 4.160156 1.441406 C 4.859375 1.148438 5.632812 1 6.480469 1 C 7.3125 1 8.042969 1.132812 8.679688 1.398438 C 9.3125 1.667969 9.871094 2.027344 10.355469 2.484375 L 9.835938 3.214844 C 9.800781 3.265625 9.757812 3.3125 9.703125 3.351562 C 9.65625 3.382812 9.585938 3.402344 9.5 3.402344 C 9.402344 3.402344 9.285156 3.347656 9.144531 3.246094 C 9 3.136719 8.816406 3.015625 8.589844 2.886719 C 8.359375 2.753906 8.078125 2.636719 7.734375 2.535156 C 7.390625 2.425781 6.972656 2.371094 6.472656 2.371094 C 5.871094 2.371094 5.320312 2.476562 4.820312 2.691406 C 4.320312 2.898438 3.890625 3.199219 3.523438 3.597656 C 3.167969 3.996094 2.886719 4.480469 2.6875 5.050781 C 2.484375 5.621094 2.386719 6.265625 2.386719 6.984375 C 2.386719 7.714844 2.488281 8.367188 2.695312 8.9375 C 2.90625 9.507812 3.191406 9.992188 3.550781 10.390625 C 3.914062 10.785156 4.339844 11.082031 4.828125 11.289062 C 5.320312 11.496094 5.855469 11.601562 6.421875 11.601562 C 6.769531 11.601562 7.082031 11.582031 7.359375 11.542969 C 7.640625 11.5 7.898438 11.433594 8.132812 11.347656 C 8.371094 11.261719 8.589844 11.152344 8.792969 11.019531 C 9 10.882812 9.203125 10.722656 9.402344 10.539062 C 9.496094 10.457031 9.585938 10.414062 9.679688 10.414062 Z M 18.886719 8.488281 L 17.054688 3.726562 C 17 3.585938 16.945312 3.421875 16.882812 3.238281 C 16.824219 3.046875 16.769531 2.84375 16.714844 2.632812 C 16.601562 3.074219 16.484375 3.441406 16.363281 3.734375 L 14.53125 8.488281 Z M 22.175781 12.832031 L 20.957031 12.832031 C 20.8125 12.832031 20.699219 12.796875 20.613281 12.726562 C 20.527344 12.65625 20.460938 12.566406 20.417969 12.457031 L 19.328125 9.632812 L 14.09375 9.632812 L 13 12.457031 C 12.96875 12.554688 12.90625 12.644531 12.8125 12.71875 C 12.722656 12.796875 12.609375 12.832031 12.472656 12.832031 L 11.25 12.832031 L 15.914062 1.128906 L 17.511719 1.128906 Z M 36.175781 1.128906 L 36.175781 12.832031 L 34.792969 12.832031 L 34.792969 4.234375 C 34.792969 4.121094 34.792969 3.996094 34.800781 3.867188 C 34.808594 3.734375 34.820312 3.601562 34.832031 3.464844 L 30.828125 10.785156 C 30.703125 11.027344 30.511719 11.152344 30.257812 11.152344 L 30.027344 11.152344 C 29.773438 11.152344 29.582031 11.027344 29.457031 10.785156 L 25.371094 3.433594 C 25.40625 3.722656 25.421875 3.988281 25.421875 4.234375 L 25.421875 12.832031 L 24.035156 12.832031 L 24.035156 1.128906 L 25.199219 1.128906 C 25.34375 1.128906 25.449219 1.144531 25.527344 1.171875 C 25.601562 1.199219 25.675781 1.273438 25.746094 1.398438 L 29.777344 8.601562 C 29.839844 8.734375 29.902344 8.871094 29.964844 9.011719 C 30.027344 9.152344 30.089844 9.296875 30.144531 9.445312 C 30.195312 9.296875 30.253906 9.152344 30.3125 9.011719 C 30.375 8.863281 30.4375 8.726562 30.507812 8.59375 L 34.464844 1.398438 C 34.53125 1.273438 34.601562 1.199219 34.675781 1.171875 C 34.757812 1.144531 34.871094 1.128906 35.011719 1.128906 Z M 42.929688 7.199219 C 43.378906 7.199219 43.773438 7.136719 44.117188 7.019531 C 44.464844 6.898438 44.753906 6.734375 44.988281 6.519531 C 45.226562 6.300781 45.40625 6.042969 45.523438 5.746094 C 45.644531 5.445312 45.703125 5.117188 45.703125 4.757812 C 45.703125 4.011719 45.472656 3.429688 45.011719 3.007812 C 44.554688 2.589844 43.863281 2.378906 42.929688 2.378906 L 41.054688 2.378906 L 41.054688 7.199219 Z M 42.929688 1.128906 C 43.667969 1.128906 44.308594 1.21875 44.847656 1.390625 C 45.398438 1.5625 45.851562 1.804688 46.210938 2.117188 C 46.566406 2.433594 46.832031 2.816406 47.007812 3.261719 C 47.1875 3.707031 47.277344 4.207031 47.277344 4.757812 C 47.277344 5.300781 47.179688 5.800781 46.992188 6.25 C 46.800781 6.703125 46.519531 7.09375 46.152344 7.417969 C 45.789062 7.746094 45.335938 8 44.792969 8.1875 C 44.253906 8.367188 43.632812 8.457031 42.929688 8.457031 L 41.054688 8.457031 L 41.054688 12.832031 L 39.484375 12.832031 L 39.484375 1.128906 Z M 54.089844 11.574219 C 54.574219 11.574219 55.003906 11.492188 55.386719 11.332031 C 55.765625 11.167969 56.085938 10.9375 56.347656 10.644531 C 56.613281 10.351562 56.8125 10 56.949219 9.589844 C 57.089844 9.183594 57.160156 8.734375 57.160156 8.242188 L 57.160156 1.128906 L 58.730469 1.128906 L 58.730469 8.242188 C 58.730469 8.917969 58.625 9.542969 58.40625 10.121094 C 58.195312 10.699219 57.886719 11.199219 57.484375 11.625 C 57.089844 12.042969 56.605469 12.375 56.027344 12.613281 C 55.453125 12.851562 54.808594 12.972656 54.089844 12.972656 C 53.375 12.972656 52.730469 12.851562 52.152344 12.613281 C 51.578125 12.375 51.089844 12.042969 50.6875 11.625 C 50.285156 11.199219 49.976562 10.699219 49.761719 10.121094 C 49.546875 9.542969 49.441406 8.917969 49.441406 8.242188 L 49.441406 1.128906 L 51.015625 1.128906 L 51.015625 8.234375 C 51.015625 8.726562 51.082031 9.175781 51.21875 9.582031 C 51.359375 9.992188 51.558594 10.34375 51.820312 10.636719 C 52.085938 10.929688 52.410156 11.160156 52.789062 11.332031 C 53.175781 11.492188 53.609375 11.574219 54.089844 11.574219 Z M 67.855469 2.960938 C 67.808594 3.042969 67.753906 3.105469 67.691406 3.148438 C 67.636719 3.1875 67.570312 3.203125 67.488281 3.203125 C 67.398438 3.203125 67.289062 3.160156 67.164062 3.066406 C 67.039062 2.972656 66.882812 2.871094 66.691406 2.765625 C 66.507812 2.648438 66.28125 2.546875 66.015625 2.453125 C 65.753906 2.359375 65.4375 2.316406 65.0625 2.316406 C 64.710938 2.316406 64.398438 2.363281 64.128906 2.460938 C 63.859375 2.554688 63.636719 2.683594 63.453125 2.84375 C 63.273438 3.007812 63.136719 3.203125 63.042969 3.425781 C 62.953125 3.644531 62.90625 3.878906 62.90625 4.136719 C 62.90625 4.460938 62.984375 4.734375 63.140625 4.953125 C 63.304688 5.164062 63.515625 5.347656 63.777344 5.5 C 64.042969 5.652344 64.339844 5.785156 64.671875 5.898438 C 65.007812 6.007812 65.351562 6.125 65.699219 6.242188 C 66.050781 6.363281 66.394531 6.5 66.722656 6.652344 C 67.0625 6.796875 67.359375 6.984375 67.621094 7.214844 C 67.886719 7.441406 68.097656 7.722656 68.253906 8.054688 C 68.417969 8.386719 68.5 8.796875 68.5 9.28125 C 68.5 9.792969 68.410156 10.273438 68.238281 10.726562 C 68.066406 11.171875 67.808594 11.5625 67.472656 11.894531 C 67.140625 12.226562 66.730469 12.488281 66.242188 12.679688 C 65.761719 12.867188 65.210938 12.964844 64.589844 12.964844 C 63.832031 12.964844 63.140625 12.828125 62.523438 12.554688 C 61.90625 12.277344 61.375 11.90625 60.9375 11.4375 L 61.390625 10.683594 C 61.433594 10.625 61.488281 10.578125 61.546875 10.539062 C 61.613281 10.496094 61.683594 10.472656 61.757812 10.472656 C 61.828125 10.472656 61.90625 10.503906 61.992188 10.5625 C 62.085938 10.617188 62.1875 10.6875 62.304688 10.773438 C 62.417969 10.863281 62.546875 10.957031 62.695312 11.0625 C 62.839844 11.164062 63.007812 11.261719 63.191406 11.347656 C 63.378906 11.433594 63.59375 11.507812 63.835938 11.566406 C 64.074219 11.621094 64.339844 11.648438 64.640625 11.648438 C 65.015625 11.648438 65.347656 11.597656 65.640625 11.492188 C 65.933594 11.390625 66.179688 11.246094 66.382812 11.0625 C 66.589844 10.871094 66.746094 10.644531 66.855469 10.382812 C 66.964844 10.121094 67.015625 9.832031 67.015625 9.507812 C 67.015625 9.15625 66.9375 8.867188 66.773438 8.644531 C 66.617188 8.414062 66.40625 8.226562 66.144531 8.070312 C 65.886719 7.917969 65.585938 7.792969 65.25 7.6875 C 64.914062 7.578125 64.570312 7.46875 64.226562 7.363281 C 63.878906 7.246094 63.535156 7.117188 63.199219 6.96875 C 62.863281 6.824219 62.5625 6.632812 62.304688 6.398438 C 62.042969 6.164062 61.832031 5.871094 61.667969 5.523438 C 61.511719 5.171875 61.433594 4.734375 61.433594 4.21875 C 61.433594 3.804688 61.511719 3.402344 61.667969 3.015625 C 61.832031 2.628906 62.066406 2.289062 62.367188 1.988281 C 62.679688 1.6875 63.054688 1.449219 63.5 1.269531 C 63.949219 1.089844 64.464844 1 65.046875 1 C 65.699219 1 66.289062 1.101562 66.820312 1.308594 C 67.359375 1.515625 67.832031 1.816406 68.238281 2.207031 Z M 82.164062 11.503906 L 82.164062 12.832031 L 75.546875 12.832031 L 75.546875 1.128906 L 77.117188 1.128906 L 77.117188 11.503906 Z M 85.816406 12.832031 L 84.234375 12.832031 L 84.234375 1.128906 L 85.816406 1.128906 Z M 90.703125 2.421875 L 90.703125 6.511719 L 95.5 6.511719 L 95.5 7.800781 L 90.703125 7.800781 L 90.703125 12.832031 L 89.125 12.832031 L 89.125 1.128906 L 96.3125 1.128906 L 96.3125 2.421875 Z M 105.855469 11.542969 L 105.847656 12.832031 L 98.65625 12.832031 L 98.65625 1.128906 L 105.847656 1.128906 L 105.847656 2.421875 L 100.238281 2.421875 L 100.238281 6.308594 L 104.78125 6.308594 L 104.78125 7.550781 L 100.238281 7.550781 L 100.238281 11.542969 Z M 105.855469 11.542969 "/>
</g>
</svg>
