<?xml version="1.0" encoding="UTF-8"?>
<svg xmlns="http://www.w3.org/2000/svg" xmlns:xlink="http://www.w3.org/1999/xlink" width="px" height="14px" viewBox="0 0 72 14" version="1.1">
<g id="surface1">
<path style=" stroke:none;fill-rule:nonzero;fill:rgb(13.72549%,13.72549%,13.72549%);fill-opacity:1;" d="M 9.664062 10.414062 C 9.753906 10.414062 9.828125 10.453125 9.894531 10.523438 L 10.519531 11.199219 C 10.042969 11.753906 9.460938 12.1875 8.78125 12.5 C 8.101562 12.808594 7.28125 12.964844 6.316406 12.964844 C 5.480469 12.964844 4.722656 12.820312 4.039062 12.53125 C 3.355469 12.238281 2.773438 11.828125 2.292969 11.304688 C 1.808594 10.777344 1.4375 10.148438 1.171875 9.410156 C 0.90625 8.675781 0.773438 7.867188 0.773438 6.984375 C 0.773438 6.105469 0.910156 5.296875 1.1875 4.558594 C 1.464844 3.824219 1.851562 3.195312 2.347656 2.664062 C 2.851562 2.136719 3.453125 1.730469 4.152344 1.441406 C 4.851562 1.148438 5.625 1 6.472656 1 C 7.300781 1 8.03125 1.132812 8.664062 1.398438 C 9.300781 1.667969 9.859375 2.027344 10.339844 2.484375 L 9.820312 3.214844 C 9.789062 3.265625 9.742188 3.3125 9.691406 3.351562 C 9.640625 3.382812 9.574219 3.402344 9.488281 3.402344 C 9.390625 3.402344 9.269531 3.347656 9.128906 3.246094 C 8.988281 3.136719 8.804688 3.015625 8.574219 2.886719 C 8.347656 2.753906 8.0625 2.636719 7.722656 2.535156 C 7.382812 2.425781 6.960938 2.371094 6.460938 2.371094 C 5.859375 2.371094 5.3125 2.476562 4.8125 2.691406 C 4.3125 2.898438 3.882812 3.199219 3.519531 3.597656 C 3.164062 3.996094 2.882812 4.480469 2.683594 5.050781 C 2.480469 5.621094 2.382812 6.265625 2.382812 6.984375 C 2.382812 7.714844 2.484375 8.367188 2.691406 8.9375 C 2.902344 9.507812 3.1875 9.992188 3.542969 10.390625 C 3.90625 10.785156 4.332031 11.082031 4.820312 11.289062 C 5.3125 11.496094 5.84375 11.601562 6.414062 11.601562 C 6.761719 11.601562 7.070312 11.582031 7.347656 11.542969 C 7.628906 11.5 7.886719 11.433594 8.121094 11.347656 C 8.359375 11.261719 8.578125 11.152344 8.78125 11.019531 C 8.984375 10.882812 9.1875 10.722656 9.390625 10.539062 C 9.480469 10.457031 9.574219 10.414062 9.664062 10.414062 Z M 18.859375 8.488281 L 17.03125 3.726562 C 16.976562 3.585938 16.917969 3.421875 16.859375 3.238281 C 16.800781 3.046875 16.742188 2.84375 16.6875 2.632812 C 16.574219 3.074219 16.457031 3.441406 16.339844 3.734375 L 14.511719 8.488281 Z M 22.144531 12.832031 L 20.921875 12.832031 C 20.78125 12.832031 20.667969 12.796875 20.582031 12.726562 C 20.496094 12.65625 20.429688 12.566406 20.386719 12.457031 L 19.296875 9.632812 L 14.070312 9.632812 L 12.980469 12.457031 C 12.949219 12.554688 12.886719 12.644531 12.792969 12.71875 C 12.703125 12.796875 12.589844 12.832031 12.453125 12.832031 L 11.234375 12.832031 L 15.890625 1.128906 L 17.484375 1.128906 Z M 27.226562 6.796875 C 27.683594 6.796875 28.085938 6.742188 28.429688 6.636719 C 28.78125 6.519531 29.074219 6.363281 29.308594 6.160156 C 29.546875 5.953125 29.726562 5.710938 29.84375 5.425781 C 29.964844 5.144531 30.023438 4.828125 30.023438 4.488281 C 30.023438 3.789062 29.796875 3.265625 29.339844 2.910156 C 28.886719 2.558594 28.203125 2.378906 27.292969 2.378906 L 25.570312 2.378906 L 25.570312 6.796875 Z M 32.609375 12.832031 L 31.210938 12.832031 C 30.921875 12.832031 30.710938 12.722656 30.578125 12.5 L 27.554688 8.316406 C 27.460938 8.1875 27.359375 8.09375 27.253906 8.039062 C 27.148438 7.980469 26.988281 7.949219 26.765625 7.949219 L 25.570312 7.949219 L 25.570312 12.832031 L 24 12.832031 L 24 1.128906 L 27.292969 1.128906 C 28.03125 1.128906 28.667969 1.207031 29.203125 1.359375 C 29.738281 1.507812 30.179688 1.722656 30.527344 2.003906 C 30.878906 2.289062 31.140625 2.628906 31.308594 3.035156 C 31.476562 3.429688 31.5625 3.878906 31.5625 4.371094 C 31.5625 4.785156 31.496094 5.171875 31.367188 5.53125 C 31.234375 5.890625 31.046875 6.214844 30.796875 6.503906 C 30.550781 6.789062 30.25 7.03125 29.894531 7.230469 C 29.542969 7.433594 29.140625 7.585938 28.691406 7.6875 C 28.890625 7.800781 29.066406 7.96875 29.210938 8.1875 Z M 41.703125 11.542969 L 41.695312 12.832031 L 34.519531 12.832031 L 34.519531 1.128906 L 41.695312 1.128906 L 41.695312 2.421875 L 36.097656 2.421875 L 36.097656 6.308594 L 40.632812 6.308594 L 40.632812 7.550781 L 36.097656 7.550781 L 36.097656 11.542969 Z M 51.414062 11.542969 L 51.40625 12.832031 L 44.226562 12.832031 L 44.226562 1.128906 L 51.40625 1.128906 L 51.40625 2.421875 L 45.804688 2.421875 L 45.804688 6.308594 L 50.339844 6.308594 L 50.339844 7.550781 L 45.804688 7.550781 L 45.804688 11.542969 Z M 57.164062 6.796875 C 57.617188 6.796875 58.019531 6.742188 58.367188 6.636719 C 58.71875 6.519531 59.011719 6.363281 59.242188 6.160156 C 59.484375 5.953125 59.660156 5.710938 59.78125 5.425781 C 59.898438 5.144531 59.960938 4.828125 59.960938 4.488281 C 59.960938 3.789062 59.730469 3.265625 59.277344 2.910156 C 58.820312 2.558594 58.136719 2.378906 57.226562 2.378906 L 55.503906 2.378906 L 55.503906 6.796875 Z M 62.542969 12.832031 L 61.144531 12.832031 C 60.859375 12.832031 60.648438 12.722656 60.511719 12.5 L 57.488281 8.316406 C 57.394531 8.1875 57.296875 8.09375 57.1875 8.039062 C 57.085938 7.980469 56.921875 7.949219 56.699219 7.949219 L 55.503906 7.949219 L 55.503906 12.832031 L 53.9375 12.832031 L 53.9375 1.128906 L 57.226562 1.128906 C 57.964844 1.128906 58.601562 1.207031 59.136719 1.359375 C 59.675781 1.507812 60.117188 1.722656 60.464844 2.003906 C 60.816406 2.289062 61.074219 2.628906 61.242188 3.035156 C 61.410156 3.429688 61.496094 3.878906 61.496094 4.371094 C 61.496094 4.785156 61.429688 5.171875 61.300781 5.53125 C 61.171875 5.890625 60.980469 6.214844 60.730469 6.503906 C 60.488281 6.789062 60.1875 7.03125 59.828125 7.230469 C 59.476562 7.433594 59.074219 7.585938 58.625 7.6875 C 58.828125 7.800781 59 7.96875 59.148438 8.1875 Z M 70.414062 2.960938 C 70.363281 3.042969 70.308594 3.105469 70.25 3.148438 C 70.195312 3.1875 70.128906 3.203125 70.046875 3.203125 C 69.953125 3.203125 69.847656 3.160156 69.722656 3.066406 C 69.597656 2.972656 69.441406 2.871094 69.25 2.765625 C 69.066406 2.648438 68.839844 2.546875 68.574219 2.453125 C 68.316406 2.359375 68 2.316406 67.625 2.316406 C 67.273438 2.316406 66.960938 2.363281 66.6875 2.460938 C 66.425781 2.554688 66.199219 2.683594 66.015625 2.84375 C 65.835938 3.007812 65.699219 3.203125 65.609375 3.425781 C 65.515625 3.644531 65.46875 3.878906 65.46875 4.136719 C 65.46875 4.460938 65.546875 4.734375 65.707031 4.953125 C 65.867188 5.164062 66.078125 5.347656 66.339844 5.5 C 66.605469 5.652344 66.902344 5.785156 67.234375 5.898438 C 67.570312 6.007812 67.910156 6.125 68.257812 6.242188 C 68.609375 6.363281 68.953125 6.5 69.28125 6.652344 C 69.617188 6.796875 69.917969 6.984375 70.175781 7.214844 C 70.441406 7.441406 70.652344 7.722656 70.8125 8.054688 C 70.972656 8.386719 71.054688 8.796875 71.054688 9.28125 C 71.054688 9.792969 70.96875 10.273438 70.792969 10.726562 C 70.621094 11.171875 70.367188 11.5625 70.03125 11.894531 C 69.699219 12.226562 69.289062 12.488281 68.804688 12.679688 C 68.320312 12.867188 67.769531 12.964844 67.152344 12.964844 C 66.394531 12.964844 65.707031 12.828125 65.089844 12.554688 C 64.46875 12.277344 63.941406 11.90625 63.503906 11.4375 L 63.957031 10.683594 C 64 10.625 64.054688 10.578125 64.113281 10.539062 C 64.175781 10.496094 64.246094 10.472656 64.324219 10.472656 C 64.394531 10.472656 64.472656 10.503906 64.558594 10.5625 C 64.652344 10.617188 64.753906 10.6875 64.867188 10.773438 C 64.980469 10.863281 65.113281 10.957031 65.257812 11.0625 C 65.40625 11.164062 65.570312 11.261719 65.753906 11.347656 C 65.945312 11.433594 66.160156 11.507812 66.398438 11.566406 C 66.636719 11.621094 66.902344 11.648438 67.203125 11.648438 C 67.574219 11.648438 67.910156 11.597656 68.203125 11.492188 C 68.492188 11.390625 68.742188 11.246094 68.941406 11.0625 C 69.148438 10.871094 69.304688 10.644531 69.414062 10.382812 C 69.519531 10.121094 69.574219 9.832031 69.574219 9.507812 C 69.574219 9.15625 69.492188 8.867188 69.332031 8.644531 C 69.175781 8.414062 68.964844 8.226562 68.707031 8.070312 C 68.445312 7.917969 68.148438 7.792969 67.8125 7.6875 C 67.476562 7.578125 67.132812 7.46875 66.785156 7.363281 C 66.441406 7.246094 66.097656 7.117188 65.761719 6.96875 C 65.425781 6.824219 65.128906 6.632812 64.867188 6.398438 C 64.609375 6.164062 64.398438 5.871094 64.234375 5.523438 C 64.078125 5.171875 64 4.734375 64 4.21875 C 64 3.804688 64.078125 3.402344 64.234375 3.015625 C 64.398438 2.628906 64.628906 2.289062 64.933594 1.988281 C 65.242188 1.6875 65.617188 1.449219 66.0625 1.269531 C 66.511719 1.089844 67.027344 1 67.609375 1 C 68.257812 1 68.847656 1.101562 69.378906 1.308594 C 69.917969 1.515625 70.386719 1.816406 70.792969 2.207031 Z M 70.414062 2.960938 "/>
</g>
</svg>
