<?xml version="1.0" encoding="UTF-8"?>
<svg xmlns="http://www.w3.org/2000/svg" xmlns:xlink="http://www.w3.org/1999/xlink" width="px" height="14px" viewBox="0 0 119 14" version="1.1">
<g id="surface1">
<path style=" stroke:none;fill-rule:nonzero;fill:rgb(13.72549%,13.72549%,13.72549%);fill-opacity:1;" d="M 10.472656 6.984375 C 10.472656 7.863281 10.332031 8.660156 10.054688 9.378906 C 9.777344 10.097656 9.382812 10.710938 8.878906 11.222656 C 8.371094 11.734375 7.761719 12.132812 7.050781 12.417969 C 6.339844 12.695312 5.558594 12.832031 4.695312 12.832031 L 0.328125 12.832031 L 0.328125 1.128906 L 4.695312 1.128906 C 5.558594 1.128906 6.339844 1.273438 7.050781 1.554688 C 7.761719 1.832031 8.371094 2.230469 8.878906 2.746094 C 9.382812 3.257812 9.777344 3.875 10.054688 4.59375 C 10.332031 5.3125 10.472656 6.109375 10.472656 6.984375 Z M 8.84375 6.984375 C 8.84375 6.265625 8.746094 5.625 8.550781 5.058594 C 8.355469 4.492188 8.078125 4.011719 7.71875 3.621094 C 7.359375 3.230469 6.921875 2.929688 6.410156 2.722656 C 5.898438 2.515625 5.328125 2.414062 4.695312 2.414062 L 1.914062 2.414062 L 1.914062 11.550781 L 4.695312 11.550781 C 5.328125 11.550781 5.898438 11.449219 6.410156 11.242188 C 6.921875 11.035156 7.359375 10.738281 7.71875 10.351562 C 8.078125 9.957031 8.355469 9.480469 8.550781 8.914062 C 8.746094 8.347656 8.84375 7.703125 8.84375 6.984375 Z M 20.300781 11.542969 L 20.292969 12.832031 L 13.078125 12.832031 L 13.078125 1.128906 L 20.292969 1.128906 L 20.292969 2.421875 L 14.664062 2.421875 L 14.664062 6.308594 L 19.222656 6.308594 L 19.222656 7.550781 L 14.664062 7.550781 L 14.664062 11.542969 Z M 26.289062 7.199219 C 26.738281 7.199219 27.136719 7.136719 27.480469 7.019531 C 27.828125 6.898438 28.121094 6.734375 28.355469 6.519531 C 28.59375 6.300781 28.773438 6.042969 28.894531 5.746094 C 29.011719 5.445312 29.074219 5.117188 29.074219 4.757812 C 29.074219 4.011719 28.839844 3.429688 28.378906 3.007812 C 27.921875 2.589844 27.222656 2.378906 26.289062 2.378906 L 24.410156 2.378906 L 24.410156 7.199219 Z M 26.289062 1.128906 C 27.027344 1.128906 27.671875 1.21875 28.214844 1.390625 C 28.765625 1.5625 29.21875 1.804688 29.578125 2.117188 C 29.9375 2.433594 30.207031 2.816406 30.378906 3.261719 C 30.558594 3.707031 30.648438 4.207031 30.648438 4.757812 C 30.648438 5.300781 30.554688 5.800781 30.363281 6.25 C 30.171875 6.703125 29.890625 7.09375 29.523438 7.417969 C 29.15625 7.746094 28.703125 8 28.15625 8.1875 C 27.617188 8.367188 26.996094 8.457031 26.289062 8.457031 L 24.410156 8.457031 L 24.410156 12.832031 L 22.832031 12.832031 L 22.832031 1.128906 Z M 38.371094 8.488281 L 36.535156 3.726562 C 36.480469 3.585938 36.421875 3.421875 36.363281 3.238281 C 36.300781 3.046875 36.246094 2.84375 36.191406 2.632812 C 36.074219 3.074219 35.960938 3.441406 35.839844 3.734375 L 34 8.488281 Z M 41.671875 12.832031 L 40.445312 12.832031 C 40.304688 12.832031 40.1875 12.796875 40.101562 12.726562 C 40.015625 12.65625 39.949219 12.566406 39.90625 12.457031 L 38.8125 9.632812 L 33.5625 9.632812 L 32.464844 12.457031 C 32.433594 12.554688 32.371094 12.644531 32.277344 12.71875 C 32.1875 12.796875 32.070312 12.832031 31.9375 12.832031 L 30.710938 12.832031 L 35.390625 1.128906 L 36.992188 1.128906 Z M 46.777344 6.796875 C 47.234375 6.796875 47.640625 6.742188 47.988281 6.636719 C 48.339844 6.519531 48.636719 6.363281 48.871094 6.160156 C 49.109375 5.953125 49.289062 5.710938 49.410156 5.425781 C 49.527344 5.144531 49.589844 4.828125 49.589844 4.488281 C 49.589844 3.789062 49.359375 3.265625 48.902344 2.910156 C 48.445312 2.558594 47.757812 2.378906 46.84375 2.378906 L 45.113281 2.378906 L 45.113281 6.796875 Z M 52.183594 12.832031 L 50.78125 12.832031 C 50.492188 12.832031 50.28125 12.722656 50.144531 12.5 L 47.105469 8.316406 C 47.011719 8.1875 46.910156 8.09375 46.804688 8.039062 C 46.699219 7.980469 46.535156 7.949219 46.3125 7.949219 L 45.113281 7.949219 L 45.113281 12.832031 L 43.535156 12.832031 L 43.535156 1.128906 L 46.84375 1.128906 C 47.585938 1.128906 48.222656 1.207031 48.761719 1.359375 C 49.300781 1.507812 49.746094 1.722656 50.09375 2.003906 C 50.449219 2.289062 50.710938 2.628906 50.878906 3.035156 C 51.046875 3.429688 51.132812 3.878906 51.132812 4.371094 C 51.132812 4.785156 51.066406 5.171875 50.933594 5.53125 C 50.804688 5.890625 50.613281 6.214844 50.363281 6.503906 C 50.117188 6.789062 49.816406 7.03125 49.457031 7.230469 C 49.101562 7.433594 48.699219 7.585938 48.25 7.6875 C 48.449219 7.800781 48.625 7.96875 48.769531 8.1875 Z M 61.632812 2.460938 L 57.84375 2.460938 L 57.84375 12.832031 L 56.269531 12.832031 L 56.269531 2.460938 L 52.472656 2.460938 L 52.472656 1.128906 L 61.632812 1.128906 Z M 75.875 1.128906 L 75.875 12.832031 L 74.484375 12.832031 L 74.484375 4.234375 C 74.484375 4.121094 74.488281 3.996094 74.492188 3.867188 C 74.503906 3.734375 74.515625 3.601562 74.527344 3.464844 L 70.507812 10.785156 C 70.382812 11.027344 70.191406 11.152344 69.9375 11.152344 L 69.707031 11.152344 C 69.453125 11.152344 69.261719 11.027344 69.136719 10.785156 L 65.035156 3.433594 C 65.070312 3.722656 65.085938 3.988281 65.085938 4.234375 L 65.085938 12.832031 L 63.699219 12.832031 L 63.699219 1.128906 L 64.863281 1.128906 C 65.007812 1.128906 65.117188 1.144531 65.191406 1.171875 C 65.269531 1.199219 65.339844 1.273438 65.414062 1.398438 L 69.453125 8.601562 C 69.519531 8.734375 69.582031 8.871094 69.644531 9.011719 C 69.707031 9.152344 69.769531 9.296875 69.824219 9.445312 C 69.875 9.296875 69.933594 9.152344 69.992188 9.011719 C 70.054688 8.863281 70.117188 8.726562 70.191406 8.59375 L 74.160156 1.398438 C 74.222656 1.273438 74.296875 1.199219 74.371094 1.171875 C 74.453125 1.144531 74.566406 1.128906 74.707031 1.128906 Z M 86.414062 11.542969 L 86.402344 12.832031 L 79.191406 12.832031 L 79.191406 1.128906 L 86.402344 1.128906 L 86.402344 2.421875 L 80.777344 2.421875 L 80.777344 6.308594 L 85.335938 6.308594 L 85.335938 7.550781 L 80.777344 7.550781 L 80.777344 11.542969 Z M 98.429688 1.128906 L 98.429688 12.832031 L 97.636719 12.832031 C 97.511719 12.832031 97.40625 12.8125 97.316406 12.769531 C 97.234375 12.722656 97.152344 12.652344 97.070312 12.546875 L 90.300781 3.726562 C 90.3125 3.863281 90.320312 3.996094 90.328125 4.128906 C 90.332031 4.257812 90.335938 4.378906 90.335938 4.496094 L 90.335938 12.832031 L 88.945312 12.832031 L 88.945312 1.128906 L 89.761719 1.128906 C 89.832031 1.128906 89.894531 1.136719 89.941406 1.148438 C 89.992188 1.152344 90.035156 1.164062 90.074219 1.1875 C 90.113281 1.203125 90.148438 1.230469 90.1875 1.269531 C 90.226562 1.300781 90.265625 1.34375 90.308594 1.398438 L 97.082031 10.210938 C 97.070312 10.070312 97.058594 9.933594 97.046875 9.804688 C 97.042969 9.667969 97.039062 9.539062 97.039062 9.417969 L 97.039062 1.128906 Z M 109.660156 2.460938 L 105.871094 2.460938 L 105.871094 12.832031 L 104.292969 12.832031 L 104.292969 2.460938 L 100.496094 2.460938 L 100.496094 1.128906 L 109.660156 1.128906 Z M 117.660156 2.960938 C 117.613281 3.042969 117.558594 3.105469 117.5 3.148438 C 117.445312 3.1875 117.375 3.203125 117.292969 3.203125 C 117.199219 3.203125 117.09375 3.160156 116.96875 3.066406 C 116.839844 2.972656 116.683594 2.871094 116.492188 2.765625 C 116.308594 2.648438 116.082031 2.546875 115.816406 2.453125 C 115.554688 2.359375 115.234375 2.316406 114.859375 2.316406 C 114.507812 2.316406 114.191406 2.363281 113.921875 2.460938 C 113.65625 2.554688 113.429688 2.683594 113.242188 2.84375 C 113.0625 3.007812 112.925781 3.203125 112.835938 3.425781 C 112.742188 3.644531 112.695312 3.878906 112.695312 4.136719 C 112.695312 4.460938 112.773438 4.734375 112.933594 4.953125 C 113.097656 5.164062 113.308594 5.347656 113.570312 5.5 C 113.835938 5.652344 114.136719 5.785156 114.46875 5.898438 C 114.804688 6.007812 115.148438 6.125 115.496094 6.242188 C 115.851562 6.363281 116.195312 6.5 116.527344 6.652344 C 116.863281 6.796875 117.164062 6.984375 117.425781 7.214844 C 117.691406 7.441406 117.902344 7.722656 118.0625 8.054688 C 118.226562 8.386719 118.308594 8.796875 118.308594 9.28125 C 118.308594 9.792969 118.21875 10.273438 118.046875 10.726562 C 117.871094 11.171875 117.613281 11.5625 117.277344 11.894531 C 116.945312 12.226562 116.535156 12.488281 116.042969 12.679688 C 115.558594 12.867188 115.007812 12.964844 114.386719 12.964844 C 113.625 12.964844 112.933594 12.828125 112.3125 12.554688 C 111.691406 12.277344 111.160156 11.90625 110.71875 11.4375 L 111.175781 10.683594 C 111.21875 10.625 111.273438 10.578125 111.332031 10.539062 C 111.398438 10.496094 111.46875 10.472656 111.542969 10.472656 C 111.617188 10.472656 111.695312 10.503906 111.78125 10.5625 C 111.875 10.617188 111.976562 10.6875 112.089844 10.773438 C 112.207031 10.863281 112.335938 10.957031 112.484375 11.0625 C 112.628906 11.164062 112.796875 11.261719 112.980469 11.347656 C 113.171875 11.433594 113.386719 11.507812 113.628906 11.566406 C 113.867188 11.621094 114.136719 11.648438 114.433594 11.648438 C 114.8125 11.648438 115.144531 11.597656 115.441406 11.492188 C 115.734375 11.390625 115.980469 11.246094 116.183594 11.0625 C 116.390625 10.871094 116.546875 10.644531 116.65625 10.382812 C 116.765625 10.121094 116.820312 9.832031 116.820312 9.507812 C 116.820312 9.15625 116.738281 8.867188 116.574219 8.644531 C 116.417969 8.414062 116.207031 8.226562 115.945312 8.070312 C 115.683594 7.917969 115.386719 7.792969 115.046875 7.6875 C 114.710938 7.578125 114.367188 7.46875 114.019531 7.363281 C 113.671875 7.246094 113.328125 7.117188 112.988281 6.96875 C 112.652344 6.824219 112.351562 6.632812 112.089844 6.398438 C 111.832031 6.164062 111.617188 5.871094 111.453125 5.523438 C 111.296875 5.171875 111.21875 4.734375 111.21875 4.21875 C 111.21875 3.804688 111.296875 3.402344 111.453125 3.015625 C 111.617188 2.628906 111.851562 2.289062 112.15625 1.988281 C 112.46875 1.6875 112.847656 1.449219 113.292969 1.269531 C 113.746094 1.089844 114.261719 1 114.84375 1 C 115.496094 1 116.089844 1.101562 116.625 1.308594 C 117.164062 1.515625 117.636719 1.816406 118.046875 2.207031 Z M 117.660156 2.960938 "/>
</g>
</svg>
