<?xml version="1.0" encoding="UTF-8"?>
<svg xmlns="http://www.w3.org/2000/svg" xmlns:xlink="http://www.w3.org/1999/xlink" width="px" height="14px" viewBox="0 0 81 14" version="1.1">
<g id="surface1">
<path style=" stroke:none;fill-rule:nonzero;fill:rgb(13.72549%,13.72549%,13.72549%);fill-opacity:1;" d="M 1.898438 12.832031 L 0.324219 12.832031 L 0.324219 1.128906 L 1.898438 1.128906 Z M 14.59375 1.128906 L 14.59375 12.832031 L 13.808594 12.832031 C 13.683594 12.832031 13.578125 12.8125 13.492188 12.769531 C 13.410156 12.722656 13.328125 12.652344 13.25 12.546875 L 6.535156 3.726562 C 6.546875 3.863281 6.554688 3.996094 6.558594 4.128906 C 6.5625 4.257812 6.566406 4.378906 6.566406 4.496094 L 6.566406 12.832031 L 5.191406 12.832031 L 5.191406 1.128906 L 6 1.128906 C 6.070312 1.128906 6.128906 1.136719 6.179688 1.148438 C 6.226562 1.152344 6.269531 1.164062 6.308594 1.1875 C 6.34375 1.203125 6.382812 1.230469 6.421875 1.269531 C 6.457031 1.300781 6.5 1.34375 6.542969 1.398438 L 13.257812 10.210938 C 13.246094 10.070312 13.234375 9.933594 13.226562 9.804688 C 13.21875 9.667969 13.214844 9.539062 13.214844 9.417969 L 13.214844 1.128906 Z M 23.824219 2.960938 C 23.773438 3.042969 23.71875 3.105469 23.660156 3.148438 C 23.605469 3.1875 23.539062 3.203125 23.457031 3.203125 C 23.367188 3.203125 23.257812 3.160156 23.132812 3.066406 C 23.007812 2.972656 22.851562 2.871094 22.664062 2.765625 C 22.480469 2.648438 22.257812 2.546875 21.992188 2.453125 C 21.734375 2.359375 21.417969 2.316406 21.042969 2.316406 C 20.691406 2.316406 20.382812 2.363281 20.113281 2.460938 C 19.847656 2.554688 19.625 2.683594 19.441406 2.84375 C 19.261719 3.007812 19.128906 3.203125 19.035156 3.425781 C 18.945312 3.644531 18.898438 3.878906 18.898438 4.136719 C 18.898438 4.460938 18.976562 4.734375 19.132812 4.953125 C 19.292969 5.164062 19.503906 5.347656 19.765625 5.5 C 20.027344 5.652344 20.324219 5.785156 20.65625 5.898438 C 20.988281 6.007812 21.332031 6.125 21.675781 6.242188 C 22.027344 6.363281 22.367188 6.5 22.695312 6.652344 C 23.03125 6.796875 23.328125 6.984375 23.585938 7.214844 C 23.851562 7.441406 24.0625 7.722656 24.21875 8.054688 C 24.382812 8.386719 24.460938 8.796875 24.460938 9.28125 C 24.460938 9.792969 24.375 10.273438 24.203125 10.726562 C 24.03125 11.171875 23.777344 11.5625 23.441406 11.894531 C 23.113281 12.226562 22.703125 12.488281 22.21875 12.679688 C 21.738281 12.867188 21.191406 12.964844 20.574219 12.964844 C 19.816406 12.964844 19.132812 12.828125 18.515625 12.554688 C 17.902344 12.277344 17.375 11.90625 16.9375 11.4375 L 17.390625 10.683594 C 17.433594 10.625 17.484375 10.578125 17.542969 10.539062 C 17.609375 10.496094 17.679688 10.472656 17.753906 10.472656 C 17.824219 10.472656 17.902344 10.503906 17.992188 10.5625 C 18.082031 10.617188 18.183594 10.6875 18.296875 10.773438 C 18.410156 10.863281 18.542969 10.957031 18.6875 11.0625 C 18.832031 11.164062 18.996094 11.261719 19.179688 11.347656 C 19.371094 11.433594 19.582031 11.507812 19.820312 11.566406 C 20.058594 11.621094 20.324219 11.648438 20.621094 11.648438 C 20.996094 11.648438 21.328125 11.597656 21.617188 11.492188 C 21.910156 11.390625 22.15625 11.246094 22.355469 11.0625 C 22.5625 10.871094 22.71875 10.644531 22.824219 10.382812 C 22.933594 10.121094 22.988281 9.832031 22.988281 9.507812 C 22.988281 9.15625 22.90625 8.867188 22.746094 8.644531 C 22.589844 8.414062 22.378906 8.226562 22.121094 8.070312 C 21.863281 7.917969 21.566406 7.792969 21.230469 7.6875 C 20.894531 7.578125 20.554688 7.46875 20.210938 7.363281 C 19.863281 7.246094 19.523438 7.117188 19.1875 6.96875 C 18.855469 6.824219 18.558594 6.632812 18.296875 6.398438 C 18.039062 6.164062 17.828125 5.871094 17.667969 5.523438 C 17.511719 5.171875 17.429688 4.734375 17.429688 4.21875 C 17.429688 3.804688 17.511719 3.402344 17.667969 3.015625 C 17.828125 2.628906 18.0625 2.289062 18.363281 1.988281 C 18.671875 1.6875 19.046875 1.449219 19.488281 1.269531 C 19.9375 1.089844 20.449219 1 21.027344 1 C 21.675781 1 22.265625 1.101562 22.792969 1.308594 C 23.328125 1.515625 23.796875 1.816406 24.203125 2.207031 Z M 34.855469 2.460938 L 31.09375 2.460938 L 31.09375 12.832031 L 29.53125 12.832031 L 29.53125 2.460938 L 25.765625 2.460938 L 25.765625 1.128906 L 34.855469 1.128906 Z M 38.472656 12.832031 L 36.902344 12.832031 L 36.902344 1.128906 L 38.472656 1.128906 Z M 49.613281 2.460938 L 45.855469 2.460938 L 45.855469 12.832031 L 44.292969 12.832031 L 44.292969 2.460938 L 40.527344 2.460938 L 40.527344 1.128906 L 49.613281 1.128906 Z M 56.140625 11.574219 C 56.621094 11.574219 57.050781 11.492188 57.425781 11.332031 C 57.804688 11.167969 58.125 10.9375 58.382812 10.644531 C 58.648438 10.351562 58.847656 10 58.984375 9.589844 C 59.121094 9.183594 59.191406 8.734375 59.191406 8.242188 L 59.191406 1.128906 L 60.757812 1.128906 L 60.757812 8.242188 C 60.757812 8.917969 60.648438 9.542969 60.433594 10.121094 C 60.222656 10.699219 59.917969 11.199219 59.515625 11.625 C 59.121094 12.042969 58.640625 12.375 58.066406 12.613281 C 57.496094 12.851562 56.851562 12.972656 56.140625 12.972656 C 55.425781 12.972656 54.785156 12.851562 54.210938 12.613281 C 53.640625 12.375 53.152344 12.042969 52.753906 11.625 C 52.355469 11.199219 52.046875 10.699219 51.832031 10.121094 C 51.621094 9.542969 51.515625 8.917969 51.515625 8.242188 L 51.515625 1.128906 L 53.078125 1.128906 L 53.078125 8.234375 C 53.078125 8.726562 53.144531 9.175781 53.28125 9.582031 C 53.421875 9.992188 53.621094 10.34375 53.878906 10.636719 C 54.144531 10.929688 54.464844 11.160156 54.84375 11.332031 C 55.226562 11.492188 55.660156 11.574219 56.140625 11.574219 Z M 71.746094 2.460938 L 67.988281 2.460938 L 67.988281 12.832031 L 66.425781 12.832031 L 66.425781 2.460938 L 62.65625 2.460938 L 62.65625 1.128906 L 71.746094 1.128906 Z M 80.953125 11.542969 L 80.945312 12.832031 L 73.792969 12.832031 L 73.792969 1.128906 L 80.945312 1.128906 L 80.945312 2.421875 L 75.363281 2.421875 L 75.363281 6.308594 L 79.882812 6.308594 L 79.882812 7.550781 L 75.363281 7.550781 L 75.363281 11.542969 Z M 80.953125 11.542969 "/>
</g>
</svg>
