<?xml version="1.0" encoding="UTF-8"?>
<svg xmlns="http://www.w3.org/2000/svg" xmlns:xlink="http://www.w3.org/1999/xlink" width="px" height="14px" viewBox="0 0 106 14" version="1.1">
<g id="surface1">
<path style=" stroke:none;fill-rule:nonzero;fill:rgb(13.72549%,13.72549%,13.72549%);fill-opacity:1;" d="M 3.777344 7.199219 C 4.226562 7.199219 4.625 7.136719 4.96875 7.019531 C 5.316406 6.898438 5.605469 6.734375 5.839844 6.519531 C 6.078125 6.300781 6.257812 6.042969 6.378906 5.746094 C 6.496094 5.445312 6.558594 5.117188 6.558594 4.757812 C 6.558594 4.011719 6.324219 3.429688 5.863281 3.007812 C 5.40625 2.589844 4.710938 2.378906 3.777344 2.378906 L 1.902344 2.378906 L 1.902344 7.199219 Z M 3.777344 1.128906 C 4.515625 1.128906 5.15625 1.21875 5.699219 1.390625 C 6.25 1.5625 6.703125 1.804688 7.0625 2.117188 C 7.421875 2.433594 7.6875 2.816406 7.863281 3.261719 C 8.039062 3.707031 8.128906 4.207031 8.128906 4.757812 C 8.128906 5.300781 8.035156 5.800781 7.84375 6.25 C 7.65625 6.703125 7.375 7.09375 7.003906 7.417969 C 6.640625 7.746094 6.1875 8 5.644531 8.1875 C 5.105469 8.367188 4.484375 8.457031 3.777344 8.457031 L 1.902344 8.457031 L 1.902344 12.832031 L 0.328125 12.832031 L 0.328125 1.128906 Z M 17.078125 11.503906 L 17.078125 12.832031 L 10.449219 12.832031 L 10.449219 1.128906 L 12.019531 1.128906 L 12.019531 11.503906 Z M 25.355469 8.488281 L 23.519531 3.726562 C 23.464844 3.585938 23.410156 3.421875 23.351562 3.238281 C 23.289062 3.046875 23.234375 2.84375 23.179688 2.632812 C 23.0625 3.074219 22.949219 3.441406 22.828125 3.734375 L 20.992188 8.488281 Z M 28.648438 12.832031 L 27.425781 12.832031 C 27.285156 12.832031 27.171875 12.796875 27.085938 12.726562 C 26.996094 12.65625 26.933594 12.566406 26.886719 12.457031 L 25.796875 9.632812 L 20.554688 9.632812 L 19.460938 12.457031 C 19.429688 12.554688 19.367188 12.644531 19.273438 12.71875 C 19.179688 12.796875 19.066406 12.832031 18.929688 12.832031 L 17.707031 12.832031 L 22.378906 1.128906 L 23.976562 1.128906 Z M 38.414062 10.414062 C 38.5 10.414062 38.578125 10.453125 38.640625 10.523438 L 39.269531 11.199219 C 38.792969 11.753906 38.210938 12.1875 37.523438 12.5 C 36.84375 12.808594 36.019531 12.964844 35.054688 12.964844 C 34.21875 12.964844 33.457031 12.820312 32.769531 12.53125 C 32.085938 12.238281 31.5 11.828125 31.019531 11.304688 C 30.535156 10.777344 30.160156 10.148438 29.894531 9.410156 C 29.625 8.675781 29.492188 7.867188 29.492188 6.984375 C 29.492188 6.105469 29.632812 5.296875 29.910156 4.558594 C 30.1875 3.824219 30.574219 3.195312 31.074219 2.664062 C 31.582031 2.136719 32.183594 1.730469 32.886719 1.441406 C 33.585938 1.148438 34.359375 1 35.207031 1 C 36.039062 1 36.773438 1.132812 37.410156 1.398438 C 38.046875 1.667969 38.605469 2.027344 39.089844 2.484375 L 38.566406 3.214844 C 38.535156 3.265625 38.492188 3.3125 38.4375 3.351562 C 38.390625 3.382812 38.320312 3.402344 38.234375 3.402344 C 38.136719 3.402344 38.015625 3.347656 37.875 3.246094 C 37.734375 3.136719 37.550781 3.015625 37.320312 2.886719 C 37.09375 2.753906 36.808594 2.636719 36.464844 2.535156 C 36.121094 2.425781 35.699219 2.371094 35.199219 2.371094 C 34.597656 2.371094 34.046875 2.476562 33.546875 2.691406 C 33.046875 2.898438 32.613281 3.199219 32.25 3.597656 C 31.890625 3.996094 31.609375 4.480469 31.410156 5.050781 C 31.207031 5.621094 31.109375 6.265625 31.109375 6.984375 C 31.109375 7.714844 31.210938 8.367188 31.417969 8.9375 C 31.628906 9.507812 31.914062 9.992188 32.273438 10.390625 C 32.636719 10.785156 33.0625 11.082031 33.554688 11.289062 C 34.046875 11.496094 34.582031 11.601562 35.152344 11.601562 C 35.5 11.601562 35.8125 11.582031 36.089844 11.542969 C 36.371094 11.5 36.628906 11.433594 36.863281 11.347656 C 37.101562 11.261719 37.324219 11.152344 37.523438 11.019531 C 37.730469 10.882812 37.933594 10.722656 38.136719 10.539062 C 38.226562 10.457031 38.320312 10.414062 38.414062 10.414062 Z M 48.636719 11.542969 L 48.628906 12.832031 L 41.429688 12.832031 L 41.429688 1.128906 L 48.628906 1.128906 L 48.628906 2.421875 L 43.011719 2.421875 L 43.011719 6.308594 L 47.5625 6.308594 L 47.5625 7.550781 L 43.011719 7.550781 L 43.011719 11.542969 Z M 63.324219 1.128906 L 63.324219 12.832031 L 61.9375 12.832031 L 61.9375 4.234375 C 61.9375 4.121094 61.941406 3.996094 61.945312 3.867188 C 61.957031 3.734375 61.96875 3.601562 61.980469 3.464844 L 57.96875 10.785156 C 57.84375 11.027344 57.652344 11.152344 57.398438 11.152344 L 57.167969 11.152344 C 56.914062 11.152344 56.722656 11.027344 56.597656 10.785156 L 52.503906 3.433594 C 52.539062 3.722656 52.554688 3.988281 52.554688 4.234375 L 52.554688 12.832031 L 51.167969 12.832031 L 51.167969 1.128906 L 52.332031 1.128906 C 52.476562 1.128906 52.582031 1.144531 52.660156 1.171875 C 52.734375 1.199219 52.808594 1.273438 52.878906 1.398438 L 56.917969 8.601562 C 56.980469 8.734375 57.042969 8.871094 57.105469 9.011719 C 57.167969 9.152344 57.230469 9.296875 57.285156 9.445312 C 57.335938 9.296875 57.394531 9.152344 57.453125 9.011719 C 57.515625 8.863281 57.578125 8.726562 57.648438 8.59375 L 61.613281 1.398438 C 61.679688 1.273438 61.75 1.199219 61.824219 1.171875 C 61.90625 1.144531 62.019531 1.128906 62.160156 1.128906 Z M 73.847656 11.542969 L 73.839844 12.832031 L 66.640625 12.832031 L 66.640625 1.128906 L 73.839844 1.128906 L 73.839844 2.421875 L 68.222656 2.421875 L 68.222656 6.308594 L 72.769531 6.308594 L 72.769531 7.550781 L 68.222656 7.550781 L 68.222656 11.542969 Z M 85.84375 1.128906 L 85.84375 12.832031 L 85.054688 12.832031 C 84.929688 12.832031 84.820312 12.8125 84.734375 12.769531 C 84.652344 12.722656 84.570312 12.652344 84.492188 12.546875 L 77.730469 3.726562 C 77.742188 3.863281 77.75 3.996094 77.753906 4.128906 C 77.761719 4.257812 77.761719 4.378906 77.761719 4.496094 L 77.761719 12.832031 L 76.378906 12.832031 L 76.378906 1.128906 L 77.191406 1.128906 C 77.261719 1.128906 77.324219 1.136719 77.371094 1.148438 C 77.421875 1.152344 77.464844 1.164062 77.503906 1.1875 C 77.539062 1.203125 77.578125 1.230469 77.617188 1.269531 C 77.65625 1.300781 77.695312 1.34375 77.738281 1.398438 L 84.5 10.210938 C 84.488281 10.070312 84.476562 9.933594 84.464844 9.804688 C 84.460938 9.667969 84.457031 9.539062 84.457031 9.417969 L 84.457031 1.128906 Z M 97.058594 2.460938 L 93.273438 2.460938 L 93.273438 12.832031 L 91.699219 12.832031 L 91.699219 2.460938 L 87.910156 2.460938 L 87.910156 1.128906 L 97.058594 1.128906 Z M 105.046875 2.960938 C 105 3.042969 104.945312 3.105469 104.882812 3.148438 C 104.828125 3.1875 104.761719 3.203125 104.679688 3.203125 C 104.585938 3.203125 104.480469 3.160156 104.355469 3.066406 C 104.230469 2.972656 104.070312 2.871094 103.882812 2.765625 C 103.695312 2.648438 103.472656 2.546875 103.203125 2.453125 C 102.945312 2.359375 102.625 2.316406 102.25 2.316406 C 101.898438 2.316406 101.585938 2.363281 101.3125 2.460938 C 101.046875 2.554688 100.820312 2.683594 100.636719 2.84375 C 100.457031 3.007812 100.320312 3.203125 100.226562 3.425781 C 100.136719 3.644531 100.089844 3.878906 100.089844 4.136719 C 100.089844 4.460938 100.167969 4.734375 100.324219 4.953125 C 100.488281 5.164062 100.699219 5.347656 100.960938 5.5 C 101.226562 5.652344 101.527344 5.785156 101.859375 5.898438 C 102.195312 6.007812 102.539062 6.125 102.886719 6.242188 C 103.238281 6.363281 103.582031 6.5 103.914062 6.652344 C 104.25 6.796875 104.550781 6.984375 104.8125 7.214844 C 105.078125 7.441406 105.289062 7.722656 105.445312 8.054688 C 105.609375 8.386719 105.691406 8.796875 105.691406 9.28125 C 105.691406 9.792969 105.605469 10.273438 105.429688 10.726562 C 105.257812 11.171875 105 11.5625 104.664062 11.894531 C 104.332031 12.226562 103.921875 12.488281 103.433594 12.679688 C 102.949219 12.867188 102.398438 12.964844 101.777344 12.964844 C 101.015625 12.964844 100.324219 12.828125 99.707031 12.554688 C 99.085938 12.277344 98.558594 11.90625 98.117188 11.4375 L 98.574219 10.683594 C 98.617188 10.625 98.667969 10.578125 98.726562 10.539062 C 98.792969 10.496094 98.863281 10.472656 98.941406 10.472656 C 99.011719 10.472656 99.089844 10.503906 99.175781 10.5625 C 99.269531 10.617188 99.371094 10.6875 99.484375 10.773438 C 99.601562 10.863281 99.730469 10.957031 99.878906 11.0625 C 100.023438 11.164062 100.191406 11.261719 100.375 11.347656 C 100.566406 11.433594 100.78125 11.507812 101.019531 11.566406 C 101.257812 11.621094 101.527344 11.648438 101.828125 11.648438 C 102.203125 11.648438 102.535156 11.597656 102.828125 11.492188 C 103.121094 11.390625 103.371094 11.246094 103.570312 11.0625 C 103.777344 10.871094 103.9375 10.644531 104.042969 10.382812 C 104.152344 10.121094 104.207031 9.832031 104.207031 9.507812 C 104.207031 9.15625 104.125 8.867188 103.960938 8.644531 C 103.804688 8.414062 103.597656 8.226562 103.335938 8.070312 C 103.074219 7.917969 102.773438 7.792969 102.4375 7.6875 C 102.101562 7.578125 101.757812 7.46875 101.410156 7.363281 C 101.0625 7.246094 100.71875 7.117188 100.382812 6.96875 C 100.046875 6.824219 99.746094 6.632812 99.484375 6.398438 C 99.226562 6.164062 99.011719 5.871094 98.851562 5.523438 C 98.691406 5.171875 98.613281 4.734375 98.613281 4.21875 C 98.613281 3.804688 98.691406 3.402344 98.851562 3.015625 C 99.011719 2.628906 99.246094 2.289062 99.550781 1.988281 C 99.859375 1.6875 100.238281 1.449219 100.683594 1.269531 C 101.136719 1.089844 101.652344 1 102.234375 1 C 102.886719 1 103.480469 1.101562 104.011719 1.308594 C 104.550781 1.515625 105.023438 1.816406 105.429688 2.207031 Z M 105.046875 2.960938 "/>
</g>
</svg>
