<?xml version="1.0" encoding="UTF-8"?>
<svg xmlns="http://www.w3.org/2000/svg" xmlns:xlink="http://www.w3.org/1999/xlink" width="px" height="14px" viewBox="0 0 82 14" version="1.1">
<g id="surface1">
<path style=" stroke:none;fill-rule:nonzero;fill:rgb(13.72549%,13.72549%,13.72549%);fill-opacity:1;" d="M 3.535156 6.796875 C 3.988281 6.796875 4.386719 6.742188 4.730469 6.636719 C 5.082031 6.519531 5.371094 6.363281 5.605469 6.160156 C 5.839844 5.953125 6.019531 5.710938 6.136719 5.425781 C 6.257812 5.144531 6.316406 4.828125 6.316406 4.488281 C 6.316406 3.789062 6.089844 3.265625 5.636719 2.910156 C 5.183594 2.558594 4.503906 2.378906 3.597656 2.378906 L 1.886719 2.378906 L 1.886719 6.796875 Z M 8.886719 12.832031 L 7.496094 12.832031 C 7.210938 12.832031 7 12.722656 6.863281 12.5 L 3.859375 8.316406 C 3.765625 8.1875 3.667969 8.09375 3.558594 8.039062 C 3.457031 7.980469 3.292969 7.949219 3.074219 7.949219 L 1.886719 7.949219 L 1.886719 12.832031 L 0.324219 12.832031 L 0.324219 1.128906 L 3.597656 1.128906 C 4.332031 1.128906 4.964844 1.207031 5.5 1.359375 C 6.03125 1.507812 6.472656 1.722656 6.816406 2.003906 C 7.167969 2.289062 7.425781 2.628906 7.59375 3.035156 C 7.757812 3.429688 7.84375 3.878906 7.84375 4.371094 C 7.84375 4.785156 7.777344 5.171875 7.648438 5.53125 C 7.519531 5.890625 7.332031 6.214844 7.082031 6.503906 C 6.839844 6.789062 6.542969 7.03125 6.1875 7.230469 C 5.835938 7.433594 5.4375 7.585938 4.988281 7.6875 C 5.1875 7.800781 5.359375 7.96875 5.507812 8.1875 Z M 17.933594 11.542969 L 17.921875 12.832031 L 10.785156 12.832031 L 10.785156 1.128906 L 17.921875 1.128906 L 17.921875 2.421875 L 12.351562 2.421875 L 12.351562 6.308594 L 16.863281 6.308594 L 16.863281 7.550781 L 12.351562 7.550781 L 12.351562 11.542969 Z M 26.367188 2.960938 C 26.316406 3.042969 26.265625 3.105469 26.203125 3.148438 C 26.152344 3.1875 26.082031 3.203125 26.003906 3.203125 C 25.910156 3.203125 25.804688 3.160156 25.679688 3.066406 C 25.554688 2.972656 25.398438 2.871094 25.210938 2.765625 C 25.027344 2.648438 24.804688 2.546875 24.539062 2.453125 C 24.28125 2.359375 23.964844 2.316406 23.59375 2.316406 C 23.242188 2.316406 22.933594 2.363281 22.664062 2.460938 C 22.398438 2.554688 22.175781 2.683594 21.992188 2.84375 C 21.816406 3.007812 21.679688 3.203125 21.589844 3.425781 C 21.496094 3.644531 21.449219 3.878906 21.449219 4.136719 C 21.449219 4.460938 21.527344 4.734375 21.683594 4.953125 C 21.847656 5.164062 22.058594 5.347656 22.316406 5.5 C 22.582031 5.652344 22.875 5.785156 23.207031 5.898438 C 23.539062 6.007812 23.878906 6.125 24.222656 6.242188 C 24.574219 6.363281 24.914062 6.5 25.242188 6.652344 C 25.578125 6.796875 25.875 6.984375 26.132812 7.214844 C 26.394531 7.441406 26.605469 7.722656 26.761719 8.054688 C 26.925781 8.386719 27.003906 8.796875 27.003906 9.28125 C 27.003906 9.792969 26.917969 10.273438 26.746094 10.726562 C 26.574219 11.171875 26.320312 11.5625 25.988281 11.894531 C 25.65625 12.226562 25.25 12.488281 24.765625 12.679688 C 24.285156 12.867188 23.738281 12.964844 23.125 12.964844 C 22.371094 12.964844 21.683594 12.828125 21.070312 12.554688 C 20.457031 12.277344 19.929688 11.90625 19.496094 11.4375 L 19.945312 10.683594 C 19.992188 10.625 20.042969 10.578125 20.101562 10.539062 C 20.164062 10.496094 20.234375 10.472656 20.3125 10.472656 C 20.382812 10.472656 20.460938 10.503906 20.546875 10.5625 C 20.636719 10.617188 20.738281 10.6875 20.851562 10.773438 C 20.964844 10.863281 21.09375 10.957031 21.242188 11.0625 C 21.386719 11.164062 21.550781 11.261719 21.734375 11.347656 C 21.921875 11.433594 22.136719 11.507812 22.371094 11.566406 C 22.609375 11.621094 22.875 11.648438 23.171875 11.648438 C 23.542969 11.648438 23.875 11.597656 24.167969 11.492188 C 24.457031 11.390625 24.703125 11.246094 24.902344 11.0625 C 25.109375 10.871094 25.265625 10.644531 25.371094 10.382812 C 25.480469 10.121094 25.535156 9.832031 25.535156 9.507812 C 25.535156 9.15625 25.453125 8.867188 25.292969 8.644531 C 25.136719 8.414062 24.925781 8.226562 24.667969 8.070312 C 24.410156 7.917969 24.113281 7.792969 23.78125 7.6875 C 23.445312 7.578125 23.105469 7.46875 22.761719 7.363281 C 22.414062 7.246094 22.078125 7.117188 21.742188 6.96875 C 21.40625 6.824219 21.113281 6.632812 20.851562 6.398438 C 20.59375 6.164062 20.382812 5.871094 20.222656 5.523438 C 20.066406 5.171875 19.988281 4.734375 19.988281 4.21875 C 19.988281 3.804688 20.066406 3.402344 20.222656 3.015625 C 20.382812 2.628906 20.617188 2.289062 20.917969 1.988281 C 21.222656 1.6875 21.597656 1.449219 22.042969 1.269531 C 22.488281 1.089844 23 1 23.578125 1 C 24.222656 1 24.8125 1.101562 25.339844 1.308594 C 25.875 1.515625 26.34375 1.816406 26.746094 2.207031 Z M 36.691406 11.542969 L 36.683594 12.832031 L 29.542969 12.832031 L 29.542969 1.128906 L 36.683594 1.128906 L 36.683594 2.421875 L 31.113281 2.421875 L 31.113281 6.308594 L 35.621094 6.308594 L 35.621094 7.550781 L 31.113281 7.550781 L 31.113281 11.542969 Z M 45.351562 8.488281 L 43.53125 3.726562 C 43.476562 3.585938 43.421875 3.421875 43.363281 3.238281 C 43.300781 3.046875 43.246094 2.84375 43.191406 2.632812 C 43.078125 3.074219 42.964844 3.441406 42.84375 3.734375 L 41.027344 8.488281 Z M 48.617188 12.832031 L 47.402344 12.832031 C 47.265625 12.832031 47.152344 12.796875 47.066406 12.726562 C 46.976562 12.65625 46.914062 12.566406 46.871094 12.457031 L 45.789062 9.632812 L 40.589844 9.632812 L 39.503906 12.457031 C 39.472656 12.554688 39.410156 12.644531 39.320312 12.71875 C 39.226562 12.796875 39.113281 12.832031 38.980469 12.832031 L 37.765625 12.832031 L 42.398438 1.128906 L 43.984375 1.128906 Z M 53.675781 6.796875 C 54.125 6.796875 54.523438 6.742188 54.871094 6.636719 C 55.21875 6.519531 55.511719 6.363281 55.742188 6.160156 C 55.980469 5.953125 56.160156 5.710938 56.277344 5.425781 C 56.394531 5.144531 56.453125 4.828125 56.453125 4.488281 C 56.453125 3.789062 56.230469 3.265625 55.777344 2.910156 C 55.324219 2.558594 54.644531 2.378906 53.738281 2.378906 L 52.023438 2.378906 L 52.023438 6.796875 Z M 59.027344 12.832031 L 57.636719 12.832031 C 57.347656 12.832031 57.140625 12.722656 57.003906 12.5 L 53.996094 8.316406 C 53.90625 8.1875 53.804688 8.09375 53.699219 8.039062 C 53.59375 7.980469 53.433594 7.949219 53.214844 7.949219 L 52.023438 7.949219 L 52.023438 12.832031 L 50.464844 12.832031 L 50.464844 1.128906 L 53.738281 1.128906 C 54.472656 1.128906 55.105469 1.207031 55.636719 1.359375 C 56.171875 1.507812 56.609375 1.722656 56.957031 2.003906 C 57.304688 2.289062 57.566406 2.628906 57.730469 3.035156 C 57.898438 3.429688 57.984375 3.878906 57.984375 4.371094 C 57.984375 4.785156 57.917969 5.171875 57.789062 5.53125 C 57.660156 5.890625 57.472656 6.214844 57.222656 6.503906 C 56.980469 6.789062 56.679688 7.03125 56.324219 7.230469 C 55.976562 7.433594 55.578125 7.585938 55.128906 7.6875 C 55.328125 7.800781 55.5 7.96875 55.644531 8.1875 Z M 68.949219 10.414062 C 69.035156 10.414062 69.109375 10.453125 69.171875 10.523438 L 69.796875 11.199219 C 69.320312 11.753906 68.746094 12.1875 68.066406 12.5 C 67.390625 12.808594 66.574219 12.964844 65.617188 12.964844 C 64.785156 12.964844 64.03125 12.820312 63.351562 12.53125 C 62.671875 12.238281 62.09375 11.828125 61.613281 11.304688 C 61.136719 10.777344 60.761719 10.148438 60.5 9.410156 C 60.234375 8.675781 60.101562 7.867188 60.101562 6.984375 C 60.101562 6.105469 60.242188 5.296875 60.515625 4.558594 C 60.789062 3.824219 61.175781 3.195312 61.671875 2.664062 C 62.171875 2.136719 62.769531 1.730469 63.464844 1.441406 C 64.160156 1.148438 64.929688 1 65.769531 1 C 66.59375 1 67.324219 1.132812 67.953125 1.398438 C 68.582031 1.667969 69.140625 2.027344 69.617188 2.484375 L 69.101562 3.214844 C 69.070312 3.265625 69.027344 3.3125 68.972656 3.351562 C 68.921875 3.382812 68.855469 3.402344 68.769531 3.402344 C 68.671875 3.402344 68.554688 3.347656 68.414062 3.246094 C 68.273438 3.136719 68.089844 3.015625 67.863281 2.886719 C 67.636719 2.753906 67.355469 2.636719 67.015625 2.535156 C 66.675781 2.425781 66.257812 2.371094 65.761719 2.371094 C 65.164062 2.371094 64.617188 2.476562 64.121094 2.691406 C 63.625 2.898438 63.195312 3.199219 62.835938 3.597656 C 62.480469 3.996094 62.203125 4.480469 62.003906 5.050781 C 61.804688 5.621094 61.703125 6.265625 61.703125 6.984375 C 61.703125 7.714844 61.804688 8.367188 62.011719 8.9375 C 62.222656 9.507812 62.503906 9.992188 62.859375 10.390625 C 63.222656 10.785156 63.644531 11.082031 64.128906 11.289062 C 64.621094 11.496094 65.148438 11.601562 65.714844 11.601562 C 66.058594 11.601562 66.367188 11.582031 66.644531 11.542969 C 66.921875 11.5 67.179688 11.433594 67.410156 11.347656 C 67.648438 11.261719 67.867188 11.152344 68.066406 11.019531 C 68.269531 10.882812 68.472656 10.722656 68.671875 10.539062 C 68.765625 10.457031 68.855469 10.414062 68.949219 10.414062 Z M 81.324219 1.128906 L 81.324219 12.832031 L 79.753906 12.832031 L 79.753906 7.507812 L 73.507812 7.507812 L 73.507812 12.832031 L 71.9375 12.832031 L 71.9375 1.128906 L 73.507812 1.128906 L 73.507812 6.347656 L 79.753906 6.347656 L 79.753906 1.128906 Z M 81.324219 1.128906 "/>
</g>
</svg>
