<?xml version="1.0" encoding="UTF-8"?>
<svg xmlns="http://www.w3.org/2000/svg" xmlns:xlink="http://www.w3.org/1999/xlink" width="px" height="14px" viewBox="0 0 94 14" version="1.1">
<g id="surface1">
<path style=" stroke:none;fill-rule:nonzero;fill:rgb(13.72549%,13.72549%,13.72549%);fill-opacity:1;" d="M 3.550781 6.796875 C 4.007812 6.796875 4.40625 6.742188 4.753906 6.636719 C 5.105469 6.519531 5.398438 6.363281 5.628906 6.160156 C 5.867188 5.953125 6.046875 5.710938 6.167969 5.425781 C 6.285156 5.144531 6.34375 4.828125 6.34375 4.488281 C 6.34375 3.789062 6.117188 3.265625 5.664062 2.910156 C 5.207031 2.558594 4.527344 2.378906 3.617188 2.378906 L 1.894531 2.378906 L 1.894531 6.796875 Z M 8.929688 12.832031 L 7.53125 12.832031 C 7.246094 12.832031 7.035156 12.722656 6.898438 12.5 L 3.875 8.316406 C 3.785156 8.1875 3.683594 8.09375 3.574219 8.039062 C 3.472656 7.980469 3.308594 7.949219 3.089844 7.949219 L 1.894531 7.949219 L 1.894531 12.832031 L 0.324219 12.832031 L 0.324219 1.128906 L 3.617188 1.128906 C 4.351562 1.128906 4.988281 1.207031 5.523438 1.359375 C 6.0625 1.507812 6.503906 1.722656 6.847656 2.003906 C 7.203125 2.289062 7.460938 2.628906 7.628906 3.035156 C 7.796875 3.429688 7.882812 3.878906 7.882812 4.371094 C 7.882812 4.785156 7.816406 5.171875 7.6875 5.53125 C 7.554688 5.890625 7.367188 6.214844 7.117188 6.503906 C 6.875 6.789062 6.574219 7.03125 6.214844 7.230469 C 5.863281 7.433594 5.460938 7.585938 5.011719 7.6875 C 5.214844 7.800781 5.386719 7.96875 5.535156 8.1875 Z M 18.019531 11.542969 L 18.011719 12.832031 L 10.835938 12.832031 L 10.835938 1.128906 L 18.011719 1.128906 L 18.011719 2.421875 L 12.414062 2.421875 L 12.414062 6.308594 L 16.945312 6.308594 L 16.945312 7.550781 L 12.414062 7.550781 L 12.414062 11.542969 Z M 26.492188 2.960938 C 26.445312 3.042969 26.390625 3.105469 26.332031 3.148438 C 26.277344 3.1875 26.210938 3.203125 26.128906 3.203125 C 26.035156 3.203125 25.925781 3.160156 25.804688 3.066406 C 25.679688 2.972656 25.519531 2.871094 25.332031 2.765625 C 25.148438 2.648438 24.921875 2.546875 24.65625 2.453125 C 24.398438 2.359375 24.082031 2.316406 23.707031 2.316406 C 23.355469 2.316406 23.042969 2.363281 22.773438 2.460938 C 22.507812 2.554688 22.28125 2.683594 22.097656 2.84375 C 21.917969 3.007812 21.785156 3.203125 21.691406 3.425781 C 21.601562 3.644531 21.554688 3.878906 21.554688 4.136719 C 21.554688 4.460938 21.632812 4.734375 21.789062 4.953125 C 21.953125 5.164062 22.164062 5.347656 22.421875 5.5 C 22.6875 5.652344 22.988281 5.785156 23.316406 5.898438 C 23.652344 6.007812 23.992188 6.125 24.339844 6.242188 C 24.691406 6.363281 25.035156 6.5 25.363281 6.652344 C 25.699219 6.796875 25.996094 6.984375 26.257812 7.214844 C 26.523438 7.441406 26.734375 7.722656 26.890625 8.054688 C 27.054688 8.386719 27.136719 8.796875 27.136719 9.28125 C 27.136719 9.792969 27.046875 10.273438 26.875 10.726562 C 26.703125 11.171875 26.449219 11.5625 26.113281 11.894531 C 25.78125 12.226562 25.371094 12.488281 24.886719 12.679688 C 24.402344 12.867188 23.851562 12.964844 23.234375 12.964844 C 22.476562 12.964844 21.789062 12.828125 21.171875 12.554688 C 20.554688 12.277344 20.027344 11.90625 19.589844 11.4375 L 20.042969 10.683594 C 20.085938 10.625 20.136719 10.578125 20.199219 10.539062 C 20.261719 10.496094 20.332031 10.472656 20.410156 10.472656 C 20.480469 10.472656 20.558594 10.503906 20.644531 10.5625 C 20.738281 10.617188 20.839844 10.6875 20.953125 10.773438 C 21.066406 10.863281 21.195312 10.957031 21.34375 11.0625 C 21.488281 11.164062 21.65625 11.261719 21.839844 11.347656 C 22.027344 11.433594 22.242188 11.507812 22.480469 11.566406 C 22.71875 11.621094 22.988281 11.648438 23.285156 11.648438 C 23.660156 11.648438 23.992188 11.597656 24.285156 11.492188 C 24.578125 11.390625 24.824219 11.246094 25.023438 11.0625 C 25.230469 10.871094 25.386719 10.644531 25.496094 10.382812 C 25.601562 10.121094 25.65625 9.832031 25.65625 9.507812 C 25.65625 9.15625 25.574219 8.867188 25.414062 8.644531 C 25.257812 8.414062 25.046875 8.226562 24.789062 8.070312 C 24.527344 7.917969 24.230469 7.792969 23.894531 7.6875 C 23.558594 7.578125 23.21875 7.46875 22.871094 7.363281 C 22.523438 7.246094 22.183594 7.117188 21.847656 6.96875 C 21.511719 6.824219 21.214844 6.632812 20.953125 6.398438 C 20.691406 6.164062 20.480469 5.871094 20.320312 5.523438 C 20.164062 5.171875 20.082031 4.734375 20.082031 4.21875 C 20.082031 3.804688 20.164062 3.402344 20.320312 3.015625 C 20.480469 2.628906 20.714844 2.289062 21.019531 1.988281 C 21.328125 1.6875 21.703125 1.449219 22.148438 1.269531 C 22.597656 1.089844 23.113281 1 23.691406 1 C 24.339844 1 24.929688 1.101562 25.460938 1.308594 C 25.996094 1.515625 26.46875 1.816406 26.875 2.207031 Z M 40.441406 6.984375 C 40.441406 7.863281 40.304688 8.667969 40.027344 9.402344 C 39.75 10.132812 39.359375 10.761719 38.855469 11.289062 C 38.351562 11.816406 37.746094 12.230469 37.039062 12.523438 C 36.332031 12.8125 35.554688 12.957031 34.699219 12.957031 C 33.84375 12.957031 33.0625 12.8125 32.359375 12.523438 C 31.652344 12.230469 31.050781 11.816406 30.546875 11.289062 C 30.042969 10.761719 29.652344 10.132812 29.375 9.402344 C 29.101562 8.667969 28.960938 7.863281 28.960938 6.984375 C 28.960938 6.109375 29.101562 5.304688 29.375 4.578125 C 29.652344 3.84375 30.042969 3.210938 30.546875 2.683594 C 31.050781 2.148438 31.652344 1.734375 32.359375 1.441406 C 33.0625 1.148438 33.84375 1 34.699219 1 C 35.554688 1 36.332031 1.148438 37.039062 1.441406 C 37.746094 1.734375 38.351562 2.148438 38.855469 2.683594 C 39.359375 3.210938 39.75 3.84375 40.027344 4.578125 C 40.304688 5.304688 40.441406 6.109375 40.441406 6.984375 Z M 38.824219 6.984375 C 38.824219 6.265625 38.726562 5.621094 38.53125 5.050781 C 38.335938 4.480469 38.0625 3.996094 37.703125 3.605469 C 37.347656 3.207031 36.914062 2.902344 36.402344 2.691406 C 35.894531 2.476562 35.324219 2.371094 34.699219 2.371094 C 34.074219 2.371094 33.507812 2.476562 33 2.691406 C 32.492188 2.902344 32.054688 3.207031 31.691406 3.605469 C 31.335938 3.996094 31.058594 4.480469 30.863281 5.050781 C 30.667969 5.621094 30.570312 6.265625 30.570312 6.984375 C 30.570312 7.703125 30.667969 8.351562 30.863281 8.921875 C 31.058594 9.488281 31.335938 9.96875 31.691406 10.367188 C 32.054688 10.757812 32.492188 11.0625 33 11.273438 C 33.507812 11.480469 34.074219 11.582031 34.699219 11.582031 C 35.324219 11.582031 35.894531 11.480469 36.402344 11.273438 C 36.914062 11.0625 37.347656 10.757812 37.703125 10.367188 C 38.0625 9.96875 38.335938 9.488281 38.53125 8.921875 C 38.726562 8.351562 38.824219 7.703125 38.824219 6.984375 Z M 47.511719 11.574219 C 47.996094 11.574219 48.425781 11.492188 48.804688 11.332031 C 49.183594 11.167969 49.503906 10.9375 49.761719 10.644531 C 50.027344 10.351562 50.230469 10 50.363281 9.589844 C 50.503906 9.183594 50.574219 8.734375 50.574219 8.242188 L 50.574219 1.128906 L 52.144531 1.128906 L 52.144531 8.242188 C 52.144531 8.917969 52.035156 9.542969 51.816406 10.121094 C 51.605469 10.699219 51.300781 11.199219 50.898438 11.625 C 50.503906 12.042969 50.019531 12.375 49.445312 12.613281 C 48.871094 12.851562 48.226562 12.972656 47.511719 12.972656 C 46.796875 12.972656 46.152344 12.851562 45.578125 12.613281 C 45.003906 12.375 44.519531 12.042969 44.117188 11.625 C 43.714844 11.199219 43.40625 10.699219 43.191406 10.121094 C 42.980469 9.542969 42.875 8.917969 42.875 8.242188 L 42.875 1.128906 L 44.441406 1.128906 L 44.441406 8.234375 C 44.441406 8.726562 44.511719 9.175781 44.644531 9.582031 C 44.785156 9.992188 44.988281 10.34375 45.246094 10.636719 C 45.511719 10.929688 45.835938 11.160156 46.214844 11.332031 C 46.597656 11.492188 47.03125 11.574219 47.511719 11.574219 Z M 58.519531 6.796875 C 58.972656 6.796875 59.375 6.742188 59.71875 6.636719 C 60.070312 6.519531 60.363281 6.363281 60.597656 6.160156 C 60.835938 5.953125 61.015625 5.710938 61.132812 5.425781 C 61.253906 5.144531 61.3125 4.828125 61.3125 4.488281 C 61.3125 3.789062 61.085938 3.265625 60.628906 2.910156 C 60.175781 2.558594 59.492188 2.378906 58.582031 2.378906 L 56.859375 2.378906 L 56.859375 6.796875 Z M 63.894531 12.832031 L 62.5 12.832031 C 62.210938 12.832031 62 12.722656 61.863281 12.5 L 58.84375 8.316406 C 58.75 8.1875 58.652344 8.09375 58.542969 8.039062 C 58.4375 7.980469 58.277344 7.949219 58.054688 7.949219 L 56.859375 7.949219 L 56.859375 12.832031 L 55.292969 12.832031 L 55.292969 1.128906 L 58.582031 1.128906 C 59.320312 1.128906 59.957031 1.207031 60.492188 1.359375 C 61.027344 1.507812 61.46875 1.722656 61.816406 2.003906 C 62.167969 2.289062 62.429688 2.628906 62.59375 3.035156 C 62.761719 3.429688 62.847656 3.878906 62.847656 4.371094 C 62.847656 4.785156 62.78125 5.171875 62.652344 5.53125 C 62.523438 5.890625 62.332031 6.214844 62.082031 6.503906 C 61.839844 6.789062 61.539062 7.03125 61.183594 7.230469 C 60.832031 7.433594 60.429688 7.585938 59.980469 7.6875 C 60.179688 7.800781 60.355469 7.96875 60.5 8.1875 Z M 73.863281 10.414062 C 73.953125 10.414062 74.027344 10.453125 74.09375 10.523438 L 74.71875 11.199219 C 74.242188 11.753906 73.660156 12.1875 72.980469 12.5 C 72.300781 12.808594 71.480469 12.964844 70.519531 12.964844 C 69.683594 12.964844 68.925781 12.820312 68.242188 12.53125 C 67.5625 12.238281 66.980469 11.828125 66.496094 11.304688 C 66.015625 10.777344 65.640625 10.148438 65.375 9.410156 C 65.109375 8.675781 64.976562 7.867188 64.976562 6.984375 C 64.976562 6.105469 65.117188 5.296875 65.390625 4.558594 C 65.667969 3.824219 66.054688 3.195312 66.554688 2.664062 C 67.058594 2.136719 67.660156 1.730469 68.355469 1.441406 C 69.054688 1.148438 69.828125 1 70.671875 1 C 71.5 1 72.230469 1.132812 72.867188 1.398438 C 73.5 1.667969 74.058594 2.027344 74.539062 2.484375 L 74.019531 3.214844 C 73.988281 3.265625 73.945312 3.3125 73.890625 3.351562 C 73.839844 3.382812 73.773438 3.402344 73.6875 3.402344 C 73.589844 3.402344 73.46875 3.347656 73.328125 3.246094 C 73.1875 3.136719 73.003906 3.015625 72.777344 2.886719 C 72.550781 2.753906 72.265625 2.636719 71.921875 2.535156 C 71.582031 2.425781 71.164062 2.371094 70.664062 2.371094 C 70.0625 2.371094 69.511719 2.476562 69.015625 2.691406 C 68.515625 2.898438 68.085938 3.199219 67.722656 3.597656 C 67.367188 3.996094 67.085938 4.480469 66.886719 5.050781 C 66.6875 5.621094 66.585938 6.265625 66.585938 6.984375 C 66.585938 7.714844 66.6875 8.367188 66.894531 8.9375 C 67.105469 9.507812 67.390625 9.992188 67.746094 10.390625 C 68.109375 10.785156 68.535156 11.082031 69.023438 11.289062 C 69.515625 11.496094 70.046875 11.601562 70.617188 11.601562 C 70.960938 11.601562 71.273438 11.582031 71.550781 11.542969 C 71.832031 11.5 72.089844 11.433594 72.320312 11.347656 C 72.558594 11.261719 72.777344 11.152344 72.980469 11.019531 C 73.183594 10.882812 73.386719 10.722656 73.589844 10.539062 C 73.679688 10.457031 73.773438 10.414062 73.863281 10.414062 Z M 84.050781 11.542969 L 84.042969 12.832031 L 76.871094 12.832031 L 76.871094 1.128906 L 84.042969 1.128906 L 84.042969 2.421875 L 78.445312 2.421875 L 78.445312 6.308594 L 82.980469 6.308594 L 82.980469 7.550781 L 78.445312 7.550781 L 78.445312 11.542969 Z M 92.527344 2.960938 C 92.476562 3.042969 92.421875 3.105469 92.363281 3.148438 C 92.308594 3.1875 92.242188 3.203125 92.160156 3.203125 C 92.070312 3.203125 91.960938 3.160156 91.835938 3.066406 C 91.710938 2.972656 91.554688 2.871094 91.363281 2.765625 C 91.179688 2.648438 90.957031 2.546875 90.691406 2.453125 C 90.429688 2.359375 90.113281 2.316406 89.738281 2.316406 C 89.386719 2.316406 89.078125 2.363281 88.804688 2.460938 C 88.539062 2.554688 88.316406 2.683594 88.132812 2.84375 C 87.953125 3.007812 87.816406 3.203125 87.726562 3.425781 C 87.632812 3.644531 87.585938 3.878906 87.585938 4.136719 C 87.585938 4.460938 87.664062 4.734375 87.824219 4.953125 C 87.984375 5.164062 88.195312 5.347656 88.457031 5.5 C 88.722656 5.652344 89.019531 5.785156 89.351562 5.898438 C 89.6875 6.007812 90.027344 6.125 90.375 6.242188 C 90.726562 6.363281 91.066406 6.5 91.398438 6.652344 C 91.734375 6.796875 92.03125 6.984375 92.289062 7.214844 C 92.554688 7.441406 92.765625 7.722656 92.925781 8.054688 C 93.085938 8.386719 93.167969 8.796875 93.167969 9.28125 C 93.167969 9.792969 93.082031 10.273438 92.90625 10.726562 C 92.734375 11.171875 92.480469 11.5625 92.144531 11.894531 C 91.8125 12.226562 91.40625 12.488281 90.917969 12.679688 C 90.4375 12.867188 89.886719 12.964844 89.269531 12.964844 C 88.511719 12.964844 87.824219 12.828125 87.207031 12.554688 C 86.589844 12.277344 86.058594 11.90625 85.621094 11.4375 L 86.078125 10.683594 C 86.121094 10.625 86.171875 10.578125 86.230469 10.539062 C 86.296875 10.496094 86.367188 10.472656 86.441406 10.472656 C 86.511719 10.472656 86.589844 10.503906 86.675781 10.5625 C 86.769531 10.617188 86.871094 10.6875 86.984375 10.773438 C 87.101562 10.863281 87.230469 10.957031 87.375 11.0625 C 87.523438 11.164062 87.6875 11.261719 87.871094 11.347656 C 88.0625 11.433594 88.273438 11.507812 88.511719 11.566406 C 88.75 11.621094 89.019531 11.648438 89.316406 11.648438 C 89.691406 11.648438 90.023438 11.597656 90.316406 11.492188 C 90.609375 11.390625 90.855469 11.246094 91.054688 11.0625 C 91.261719 10.871094 91.417969 10.644531 91.527344 10.382812 C 91.636719 10.121094 91.691406 9.832031 91.691406 9.507812 C 91.691406 9.15625 91.609375 8.867188 91.445312 8.644531 C 91.289062 8.414062 91.082031 8.226562 90.820312 8.070312 C 90.558594 7.917969 90.261719 7.792969 89.925781 7.6875 C 89.589844 7.578125 89.25 7.46875 88.902344 7.363281 C 88.558594 7.246094 88.214844 7.117188 87.878906 6.96875 C 87.542969 6.824219 87.246094 6.632812 86.984375 6.398438 C 86.726562 6.164062 86.515625 5.871094 86.351562 5.523438 C 86.195312 5.171875 86.117188 4.734375 86.117188 4.21875 C 86.117188 3.804688 86.195312 3.402344 86.351562 3.015625 C 86.515625 2.628906 86.746094 2.289062 87.050781 1.988281 C 87.359375 1.6875 87.734375 1.449219 88.179688 1.269531 C 88.628906 1.089844 89.144531 1 89.722656 1 C 90.375 1 90.964844 1.101562 91.496094 1.308594 C 92.03125 1.515625 92.5 1.816406 92.90625 2.207031 Z M 92.527344 2.960938 "/>
</g>
</svg>
