<?xml version="1.0" encoding="UTF-8"?>
<svg xmlns="http://www.w3.org/2000/svg" xmlns:xlink="http://www.w3.org/1999/xlink" width="px" height="19px" viewBox="0 0 131 19" version="1.1">
<g id="surface1">
<path style=" stroke:none;fill-rule:nonzero;fill:rgb(13.72549%,13.72549%,13.72549%);fill-opacity:1;" d="M 10.429688 11.519531 L 7.945312 5.058594 C 7.871094 4.867188 7.792969 4.644531 7.710938 4.394531 C 7.628906 4.136719 7.554688 3.863281 7.480469 3.574219 C 7.324219 4.171875 7.167969 4.671875 7.003906 5.070312 L 4.519531 11.519531 Z M 14.894531 17.417969 L 13.234375 17.417969 C 13.042969 17.417969 12.890625 17.367188 12.773438 17.273438 C 12.652344 17.175781 12.566406 17.054688 12.507812 16.90625 L 11.027344 13.070312 L 3.921875 13.070312 L 2.441406 16.90625 C 2.398438 17.039062 2.3125 17.15625 2.1875 17.261719 C 2.0625 17.363281 1.90625 17.417969 1.722656 17.417969 L 0.0664062 17.417969 L 6.398438 1.535156 L 8.5625 1.535156 Z M 28.121094 14.136719 C 28.238281 14.136719 28.34375 14.183594 28.429688 14.28125 L 29.28125 15.199219 C 28.632812 15.953125 27.847656 16.542969 26.917969 16.960938 C 25.996094 17.382812 24.882812 17.59375 23.570312 17.59375 C 22.4375 17.59375 21.40625 17.398438 20.476562 17.007812 C 19.546875 16.609375 18.757812 16.054688 18.101562 15.34375 C 17.445312 14.628906 16.9375 13.769531 16.578125 12.773438 C 16.214844 11.773438 16.035156 10.679688 16.035156 9.480469 C 16.035156 8.285156 16.222656 7.1875 16.597656 6.1875 C 16.972656 5.191406 17.5 4.335938 18.179688 3.617188 C 18.863281 2.902344 19.679688 2.347656 20.632812 1.957031 C 21.582031 1.554688 22.632812 1.355469 23.78125 1.355469 C 24.90625 1.355469 25.902344 1.539062 26.761719 1.898438 C 27.625 2.261719 28.382812 2.753906 29.039062 3.375 L 28.332031 4.359375 C 28.289062 4.433594 28.230469 4.496094 28.15625 4.550781 C 28.089844 4.59375 27.996094 4.617188 27.878906 4.617188 C 27.746094 4.617188 27.585938 4.546875 27.394531 4.40625 C 27.203125 4.257812 26.949219 4.09375 26.640625 3.917969 C 26.332031 3.738281 25.945312 3.582031 25.480469 3.441406 C 25.015625 3.292969 24.445312 3.21875 23.769531 3.21875 C 22.953125 3.21875 22.203125 3.363281 21.527344 3.652344 C 20.847656 3.933594 20.261719 4.34375 19.769531 4.882812 C 19.285156 5.421875 18.902344 6.078125 18.632812 6.855469 C 18.359375 7.628906 18.222656 8.503906 18.222656 9.480469 C 18.222656 10.472656 18.363281 11.355469 18.644531 12.128906 C 18.929688 12.90625 19.316406 13.5625 19.804688 14.101562 C 20.296875 14.632812 20.875 15.042969 21.539062 15.320312 C 22.207031 15.601562 22.929688 15.742188 23.703125 15.742188 C 24.175781 15.742188 24.597656 15.71875 24.972656 15.664062 C 25.355469 15.605469 25.707031 15.519531 26.023438 15.398438 C 26.347656 15.28125 26.644531 15.132812 26.917969 14.957031 C 27.199219 14.769531 27.472656 14.554688 27.746094 14.300781 C 27.871094 14.191406 27.996094 14.136719 28.121094 14.136719 Z M 40.617188 11.519531 L 38.132812 5.058594 C 38.058594 4.867188 37.980469 4.644531 37.898438 4.394531 C 37.816406 4.136719 37.742188 3.863281 37.667969 3.574219 C 37.511719 4.171875 37.355469 4.671875 37.191406 5.070312 L 34.707031 11.519531 Z M 45.082031 17.417969 L 43.421875 17.417969 C 43.230469 17.417969 43.078125 17.367188 42.960938 17.273438 C 42.839844 17.175781 42.753906 17.054688 42.695312 16.90625 L 41.214844 13.070312 L 34.109375 13.070312 L 32.628906 16.90625 C 32.585938 17.039062 32.5 17.15625 32.375 17.261719 C 32.25 17.363281 32.09375 17.417969 31.910156 17.417969 L 30.253906 17.417969 L 36.585938 1.535156 L 38.75 1.535156 Z M 61.328125 9.480469 C 61.328125 10.671875 61.140625 11.753906 60.761719 12.726562 C 60.386719 13.703125 59.859375 14.539062 59.171875 15.234375 C 58.488281 15.929688 57.664062 16.46875 56.699219 16.851562 C 55.738281 17.226562 54.679688 17.417969 53.515625 17.417969 L 47.605469 17.417969 L 47.605469 1.535156 L 53.515625 1.535156 C 54.679688 1.535156 55.738281 1.726562 56.699219 2.109375 C 57.664062 2.488281 58.488281 3.027344 59.171875 3.730469 C 59.859375 4.421875 60.386719 5.257812 60.761719 6.234375 C 61.140625 7.207031 61.328125 8.292969 61.328125 9.480469 Z M 59.128906 9.480469 C 59.128906 8.503906 58.996094 7.632812 58.730469 6.867188 C 58.464844 6.097656 58.089844 5.445312 57.605469 4.914062 C 57.117188 4.382812 56.527344 3.976562 55.835938 3.695312 C 55.144531 3.414062 54.371094 3.273438 53.515625 3.273438 L 49.75 3.273438 L 49.75 15.675781 L 53.515625 15.675781 C 54.371094 15.675781 55.144531 15.535156 55.835938 15.253906 C 56.527344 14.976562 57.117188 14.570312 57.605469 14.046875 C 58.089844 13.515625 58.464844 12.863281 58.730469 12.097656 C 58.996094 11.328125 59.128906 10.457031 59.128906 9.480469 Z M 74.625 15.664062 L 74.613281 17.417969 L 64.855469 17.417969 L 64.855469 1.535156 L 74.613281 1.535156 L 74.613281 3.285156 L 67 3.285156 L 67 8.5625 L 73.164062 8.5625 L 73.164062 10.246094 L 67 10.246094 L 67 15.664062 Z M 94.523438 1.535156 L 94.523438 17.417969 L 92.644531 17.417969 L 92.644531 5.746094 C 92.644531 5.589844 92.648438 5.425781 92.65625 5.246094 C 92.671875 5.070312 92.6875 4.890625 92.703125 4.703125 L 87.265625 14.632812 C 87.097656 14.96875 86.839844 15.132812 86.492188 15.132812 L 86.183594 15.132812 C 85.835938 15.132812 85.578125 14.96875 85.410156 14.632812 L 79.863281 4.660156 C 79.90625 5.050781 79.929688 5.414062 79.929688 5.746094 L 79.929688 17.417969 L 78.050781 17.417969 L 78.050781 1.535156 L 79.632812 1.535156 C 79.824219 1.535156 79.96875 1.550781 80.074219 1.589844 C 80.175781 1.625 80.277344 1.730469 80.371094 1.898438 L 85.839844 11.675781 C 85.929688 11.851562 86.011719 12.039062 86.09375 12.230469 C 86.183594 12.421875 86.265625 12.617188 86.335938 12.816406 C 86.410156 12.617188 86.488281 12.421875 86.570312 12.230469 C 86.652344 12.03125 86.738281 11.839844 86.835938 11.664062 L 92.203125 1.898438 C 92.292969 1.730469 92.386719 1.625 92.492188 1.589844 C 92.601562 1.550781 92.753906 1.535156 92.945312 1.535156 Z M 101.15625 17.417969 L 99.015625 17.417969 L 99.015625 1.535156 L 101.15625 1.535156 Z M 116.765625 14.136719 C 116.882812 14.136719 116.984375 14.183594 117.074219 14.28125 L 117.925781 15.199219 C 117.277344 15.953125 116.488281 16.542969 115.558594 16.960938 C 114.640625 17.382812 113.523438 17.59375 112.210938 17.59375 C 111.078125 17.59375 110.046875 17.398438 109.117188 17.007812 C 108.191406 16.609375 107.398438 16.054688 106.742188 15.34375 C 106.085938 14.628906 105.578125 13.769531 105.21875 12.773438 C 104.859375 11.773438 104.675781 10.679688 104.675781 9.480469 C 104.675781 8.285156 104.863281 7.1875 105.242188 6.1875 C 105.617188 5.191406 106.144531 4.335938 106.820312 3.617188 C 107.503906 2.902344 108.324219 2.347656 109.273438 1.957031 C 110.222656 1.554688 111.273438 1.355469 112.421875 1.355469 C 113.550781 1.355469 114.542969 1.539062 115.40625 1.898438 C 116.265625 2.261719 117.027344 2.753906 117.679688 3.375 L 116.972656 4.359375 C 116.929688 4.433594 116.871094 4.496094 116.796875 4.550781 C 116.730469 4.59375 116.640625 4.617188 116.519531 4.617188 C 116.386719 4.617188 116.226562 4.546875 116.035156 4.40625 C 115.84375 4.257812 115.59375 4.09375 115.285156 3.917969 C 114.972656 3.738281 114.585938 3.582031 114.125 3.441406 C 113.660156 3.292969 113.089844 3.21875 112.410156 3.21875 C 111.59375 3.21875 110.847656 3.363281 110.167969 3.652344 C 109.492188 3.933594 108.90625 4.34375 108.410156 4.882812 C 107.925781 5.421875 107.546875 6.078125 107.273438 6.855469 C 107 7.628906 106.863281 8.503906 106.863281 9.480469 C 106.863281 10.472656 107.003906 11.355469 107.285156 12.128906 C 107.570312 12.90625 107.957031 13.5625 108.445312 14.101562 C 108.9375 14.632812 109.515625 15.042969 110.179688 15.320312 C 110.847656 15.601562 111.570312 15.742188 112.34375 15.742188 C 112.816406 15.742188 113.238281 15.71875 113.617188 15.664062 C 114 15.605469 114.347656 15.519531 114.664062 15.398438 C 114.988281 15.28125 115.289062 15.132812 115.558594 14.957031 C 115.839844 14.769531 116.117188 14.554688 116.386719 14.300781 C 116.511719 14.191406 116.640625 14.136719 116.765625 14.136719 Z M 128.949219 4.015625 C 128.882812 4.128906 128.808594 4.210938 128.726562 4.273438 C 128.65625 4.324219 128.5625 4.347656 128.453125 4.347656 C 128.328125 4.347656 128.179688 4.285156 128.011719 4.160156 C 127.839844 4.035156 127.628906 3.898438 127.371094 3.75 C 127.121094 3.597656 126.8125 3.457031 126.453125 3.328125 C 126.097656 3.203125 125.667969 3.140625 125.160156 3.140625 C 124.679688 3.140625 124.257812 3.207031 123.890625 3.339844 C 123.527344 3.464844 123.222656 3.640625 122.972656 3.863281 C 122.730469 4.082031 122.546875 4.347656 122.421875 4.648438 C 122.292969 4.945312 122.230469 5.265625 122.230469 5.613281 C 122.230469 6.054688 122.339844 6.425781 122.550781 6.722656 C 122.773438 7.007812 123.0625 7.257812 123.414062 7.464844 C 123.773438 7.671875 124.179688 7.851562 124.628906 8.007812 C 125.085938 8.15625 125.550781 8.308594 126.023438 8.472656 C 126.5 8.636719 126.964844 8.820312 127.414062 9.027344 C 127.871094 9.226562 128.277344 9.480469 128.628906 9.792969 C 128.988281 10.101562 129.277344 10.480469 129.492188 10.933594 C 129.710938 11.382812 129.820312 11.9375 129.820312 12.59375 C 129.820312 13.289062 129.703125 13.945312 129.46875 14.558594 C 129.234375 15.164062 128.886719 15.691406 128.429688 16.140625 C 127.980469 16.59375 127.425781 16.949219 126.761719 17.207031 C 126.105469 17.464844 125.359375 17.59375 124.519531 17.59375 C 123.488281 17.59375 122.550781 17.410156 121.710938 17.039062 C 120.875 16.664062 120.15625 16.15625 119.558594 15.519531 L 120.175781 14.5 C 120.234375 14.421875 120.304688 14.355469 120.386719 14.300781 C 120.476562 14.242188 120.570312 14.214844 120.675781 14.214844 C 120.769531 14.214844 120.878906 14.253906 120.996094 14.335938 C 121.121094 14.410156 121.261719 14.503906 121.414062 14.625 C 121.570312 14.742188 121.746094 14.871094 121.945312 15.011719 C 122.144531 15.152344 122.367188 15.28125 122.617188 15.398438 C 122.875 15.519531 123.167969 15.617188 123.492188 15.699219 C 123.816406 15.773438 124.179688 15.808594 124.585938 15.808594 C 125.09375 15.808594 125.546875 15.738281 125.945312 15.597656 C 126.34375 15.457031 126.675781 15.261719 126.949219 15.011719 C 127.230469 14.753906 127.441406 14.445312 127.589844 14.089844 C 127.738281 13.738281 127.8125 13.339844 127.8125 12.90625 C 127.8125 12.425781 127.699219 12.035156 127.480469 11.730469 C 127.265625 11.421875 126.984375 11.160156 126.628906 10.957031 C 126.277344 10.75 125.871094 10.574219 125.414062 10.433594 C 124.957031 10.285156 124.492188 10.136719 124.023438 9.992188 C 123.550781 9.835938 123.085938 9.660156 122.628906 9.457031 C 122.171875 9.257812 121.769531 9 121.414062 8.683594 C 121.0625 8.367188 120.773438 7.96875 120.554688 7.496094 C 120.339844 7.015625 120.234375 6.425781 120.234375 5.722656 C 120.234375 5.164062 120.339844 4.617188 120.554688 4.09375 C 120.773438 3.570312 121.089844 3.105469 121.503906 2.699219 C 121.921875 2.292969 122.433594 1.964844 123.039062 1.722656 C 123.648438 1.480469 124.351562 1.355469 125.136719 1.355469 C 126.023438 1.355469 126.824219 1.496094 127.546875 1.777344 C 128.277344 2.058594 128.917969 2.464844 129.46875 2.996094 Z M 128.949219 4.015625 "/>
</g>
</svg>
