<?xml version="1.0" encoding="UTF-8"?>
<svg xmlns="http://www.w3.org/2000/svg" xmlns:xlink="http://www.w3.org/1999/xlink" width="px" height="19px" viewBox="0 0 139 19" version="1.1">
<g id="surface1">
<path style=" stroke:none;fill-rule:nonzero;fill:rgb(13.72549%,13.72549%,13.72549%);fill-opacity:1;" d="M 10.4375 11.519531 L 7.949219 5.058594 C 7.875 4.867188 7.796875 4.644531 7.71875 4.394531 C 7.636719 4.136719 7.558594 3.863281 7.484375 3.574219 C 7.332031 4.171875 7.171875 4.671875 7.011719 5.070312 L 4.523438 11.519531 Z M 14.90625 17.417969 L 13.246094 17.417969 C 13.054688 17.417969 12.898438 17.367188 12.78125 17.273438 C 12.664062 17.175781 12.574219 17.054688 12.515625 16.90625 L 11.035156 13.070312 L 3.925781 13.070312 L 2.445312 16.90625 C 2.398438 17.039062 2.316406 17.15625 2.1875 17.261719 C 2.0625 17.363281 1.910156 17.417969 1.726562 17.417969 L 0.0664062 17.417969 L 6.402344 1.535156 L 8.570312 1.535156 Z M 31.164062 9.480469 C 31.164062 10.671875 30.976562 11.753906 30.601562 12.726562 C 30.222656 13.703125 29.691406 14.539062 29.007812 15.234375 C 28.320312 15.929688 27.496094 16.46875 26.53125 16.851562 C 25.574219 17.226562 24.511719 17.417969 23.347656 17.417969 L 17.429688 17.417969 L 17.429688 1.535156 L 23.347656 1.535156 C 24.511719 1.535156 25.574219 1.726562 26.53125 2.109375 C 27.496094 2.488281 28.320312 3.027344 29.007812 3.730469 C 29.691406 4.421875 30.222656 5.257812 30.601562 6.234375 C 30.976562 7.207031 31.164062 8.292969 31.164062 9.480469 Z M 28.964844 9.480469 C 28.964844 8.503906 28.832031 7.632812 28.566406 6.867188 C 28.300781 6.097656 27.925781 5.445312 27.4375 4.914062 C 26.949219 4.382812 26.363281 3.976562 25.667969 3.695312 C 24.976562 3.414062 24.203125 3.273438 23.347656 3.273438 L 19.578125 3.273438 L 19.578125 15.675781 L 23.347656 15.675781 C 24.203125 15.675781 24.976562 15.535156 25.667969 15.253906 C 26.363281 14.976562 26.949219 14.570312 27.4375 14.046875 C 27.925781 13.515625 28.300781 12.863281 28.566406 12.097656 C 28.832031 11.328125 28.964844 10.457031 28.964844 9.480469 Z M 51.183594 1.535156 L 51.183594 17.417969 L 49.300781 17.417969 L 49.300781 5.746094 C 49.300781 5.589844 49.304688 5.425781 49.3125 5.246094 C 49.328125 5.070312 49.34375 4.890625 49.359375 4.703125 L 43.917969 14.632812 C 43.75 14.96875 43.488281 15.132812 43.144531 15.132812 L 42.835938 15.132812 C 42.488281 15.132812 42.230469 14.96875 42.058594 14.632812 L 36.507812 4.660156 C 36.554688 5.050781 36.574219 5.414062 36.574219 5.746094 L 36.574219 17.417969 L 34.695312 17.417969 L 34.695312 1.535156 L 36.277344 1.535156 C 36.46875 1.535156 36.617188 1.550781 36.71875 1.589844 C 36.824219 1.625 36.921875 1.730469 37.019531 1.898438 L 42.492188 11.675781 C 42.578125 11.851562 42.664062 12.039062 42.746094 12.230469 C 42.835938 12.421875 42.914062 12.617188 42.988281 12.816406 C 43.0625 12.617188 43.140625 12.421875 43.222656 12.230469 C 43.300781 12.03125 43.390625 11.839844 43.488281 11.664062 L 48.859375 1.898438 C 48.949219 1.730469 49.042969 1.625 49.148438 1.589844 C 49.257812 1.550781 49.410156 1.535156 49.601562 1.535156 Z M 57.820312 17.417969 L 55.675781 17.417969 L 55.675781 1.535156 L 57.820312 1.535156 Z M 70.421875 4.015625 C 70.355469 4.128906 70.28125 4.210938 70.199219 4.273438 C 70.125 4.324219 70.035156 4.347656 69.921875 4.347656 C 69.796875 4.347656 69.648438 4.285156 69.480469 4.160156 C 69.3125 4.035156 69.097656 3.898438 68.839844 3.75 C 68.589844 3.597656 68.28125 3.457031 67.921875 3.328125 C 67.566406 3.203125 67.136719 3.140625 66.628906 3.140625 C 66.148438 3.140625 65.726562 3.207031 65.355469 3.339844 C 64.996094 3.464844 64.6875 3.640625 64.4375 3.863281 C 64.195312 4.082031 64.011719 4.347656 63.886719 4.648438 C 63.761719 4.945312 63.699219 5.265625 63.699219 5.613281 C 63.699219 6.054688 63.804688 6.425781 64.019531 6.722656 C 64.238281 7.007812 64.527344 7.257812 64.882812 7.464844 C 65.242188 7.671875 65.648438 7.851562 66.097656 8.007812 C 66.554688 8.15625 67.019531 8.308594 67.492188 8.472656 C 67.96875 8.636719 68.433594 8.820312 68.882812 9.027344 C 69.339844 9.226562 69.746094 9.480469 70.101562 9.792969 C 70.460938 10.101562 70.75 10.480469 70.960938 10.933594 C 71.183594 11.382812 71.292969 11.9375 71.292969 12.59375 C 71.292969 13.289062 71.175781 13.945312 70.941406 14.558594 C 70.703125 15.164062 70.359375 15.691406 69.902344 16.140625 C 69.453125 16.59375 68.894531 16.949219 68.230469 17.207031 C 67.574219 17.464844 66.828125 17.59375 65.988281 17.59375 C 64.953125 17.59375 64.019531 17.410156 63.179688 17.039062 C 62.339844 16.664062 61.621094 16.15625 61.023438 15.519531 L 61.640625 14.5 C 61.699219 14.421875 61.769531 14.355469 61.851562 14.300781 C 61.941406 14.242188 62.035156 14.214844 62.140625 14.214844 C 62.234375 14.214844 62.339844 14.253906 62.460938 14.335938 C 62.585938 14.410156 62.726562 14.503906 62.878906 14.625 C 63.035156 14.742188 63.210938 14.871094 63.410156 15.011719 C 63.609375 15.152344 63.835938 15.28125 64.085938 15.398438 C 64.34375 15.519531 64.632812 15.617188 64.957031 15.699219 C 65.28125 15.773438 65.648438 15.808594 66.054688 15.808594 C 66.5625 15.808594 67.015625 15.738281 67.414062 15.597656 C 67.8125 15.457031 68.148438 15.261719 68.417969 15.011719 C 68.699219 14.753906 68.914062 14.445312 69.0625 14.089844 C 69.207031 13.738281 69.28125 13.339844 69.28125 12.90625 C 69.28125 12.425781 69.171875 12.035156 68.949219 11.730469 C 68.734375 11.421875 68.453125 11.160156 68.097656 10.957031 C 67.746094 10.75 67.339844 10.574219 66.882812 10.433594 C 66.425781 10.285156 65.960938 10.136719 65.488281 9.992188 C 65.015625 9.835938 64.554688 9.660156 64.097656 9.457031 C 63.640625 9.257812 63.234375 9 62.878906 8.683594 C 62.527344 8.367188 62.238281 7.96875 62.015625 7.496094 C 61.804688 7.015625 61.695312 6.425781 61.695312 5.722656 C 61.695312 5.164062 61.804688 4.617188 62.015625 4.09375 C 62.238281 3.570312 62.554688 3.105469 62.96875 2.699219 C 63.386719 2.292969 63.902344 1.964844 64.503906 1.722656 C 65.117188 1.480469 65.816406 1.355469 66.605469 1.355469 C 67.492188 1.355469 68.292969 1.496094 69.015625 1.777344 C 69.746094 2.058594 70.386719 2.464844 70.941406 2.996094 Z M 82.871094 4.015625 C 82.804688 4.128906 82.730469 4.210938 82.648438 4.273438 C 82.574219 4.324219 82.484375 4.347656 82.371094 4.347656 C 82.246094 4.347656 82.097656 4.285156 81.929688 4.160156 C 81.761719 4.035156 81.546875 3.898438 81.289062 3.75 C 81.039062 3.597656 80.730469 3.457031 80.371094 3.328125 C 80.015625 3.203125 79.585938 3.140625 79.078125 3.140625 C 78.597656 3.140625 78.175781 3.207031 77.804688 3.339844 C 77.445312 3.464844 77.140625 3.640625 76.886719 3.863281 C 76.644531 4.082031 76.460938 4.347656 76.335938 4.648438 C 76.210938 4.945312 76.148438 5.265625 76.148438 5.613281 C 76.148438 6.054688 76.253906 6.425781 76.46875 6.722656 C 76.6875 7.007812 76.976562 7.257812 77.332031 7.464844 C 77.691406 7.671875 78.097656 7.851562 78.546875 8.007812 C 79.003906 8.15625 79.46875 8.308594 79.941406 8.472656 C 80.417969 8.636719 80.882812 8.820312 81.332031 9.027344 C 81.789062 9.226562 82.195312 9.480469 82.550781 9.792969 C 82.910156 10.101562 83.199219 10.480469 83.410156 10.933594 C 83.632812 11.382812 83.742188 11.9375 83.742188 12.59375 C 83.742188 13.289062 83.625 13.945312 83.390625 14.558594 C 83.152344 15.164062 82.808594 15.691406 82.351562 16.140625 C 81.902344 16.59375 81.34375 16.949219 80.679688 17.207031 C 80.023438 17.464844 79.277344 17.59375 78.4375 17.59375 C 77.402344 17.59375 76.46875 17.410156 75.628906 17.039062 C 74.789062 16.664062 74.070312 16.15625 73.472656 15.519531 L 74.089844 14.5 C 74.148438 14.421875 74.21875 14.355469 74.300781 14.300781 C 74.390625 14.242188 74.484375 14.214844 74.589844 14.214844 C 74.683594 14.214844 74.789062 14.253906 74.910156 14.335938 C 75.035156 14.410156 75.175781 14.503906 75.328125 14.625 C 75.484375 14.742188 75.660156 14.871094 75.859375 15.011719 C 76.058594 15.152344 76.285156 15.28125 76.535156 15.398438 C 76.792969 15.519531 77.082031 15.617188 77.40625 15.699219 C 77.730469 15.773438 78.097656 15.808594 78.503906 15.808594 C 79.011719 15.808594 79.464844 15.738281 79.863281 15.597656 C 80.261719 15.457031 80.597656 15.261719 80.867188 15.011719 C 81.148438 14.753906 81.363281 14.445312 81.507812 14.089844 C 81.65625 13.738281 81.730469 13.339844 81.730469 12.90625 C 81.730469 12.425781 81.621094 12.035156 81.398438 11.730469 C 81.183594 11.421875 80.902344 11.160156 80.546875 10.957031 C 80.195312 10.75 79.789062 10.574219 79.332031 10.433594 C 78.875 10.285156 78.410156 10.136719 77.9375 9.992188 C 77.464844 9.835938 77.003906 9.660156 76.546875 9.457031 C 76.089844 9.257812 75.683594 9 75.328125 8.683594 C 74.976562 8.367188 74.6875 7.96875 74.464844 7.496094 C 74.253906 7.015625 74.144531 6.425781 74.144531 5.722656 C 74.144531 5.164062 74.253906 4.617188 74.464844 4.09375 C 74.6875 3.570312 75.003906 3.105469 75.417969 2.699219 C 75.835938 2.292969 76.351562 1.964844 76.953125 1.722656 C 77.566406 1.480469 78.265625 1.355469 79.054688 1.355469 C 79.941406 1.355469 80.742188 1.496094 81.464844 1.777344 C 82.195312 2.058594 82.835938 2.464844 83.390625 2.996094 Z M 89.359375 17.417969 L 87.214844 17.417969 L 87.214844 1.535156 L 89.359375 1.535156 Z M 108.492188 9.480469 C 108.492188 10.671875 108.304688 11.765625 107.929688 12.761719 C 107.554688 13.75 107.023438 14.605469 106.335938 15.320312 C 105.652344 16.039062 104.828125 16.597656 103.859375 16.996094 C 102.902344 17.386719 101.839844 17.582031 100.675781 17.582031 C 99.511719 17.582031 98.449219 17.386719 97.492188 16.996094 C 96.535156 16.597656 95.710938 16.039062 95.027344 15.320312 C 94.339844 14.605469 93.808594 13.75 93.433594 12.761719 C 93.058594 11.765625 92.871094 10.671875 92.871094 9.480469 C 92.871094 8.292969 93.058594 7.203125 93.433594 6.210938 C 93.808594 5.214844 94.339844 4.355469 95.027344 3.640625 C 95.710938 2.914062 96.535156 2.355469 97.492188 1.957031 C 98.449219 1.554688 99.511719 1.355469 100.675781 1.355469 C 101.839844 1.355469 102.902344 1.554688 103.859375 1.957031 C 104.828125 2.355469 105.652344 2.914062 106.335938 3.640625 C 107.023438 4.355469 107.554688 5.214844 107.929688 6.210938 C 108.304688 7.203125 108.492188 8.292969 108.492188 9.480469 Z M 106.292969 9.480469 C 106.292969 8.503906 106.160156 7.628906 105.894531 6.855469 C 105.628906 6.078125 105.253906 5.425781 104.769531 4.890625 C 104.28125 4.351562 103.691406 3.9375 103 3.652344 C 102.304688 3.363281 101.53125 3.21875 100.675781 3.21875 C 99.828125 3.21875 99.058594 3.363281 98.367188 3.652344 C 97.671875 3.9375 97.078125 4.351562 96.585938 4.890625 C 96.097656 5.425781 95.722656 6.078125 95.457031 6.855469 C 95.191406 7.628906 95.058594 8.503906 95.058594 9.480469 C 95.058594 10.457031 95.191406 11.332031 95.457031 12.109375 C 95.722656 12.875 96.097656 13.53125 96.585938 14.070312 C 97.078125 14.601562 97.671875 15.011719 98.367188 15.300781 C 99.058594 15.582031 99.828125 15.722656 100.675781 15.722656 C 101.53125 15.722656 102.304688 15.582031 103 15.300781 C 103.691406 15.011719 104.28125 14.601562 104.769531 14.070312 C 105.253906 13.53125 105.628906 12.875 105.894531 12.109375 C 106.160156 11.332031 106.292969 10.457031 106.292969 9.480469 Z M 124.84375 1.535156 L 124.84375 17.417969 L 123.769531 17.417969 C 123.601562 17.417969 123.457031 17.386719 123.339844 17.328125 C 123.226562 17.269531 123.117188 17.167969 123.007812 17.027344 L 113.839844 5.058594 C 113.855469 5.242188 113.867188 5.425781 113.875 5.601562 C 113.882812 5.777344 113.882812 5.945312 113.882812 6.101562 L 113.882812 17.417969 L 112.003906 17.417969 L 112.003906 1.535156 L 113.109375 1.535156 C 113.207031 1.535156 113.289062 1.542969 113.355469 1.554688 C 113.421875 1.5625 113.480469 1.582031 113.53125 1.613281 C 113.582031 1.632812 113.632812 1.671875 113.6875 1.722656 C 113.738281 1.765625 113.792969 1.824219 113.851562 1.898438 L 123.019531 13.859375 C 123.003906 13.667969 122.988281 13.480469 122.972656 13.304688 C 122.964844 13.121094 122.960938 12.945312 122.960938 12.785156 L 122.960938 1.535156 Z M 137.441406 4.015625 C 137.375 4.128906 137.300781 4.210938 137.21875 4.273438 C 137.144531 4.324219 137.050781 4.347656 136.941406 4.347656 C 136.816406 4.347656 136.667969 4.285156 136.5 4.160156 C 136.332031 4.035156 136.117188 3.898438 135.859375 3.75 C 135.609375 3.597656 135.300781 3.457031 134.941406 3.328125 C 134.585938 3.203125 134.15625 3.140625 133.648438 3.140625 C 133.167969 3.140625 132.742188 3.207031 132.375 3.339844 C 132.015625 3.464844 131.707031 3.640625 131.457031 3.863281 C 131.214844 4.082031 131.03125 4.347656 130.90625 4.648438 C 130.78125 4.945312 130.71875 5.265625 130.71875 5.613281 C 130.71875 6.054688 130.824219 6.425781 131.039062 6.722656 C 131.257812 7.007812 131.546875 7.257812 131.898438 7.464844 C 132.261719 7.671875 132.667969 7.851562 133.117188 8.007812 C 133.574219 8.15625 134.039062 8.308594 134.507812 8.472656 C 134.988281 8.636719 135.453125 8.820312 135.902344 9.027344 C 136.359375 9.226562 136.765625 9.480469 137.117188 9.792969 C 137.480469 10.101562 137.765625 10.480469 137.980469 10.933594 C 138.203125 11.382812 138.3125 11.9375 138.3125 12.59375 C 138.3125 13.289062 138.195312 13.945312 137.960938 14.558594 C 137.722656 15.164062 137.375 15.691406 136.917969 16.140625 C 136.46875 16.59375 135.914062 16.949219 135.25 17.207031 C 134.59375 17.464844 133.847656 17.59375 133.003906 17.59375 C 131.972656 17.59375 131.039062 17.410156 130.199219 17.039062 C 129.355469 16.664062 128.636719 16.15625 128.042969 15.519531 L 128.660156 14.5 C 128.71875 14.421875 128.789062 14.355469 128.871094 14.300781 C 128.960938 14.242188 129.054688 14.214844 129.15625 14.214844 C 129.253906 14.214844 129.359375 14.253906 129.480469 14.335938 C 129.605469 14.410156 129.742188 14.503906 129.898438 14.625 C 130.054688 14.742188 130.230469 14.871094 130.429688 15.011719 C 130.628906 15.152344 130.851562 15.28125 131.105469 15.398438 C 131.363281 15.519531 131.652344 15.617188 131.976562 15.699219 C 132.300781 15.773438 132.667969 15.808594 133.070312 15.808594 C 133.582031 15.808594 134.035156 15.738281 134.433594 15.597656 C 134.832031 15.457031 135.164062 15.261719 135.4375 15.011719 C 135.71875 14.753906 135.933594 14.445312 136.078125 14.089844 C 136.226562 13.738281 136.300781 13.339844 136.300781 12.90625 C 136.300781 12.425781 136.191406 12.035156 135.96875 11.730469 C 135.753906 11.421875 135.472656 11.160156 135.117188 10.957031 C 134.765625 10.75 134.359375 10.574219 133.902344 10.433594 C 133.445312 10.285156 132.980469 10.136719 132.507812 9.992188 C 132.035156 9.835938 131.570312 9.660156 131.113281 9.457031 C 130.65625 9.257812 130.253906 9 129.898438 8.683594 C 129.546875 8.367188 129.257812 7.96875 129.035156 7.496094 C 128.824219 7.015625 128.714844 6.425781 128.714844 5.722656 C 128.714844 5.164062 128.824219 4.617188 129.035156 4.09375 C 129.257812 3.570312 129.574219 3.105469 129.988281 2.699219 C 130.40625 2.292969 130.917969 1.964844 131.523438 1.722656 C 132.136719 1.480469 132.835938 1.355469 133.625 1.355469 C 134.507812 1.355469 135.3125 1.496094 136.035156 1.777344 C 136.765625 2.058594 137.40625 2.464844 137.960938 2.996094 Z M 137.441406 4.015625 "/>
</g>
</svg>
