<?xml version="1.0" encoding="UTF-8"?>
<svg xmlns="http://www.w3.org/2000/svg" xmlns:xlink="http://www.w3.org/1999/xlink" width="px" height="19px" viewBox="0 0 145 19" version="1.1">
<g id="surface1">
<path style=" stroke:none;fill-rule:nonzero;fill:rgb(13.72549%,13.72549%,13.72549%);fill-opacity:1;" d="M 13.117188 14.136719 C 13.234375 14.136719 13.339844 14.183594 13.425781 14.28125 L 14.277344 15.199219 C 13.628906 15.953125 12.84375 16.542969 11.914062 16.960938 C 10.996094 17.382812 9.882812 17.59375 8.574219 17.59375 C 7.441406 17.59375 6.410156 17.398438 5.484375 17.007812 C 4.554688 16.609375 3.765625 16.054688 3.109375 15.34375 C 2.457031 14.628906 1.949219 13.769531 1.589844 12.773438 C 1.226562 11.773438 1.046875 10.679688 1.046875 9.480469 C 1.046875 8.285156 1.234375 7.1875 1.609375 6.1875 C 1.984375 5.191406 2.511719 4.335938 3.1875 3.617188 C 3.871094 2.902344 4.6875 2.347656 5.636719 1.957031 C 6.585938 1.554688 7.632812 1.355469 8.78125 1.355469 C 9.90625 1.355469 10.898438 1.539062 11.761719 1.898438 C 12.621094 2.261719 13.378906 2.753906 14.035156 3.375 L 13.328125 4.359375 C 13.285156 4.433594 13.222656 4.496094 13.152344 4.550781 C 13.085938 4.59375 12.992188 4.617188 12.875 4.617188 C 12.742188 4.617188 12.582031 4.546875 12.390625 4.40625 C 12.199219 4.257812 11.949219 4.09375 11.640625 3.917969 C 11.332031 3.738281 10.945312 3.582031 10.480469 3.441406 C 10.019531 3.292969 9.449219 3.21875 8.769531 3.21875 C 7.953125 3.21875 7.207031 3.363281 6.53125 3.652344 C 5.855469 3.933594 5.269531 4.34375 4.777344 4.882812 C 4.292969 5.421875 3.914062 6.078125 3.640625 6.855469 C 3.367188 7.628906 3.234375 8.503906 3.234375 9.480469 C 3.234375 10.472656 3.371094 11.355469 3.652344 12.128906 C 3.9375 12.90625 4.324219 13.5625 4.808594 14.101562 C 5.304688 14.632812 5.878906 15.042969 6.542969 15.320312 C 7.210938 15.601562 7.933594 15.742188 8.703125 15.742188 C 9.175781 15.742188 9.597656 15.71875 9.972656 15.664062 C 10.355469 15.605469 10.707031 15.519531 11.023438 15.398438 C 11.34375 15.28125 11.644531 15.132812 11.914062 14.957031 C 12.195312 14.769531 12.46875 14.554688 12.742188 14.300781 C 12.867188 14.191406 12.992188 14.136719 13.117188 14.136719 Z M 25.59375 11.519531 L 23.113281 5.058594 C 23.039062 4.867188 22.960938 4.644531 22.882812 4.394531 C 22.800781 4.136719 22.722656 3.863281 22.648438 3.574219 C 22.496094 4.171875 22.335938 4.671875 22.175781 5.070312 L 19.691406 11.519531 Z M 30.050781 17.417969 L 28.398438 17.417969 C 28.207031 17.417969 28.050781 17.367188 27.933594 17.273438 C 27.816406 17.175781 27.726562 17.054688 27.667969 16.90625 L 26.191406 13.070312 L 19.097656 13.070312 L 17.617188 16.90625 C 17.574219 17.039062 17.488281 17.15625 17.363281 17.261719 C 17.238281 17.363281 17.085938 17.417969 16.902344 17.417969 L 15.246094 17.417969 L 21.566406 1.535156 L 23.730469 1.535156 Z M 49.023438 1.535156 L 49.023438 17.417969 L 47.148438 17.417969 L 47.148438 5.746094 C 47.148438 5.589844 47.152344 5.425781 47.160156 5.246094 C 47.171875 5.070312 47.1875 4.890625 47.203125 4.703125 L 41.773438 14.632812 C 41.605469 14.96875 41.347656 15.132812 41.003906 15.132812 L 40.691406 15.132812 C 40.347656 15.132812 40.089844 14.96875 39.921875 14.632812 L 34.382812 4.660156 C 34.425781 5.050781 34.449219 5.414062 34.449219 5.746094 L 34.449219 17.417969 L 32.574219 17.417969 L 32.574219 1.535156 L 34.152344 1.535156 C 34.34375 1.535156 34.488281 1.550781 34.59375 1.589844 C 34.695312 1.625 34.792969 1.730469 34.890625 1.898438 L 40.351562 11.675781 C 40.441406 11.851562 40.523438 12.039062 40.605469 12.230469 C 40.691406 12.421875 40.773438 12.617188 40.847656 12.816406 C 40.921875 12.617188 41 12.421875 41.078125 12.230469 C 41.160156 12.03125 41.25 11.839844 41.34375 11.664062 L 46.707031 1.898438 C 46.792969 1.730469 46.890625 1.625 46.992188 1.589844 C 47.101562 1.550781 47.253906 1.535156 47.445312 1.535156 Z M 58.171875 9.769531 C 58.785156 9.769531 59.320312 9.6875 59.785156 9.523438 C 60.253906 9.363281 60.648438 9.136719 60.964844 8.847656 C 61.289062 8.554688 61.53125 8.203125 61.691406 7.796875 C 61.855469 7.390625 61.9375 6.941406 61.9375 6.457031 C 61.9375 5.441406 61.625 4.652344 60.996094 4.082031 C 60.378906 3.515625 59.4375 3.230469 58.171875 3.230469 L 55.636719 3.230469 L 55.636719 9.769531 Z M 58.171875 1.535156 C 59.175781 1.535156 60.042969 1.652344 60.777344 1.890625 C 61.519531 2.117188 62.132812 2.445312 62.621094 2.875 C 63.105469 3.304688 63.464844 3.820312 63.699219 4.425781 C 63.945312 5.03125 64.066406 5.707031 64.066406 6.457031 C 64.066406 7.195312 63.9375 7.871094 63.679688 8.484375 C 63.421875 9.097656 63.042969 9.625 62.542969 10.070312 C 62.050781 10.511719 61.4375 10.859375 60.699219 11.109375 C 59.972656 11.355469 59.128906 11.476562 58.171875 11.476562 L 55.636719 11.476562 L 55.636719 17.417969 L 53.507812 17.417969 L 53.507812 1.535156 Z M 73.300781 15.710938 C 73.957031 15.710938 74.539062 15.597656 75.054688 15.378906 C 75.570312 15.15625 76.003906 14.84375 76.355469 14.445312 C 76.71875 14.046875 76.988281 13.570312 77.171875 13.015625 C 77.363281 12.460938 77.460938 11.851562 77.460938 11.1875 L 77.460938 1.535156 L 79.589844 1.535156 L 79.589844 11.1875 C 79.589844 12.105469 79.441406 12.953125 79.148438 13.738281 C 78.863281 14.519531 78.445312 15.199219 77.902344 15.777344 C 77.363281 16.34375 76.707031 16.792969 75.925781 17.117188 C 75.148438 17.441406 74.273438 17.605469 73.300781 17.605469 C 72.332031 17.605469 71.453125 17.441406 70.675781 17.117188 C 69.894531 16.792969 69.234375 16.34375 68.691406 15.777344 C 68.144531 15.199219 67.726562 14.519531 67.433594 13.738281 C 67.144531 12.953125 67 12.105469 67 11.1875 L 67 1.535156 L 69.128906 1.535156 L 69.128906 11.175781 C 69.128906 11.839844 69.222656 12.453125 69.40625 13.003906 C 69.597656 13.558594 69.871094 14.035156 70.222656 14.433594 C 70.582031 14.835938 71.019531 15.148438 71.535156 15.378906 C 72.058594 15.597656 72.648438 15.710938 73.300781 15.710938 Z M 91.953125 4.015625 C 91.886719 4.128906 91.8125 4.210938 91.734375 4.273438 C 91.660156 4.324219 91.566406 4.347656 91.457031 4.347656 C 91.332031 4.347656 91.183594 4.285156 91.015625 4.160156 C 90.847656 4.035156 90.632812 3.898438 90.375 3.75 C 90.125 3.597656 89.820312 3.457031 89.460938 3.328125 C 89.109375 3.203125 88.675781 3.140625 88.171875 3.140625 C 87.691406 3.140625 87.269531 3.207031 86.902344 3.339844 C 86.539062 3.464844 86.234375 3.640625 85.984375 3.863281 C 85.742188 4.082031 85.558594 4.347656 85.433594 4.648438 C 85.308594 4.945312 85.246094 5.265625 85.246094 5.613281 C 85.246094 6.054688 85.351562 6.425781 85.566406 6.722656 C 85.785156 7.007812 86.074219 7.257812 86.425781 7.464844 C 86.785156 7.671875 87.191406 7.851562 87.640625 8.007812 C 88.097656 8.15625 88.558594 8.308594 89.03125 8.472656 C 89.507812 8.636719 89.972656 8.820312 90.421875 9.027344 C 90.875 9.226562 91.28125 9.480469 91.632812 9.792969 C 91.996094 10.101562 92.28125 10.480469 92.496094 10.933594 C 92.714844 11.382812 92.824219 11.9375 92.824219 12.59375 C 92.824219 13.289062 92.707031 13.945312 92.472656 14.558594 C 92.238281 15.164062 91.890625 15.691406 91.4375 16.140625 C 90.988281 16.59375 90.429688 16.949219 89.769531 17.207031 C 89.113281 17.464844 88.367188 17.59375 87.53125 17.59375 C 86.5 17.59375 85.566406 17.410156 84.726562 17.039062 C 83.890625 16.664062 83.171875 16.15625 82.578125 15.519531 L 83.195312 14.5 C 83.253906 14.421875 83.324219 14.355469 83.402344 14.300781 C 83.492188 14.242188 83.585938 14.214844 83.691406 14.214844 C 83.785156 14.214844 83.894531 14.253906 84.011719 14.335938 C 84.136719 14.410156 84.277344 14.503906 84.429688 14.625 C 84.585938 14.742188 84.761719 14.871094 84.960938 15.011719 C 85.15625 15.152344 85.382812 15.28125 85.632812 15.398438 C 85.890625 15.519531 86.179688 15.617188 86.503906 15.699219 C 86.828125 15.773438 87.191406 15.808594 87.597656 15.808594 C 88.105469 15.808594 88.554688 15.738281 88.953125 15.597656 C 89.351562 15.457031 89.683594 15.261719 89.957031 15.011719 C 90.238281 14.753906 90.449219 14.445312 90.597656 14.089844 C 90.746094 13.738281 90.816406 13.339844 90.816406 12.90625 C 90.816406 12.425781 90.707031 12.035156 90.488281 11.730469 C 90.273438 11.421875 89.992188 11.160156 89.636719 10.957031 C 89.285156 10.75 88.878906 10.574219 88.421875 10.433594 C 87.96875 10.285156 87.503906 10.136719 87.035156 9.992188 C 86.5625 9.835938 86.097656 9.660156 85.644531 9.457031 C 85.1875 9.257812 84.78125 9 84.429688 8.683594 C 84.078125 8.367188 83.789062 7.96875 83.570312 7.496094 C 83.355469 7.015625 83.25 6.425781 83.25 5.722656 C 83.25 5.164062 83.355469 4.617188 83.570312 4.09375 C 83.789062 3.570312 84.105469 3.105469 84.519531 2.699219 C 84.9375 2.292969 85.449219 1.964844 86.050781 1.722656 C 86.660156 1.480469 87.359375 1.355469 88.148438 1.355469 C 89.03125 1.355469 89.832031 1.496094 90.554688 1.777344 C 91.28125 2.058594 91.921875 2.464844 92.472656 2.996094 Z M 111.34375 15.609375 L 111.34375 17.417969 L 102.375 17.417969 L 102.375 1.535156 L 104.503906 1.535156 L 104.503906 15.609375 Z M 116.292969 17.417969 L 114.152344 17.417969 L 114.152344 1.535156 L 116.292969 1.535156 Z M 122.917969 3.285156 L 122.917969 8.839844 L 129.414062 8.839844 L 129.414062 10.589844 L 122.917969 10.589844 L 122.917969 17.417969 L 120.777344 17.417969 L 120.777344 1.535156 L 130.519531 1.535156 L 130.519531 3.285156 Z M 143.449219 15.664062 L 143.4375 17.417969 L 133.695312 17.417969 L 133.695312 1.535156 L 143.4375 1.535156 L 143.4375 3.285156 L 135.835938 3.285156 L 135.835938 8.5625 L 141.992188 8.5625 L 141.992188 10.246094 L 135.835938 10.246094 L 135.835938 15.664062 Z M 143.449219 15.664062 "/>
</g>
</svg>
