<?xml version="1.0" encoding="UTF-8"?>
<svg xmlns="http://www.w3.org/2000/svg" xmlns:xlink="http://www.w3.org/1999/xlink" width="px" height="19px" viewBox="0 0 98 19" version="1.1">
<g id="surface1">
<path style=" stroke:none;fill-rule:nonzero;fill:rgb(13.72549%,13.72549%,13.72549%);fill-opacity:1;" d="M 13.15625 14.136719 C 13.273438 14.136719 13.378906 14.183594 13.464844 14.28125 L 14.316406 15.199219 C 13.667969 15.953125 12.878906 16.542969 11.949219 16.960938 C 11.027344 17.382812 9.910156 17.59375 8.597656 17.59375 C 7.460938 17.59375 6.429688 17.398438 5.5 17.007812 C 4.570312 16.609375 3.777344 16.054688 3.121094 15.34375 C 2.464844 14.628906 1.953125 13.769531 1.59375 12.773438 C 1.230469 11.773438 1.050781 10.679688 1.050781 9.480469 C 1.050781 8.285156 1.238281 7.1875 1.617188 6.1875 C 1.992188 5.191406 2.519531 4.335938 3.199219 3.617188 C 3.882812 2.902344 4.703125 2.347656 5.652344 1.957031 C 6.605469 1.554688 7.65625 1.355469 8.808594 1.355469 C 9.9375 1.355469 10.933594 1.539062 11.792969 1.898438 C 12.65625 2.261719 13.417969 2.753906 14.074219 3.375 L 13.367188 4.359375 C 13.320312 4.433594 13.261719 4.496094 13.1875 4.550781 C 13.121094 4.59375 13.03125 4.617188 12.914062 4.617188 C 12.78125 4.617188 12.617188 4.546875 12.425781 4.40625 C 12.234375 4.257812 11.984375 4.09375 11.671875 3.917969 C 11.363281 3.738281 10.976562 3.582031 10.511719 3.441406 C 10.046875 3.292969 9.476562 3.21875 8.796875 3.21875 C 7.976562 3.21875 7.230469 3.363281 6.550781 3.652344 C 5.871094 3.933594 5.285156 4.34375 4.789062 4.882812 C 4.304688 5.421875 3.925781 6.078125 3.652344 6.855469 C 3.378906 7.628906 3.242188 8.503906 3.242188 9.480469 C 3.242188 10.472656 3.382812 11.355469 3.664062 12.128906 C 3.949219 12.90625 4.335938 13.5625 4.824219 14.101562 C 5.316406 14.632812 5.898438 15.042969 6.5625 15.320312 C 7.234375 15.601562 7.957031 15.742188 8.730469 15.742188 C 9.203125 15.742188 9.625 15.71875 10.003906 15.664062 C 10.386719 15.605469 10.734375 15.519531 11.054688 15.398438 C 11.378906 15.28125 11.675781 15.132812 11.949219 14.957031 C 12.230469 14.769531 12.507812 14.554688 12.78125 14.300781 C 12.90625 14.191406 13.03125 14.136719 13.15625 14.136719 Z M 25.667969 11.519531 L 23.179688 5.058594 C 23.105469 4.867188 23.027344 4.644531 22.945312 4.394531 C 22.867188 4.136719 22.789062 3.863281 22.714844 3.574219 C 22.558594 4.171875 22.402344 4.671875 22.238281 5.070312 L 19.75 11.519531 Z M 30.140625 17.417969 L 28.480469 17.417969 C 28.289062 17.417969 28.132812 17.367188 28.015625 17.273438 C 27.898438 17.175781 27.808594 17.054688 27.75 16.90625 L 26.265625 13.070312 L 19.152344 13.070312 L 17.667969 16.90625 C 17.625 17.039062 17.539062 17.15625 17.414062 17.261719 C 17.289062 17.363281 17.132812 17.417969 16.949219 17.417969 L 15.289062 17.417969 L 21.628906 1.535156 L 23.800781 1.535156 Z M 37.058594 9.226562 C 37.679688 9.226562 38.226562 9.152344 38.699219 9.003906 C 39.175781 8.847656 39.574219 8.636719 39.894531 8.363281 C 40.21875 8.082031 40.460938 7.75 40.621094 7.363281 C 40.785156 6.980469 40.867188 6.554688 40.867188 6.089844 C 40.867188 5.144531 40.554688 4.429688 39.9375 3.949219 C 39.316406 3.46875 38.386719 3.230469 37.148438 3.230469 L 34.804688 3.230469 L 34.804688 9.226562 Z M 44.386719 17.417969 L 42.480469 17.417969 C 42.089844 17.417969 41.804688 17.265625 41.617188 16.960938 L 37.503906 11.289062 C 37.378906 11.109375 37.242188 10.984375 37.09375 10.910156 C 36.953125 10.828125 36.730469 10.789062 36.429688 10.789062 L 34.804688 10.789062 L 34.804688 17.417969 L 32.667969 17.417969 L 32.667969 1.535156 L 37.148438 1.535156 C 38.152344 1.535156 39.019531 1.636719 39.75 1.84375 C 40.480469 2.042969 41.082031 2.335938 41.550781 2.71875 C 42.03125 3.105469 42.386719 3.570312 42.613281 4.117188 C 42.84375 4.65625 42.957031 5.261719 42.957031 5.933594 C 42.957031 6.496094 42.867188 7.019531 42.691406 7.507812 C 42.515625 7.996094 42.257812 8.433594 41.917969 8.828125 C 41.585938 9.210938 41.175781 9.539062 40.6875 9.8125 C 40.210938 10.085938 39.664062 10.292969 39.050781 10.433594 C 39.324219 10.589844 39.5625 10.816406 39.761719 11.109375 Z M 56.765625 15.664062 L 56.753906 17.417969 L 46.984375 17.417969 L 46.984375 1.535156 L 56.753906 1.535156 L 56.753906 3.285156 L 49.128906 3.285156 L 49.128906 8.5625 L 55.304688 8.5625 L 55.304688 10.246094 L 49.128906 10.246094 L 49.128906 15.664062 Z M 69.980469 15.664062 L 69.96875 17.417969 L 60.199219 17.417969 L 60.199219 1.535156 L 69.96875 1.535156 L 69.96875 3.285156 L 62.34375 3.285156 L 62.34375 8.5625 L 68.519531 8.5625 L 68.519531 10.246094 L 62.34375 10.246094 L 62.34375 15.664062 Z M 77.804688 9.226562 C 78.425781 9.226562 78.96875 9.152344 79.441406 9.003906 C 79.921875 8.847656 80.320312 8.636719 80.636719 8.363281 C 80.960938 8.082031 81.207031 7.75 81.367188 7.363281 C 81.53125 6.980469 81.613281 6.554688 81.613281 6.089844 C 81.613281 5.144531 81.300781 4.429688 80.683594 3.949219 C 80.0625 3.46875 79.132812 3.230469 77.894531 3.230469 L 75.546875 3.230469 L 75.546875 9.226562 Z M 85.128906 17.417969 L 83.226562 17.417969 C 82.835938 17.417969 82.546875 17.265625 82.363281 16.960938 L 78.246094 11.289062 C 78.121094 11.109375 77.984375 10.984375 77.839844 10.910156 C 77.699219 10.828125 77.476562 10.789062 77.175781 10.789062 L 75.546875 10.789062 L 75.546875 17.417969 L 73.414062 17.417969 L 73.414062 1.535156 L 77.894531 1.535156 C 78.898438 1.535156 79.761719 1.636719 80.492188 1.84375 C 81.222656 2.042969 81.824219 2.335938 82.296875 2.71875 C 82.777344 3.105469 83.132812 3.570312 83.359375 4.117188 C 83.589844 4.65625 83.703125 5.261719 83.703125 5.933594 C 83.703125 6.496094 83.613281 7.019531 83.4375 7.507812 C 83.261719 7.996094 83 8.433594 82.664062 8.828125 C 82.332031 9.210938 81.921875 9.539062 81.433594 9.8125 C 80.953125 10.085938 80.410156 10.292969 79.796875 10.433594 C 80.070312 10.589844 80.304688 10.816406 80.503906 11.109375 Z M 95.839844 4.015625 C 95.773438 4.128906 95.699219 4.210938 95.617188 4.273438 C 95.542969 4.324219 95.453125 4.347656 95.339844 4.347656 C 95.214844 4.347656 95.070312 4.285156 94.898438 4.160156 C 94.730469 4.035156 94.515625 3.898438 94.257812 3.75 C 94.007812 3.597656 93.699219 3.457031 93.339844 3.328125 C 92.984375 3.203125 92.554688 3.140625 92.042969 3.140625 C 91.566406 3.140625 91.140625 3.207031 90.773438 3.339844 C 90.410156 3.464844 90.105469 3.640625 89.851562 3.863281 C 89.609375 4.082031 89.425781 4.347656 89.300781 4.648438 C 89.175781 4.945312 89.113281 5.265625 89.113281 5.613281 C 89.113281 6.054688 89.21875 6.425781 89.433594 6.722656 C 89.652344 7.007812 89.941406 7.257812 90.296875 7.464844 C 90.65625 7.671875 91.0625 7.851562 91.511719 8.007812 C 91.96875 8.15625 92.433594 8.308594 92.90625 8.472656 C 93.386719 8.636719 93.851562 8.820312 94.300781 9.027344 C 94.757812 9.226562 95.164062 9.480469 95.519531 9.792969 C 95.878906 10.101562 96.167969 10.480469 96.382812 10.933594 C 96.601562 11.382812 96.714844 11.9375 96.714844 12.59375 C 96.714844 13.289062 96.59375 13.945312 96.359375 14.558594 C 96.125 15.164062 95.777344 15.691406 95.320312 16.140625 C 94.871094 16.59375 94.3125 16.949219 93.648438 17.207031 C 92.992188 17.464844 92.242188 17.59375 91.402344 17.59375 C 90.371094 17.59375 89.433594 17.410156 88.59375 17.039062 C 87.75 16.664062 87.03125 16.15625 86.433594 15.519531 L 87.054688 14.5 C 87.113281 14.421875 87.183594 14.355469 87.265625 14.300781 C 87.351562 14.242188 87.449219 14.214844 87.550781 14.214844 C 87.648438 14.214844 87.753906 14.253906 87.871094 14.335938 C 88 14.410156 88.136719 14.503906 88.292969 14.625 C 88.449219 14.742188 88.625 14.871094 88.824219 15.011719 C 89.023438 15.152344 89.25 15.28125 89.5 15.398438 C 89.757812 15.519531 90.050781 15.617188 90.375 15.699219 C 90.699219 15.773438 91.0625 15.808594 91.46875 15.808594 C 91.976562 15.808594 92.429688 15.738281 92.828125 15.597656 C 93.226562 15.457031 93.5625 15.261719 93.835938 15.011719 C 94.117188 14.753906 94.332031 14.445312 94.476562 14.089844 C 94.625 13.738281 94.699219 13.339844 94.699219 12.90625 C 94.699219 12.425781 94.589844 12.035156 94.367188 11.730469 C 94.152344 11.421875 93.871094 11.160156 93.515625 10.957031 C 93.160156 10.75 92.757812 10.574219 92.296875 10.433594 C 91.839844 10.285156 91.375 10.136719 90.90625 9.992188 C 90.433594 9.835938 89.96875 9.660156 89.511719 9.457031 C 89.054688 9.257812 88.648438 9 88.292969 8.683594 C 87.9375 8.367188 87.652344 7.96875 87.429688 7.496094 C 87.214844 7.015625 87.109375 6.425781 87.109375 5.722656 C 87.109375 5.164062 87.214844 4.617188 87.429688 4.09375 C 87.652344 3.570312 87.96875 3.105469 88.382812 2.699219 C 88.800781 2.292969 89.316406 1.964844 89.917969 1.722656 C 90.53125 1.480469 91.234375 1.355469 92.023438 1.355469 C 92.90625 1.355469 93.710938 1.496094 94.433594 1.777344 C 95.164062 2.058594 95.804688 2.464844 96.359375 2.996094 Z M 95.839844 4.015625 "/>
</g>
</svg>
