<?xml version="1.0" encoding="UTF-8"?>
<svg xmlns="http://www.w3.org/2000/svg" xmlns:xlink="http://www.w3.org/1999/xlink" width="px" height="19px" viewBox="0 0 161 19" version="1.1">
<g id="surface1">
<path style=" stroke:none;fill-rule:nonzero;fill:rgb(13.72549%,13.72549%,13.72549%);fill-opacity:1;" d="M 14.167969 9.480469 C 14.167969 10.671875 13.980469 11.753906 13.601562 12.726562 C 13.226562 13.703125 12.695312 14.539062 12.011719 15.234375 C 11.328125 15.929688 10.5 16.46875 9.535156 16.851562 C 8.578125 17.226562 7.519531 17.417969 6.355469 17.417969 L 0.445312 17.417969 L 0.445312 1.535156 L 6.355469 1.535156 C 7.519531 1.535156 8.578125 1.726562 9.535156 2.109375 C 10.5 2.488281 11.328125 3.027344 12.011719 3.730469 C 12.695312 4.421875 13.226562 5.257812 13.601562 6.234375 C 13.980469 7.207031 14.167969 8.292969 14.167969 9.480469 Z M 11.96875 9.480469 C 11.96875 8.503906 11.835938 7.632812 11.570312 6.867188 C 11.304688 6.097656 10.929688 5.445312 10.441406 4.914062 C 9.957031 4.382812 9.367188 3.976562 8.675781 3.695312 C 7.984375 3.414062 7.210938 3.273438 6.355469 3.273438 L 2.585938 3.273438 L 2.585938 15.675781 L 6.355469 15.675781 C 7.210938 15.675781 7.984375 15.535156 8.675781 15.253906 C 9.367188 14.976562 9.957031 14.570312 10.441406 14.046875 C 10.929688 13.515625 11.304688 12.863281 11.570312 12.097656 C 11.835938 11.328125 11.96875 10.457031 11.96875 9.480469 Z M 27.464844 15.664062 L 27.453125 17.417969 L 17.695312 17.417969 L 17.695312 1.535156 L 27.453125 1.535156 L 27.453125 3.285156 L 19.839844 3.285156 L 19.839844 8.5625 L 26.003906 8.5625 L 26.003906 10.246094 L 19.839844 10.246094 L 19.839844 15.664062 Z M 35.566406 9.769531 C 36.175781 9.769531 36.714844 9.6875 37.179688 9.523438 C 37.652344 9.363281 38.042969 9.136719 38.363281 8.847656 C 38.683594 8.554688 38.929688 8.203125 39.089844 7.796875 C 39.253906 7.390625 39.332031 6.941406 39.332031 6.457031 C 39.332031 5.441406 39.019531 4.652344 38.394531 4.082031 C 37.777344 3.515625 36.832031 3.230469 35.566406 3.230469 L 33.023438 3.230469 L 33.023438 9.769531 Z M 35.566406 1.535156 C 36.566406 1.535156 37.4375 1.652344 38.171875 1.890625 C 38.917969 2.117188 39.53125 2.445312 40.019531 2.875 C 40.503906 3.304688 40.867188 3.820312 41.101562 4.425781 C 41.34375 5.03125 41.464844 5.707031 41.464844 6.457031 C 41.464844 7.195312 41.335938 7.871094 41.078125 8.484375 C 40.820312 9.097656 40.441406 9.625 39.941406 10.070312 C 39.449219 10.511719 38.832031 10.859375 38.097656 11.109375 C 37.367188 11.355469 36.523438 11.476562 35.566406 11.476562 L 33.023438 11.476562 L 33.023438 17.417969 L 30.890625 17.417969 L 30.890625 1.535156 Z M 51.914062 11.519531 L 49.425781 5.058594 C 49.355469 4.867188 49.277344 4.644531 49.195312 4.394531 C 49.113281 4.136719 49.039062 3.863281 48.964844 3.574219 C 48.808594 4.171875 48.652344 4.671875 48.488281 5.070312 L 46.003906 11.519531 Z M 56.378906 17.417969 L 54.71875 17.417969 C 54.527344 17.417969 54.375 17.367188 54.257812 17.273438 C 54.136719 17.175781 54.050781 17.054688 53.992188 16.90625 L 52.511719 13.070312 L 45.40625 13.070312 L 43.925781 16.90625 C 43.882812 17.039062 43.796875 17.15625 43.671875 17.261719 C 43.546875 17.363281 43.390625 17.417969 43.207031 17.417969 L 41.550781 17.417969 L 47.878906 1.535156 L 50.046875 1.535156 Z M 63.289062 9.226562 C 63.90625 9.226562 64.453125 9.152344 64.925781 9.003906 C 65.402344 8.847656 65.800781 8.636719 66.117188 8.363281 C 66.441406 8.082031 66.683594 7.75 66.847656 7.363281 C 67.007812 6.980469 67.089844 6.554688 67.089844 6.089844 C 67.089844 5.144531 66.78125 4.429688 66.160156 3.949219 C 65.542969 3.46875 64.613281 3.230469 63.378906 3.230469 L 61.035156 3.230469 L 61.035156 9.226562 Z M 70.601562 17.417969 L 68.703125 17.417969 C 68.3125 17.417969 68.023438 17.265625 67.839844 16.960938 L 63.730469 11.289062 C 63.605469 11.109375 63.46875 10.984375 63.320312 10.910156 C 63.183594 10.828125 62.960938 10.789062 62.660156 10.789062 L 61.035156 10.789062 L 61.035156 17.417969 L 58.902344 17.417969 L 58.902344 1.535156 L 63.378906 1.535156 C 64.378906 1.535156 65.246094 1.636719 65.972656 1.84375 C 66.703125 2.042969 67.304688 2.335938 67.773438 2.71875 C 68.253906 3.105469 68.605469 3.570312 68.835938 4.117188 C 69.0625 4.65625 69.179688 5.261719 69.179688 5.933594 C 69.179688 6.496094 69.089844 7.019531 68.914062 7.507812 C 68.734375 7.996094 68.476562 8.433594 68.140625 8.828125 C 67.808594 9.210938 67.398438 9.539062 66.914062 9.8125 C 66.433594 10.085938 65.890625 10.292969 65.277344 10.433594 C 65.550781 10.589844 65.785156 10.816406 65.984375 11.109375 Z M 83.386719 3.339844 L 78.261719 3.339844 L 78.261719 17.417969 L 76.128906 17.417969 L 76.128906 3.339844 L 70.992188 3.339844 L 70.992188 1.535156 L 83.386719 1.535156 Z M 102.652344 1.535156 L 102.652344 17.417969 L 100.773438 17.417969 L 100.773438 5.746094 C 100.773438 5.589844 100.777344 5.425781 100.785156 5.246094 C 100.800781 5.070312 100.816406 4.890625 100.828125 4.703125 L 95.394531 14.632812 C 95.222656 14.96875 94.964844 15.132812 94.621094 15.132812 L 94.3125 15.132812 C 93.964844 15.132812 93.707031 14.96875 93.539062 14.632812 L 87.992188 4.660156 C 88.035156 5.050781 88.058594 5.414062 88.058594 5.746094 L 88.058594 17.417969 L 86.179688 17.417969 L 86.179688 1.535156 L 87.757812 1.535156 C 87.949219 1.535156 88.097656 1.550781 88.199219 1.589844 C 88.304688 1.625 88.402344 1.730469 88.5 1.898438 L 93.96875 11.675781 C 94.058594 11.851562 94.140625 12.039062 94.222656 12.230469 C 94.3125 12.421875 94.390625 12.617188 94.464844 12.816406 C 94.539062 12.617188 94.617188 12.421875 94.699219 12.230469 C 94.777344 12.03125 94.867188 11.839844 94.960938 11.664062 L 100.332031 1.898438 C 100.421875 1.730469 100.515625 1.625 100.621094 1.589844 C 100.730469 1.550781 100.882812 1.535156 101.074219 1.535156 Z M 116.910156 15.664062 L 116.898438 17.417969 L 107.144531 17.417969 L 107.144531 1.535156 L 116.898438 1.535156 L 116.898438 3.285156 L 109.285156 3.285156 L 109.285156 8.5625 L 115.453125 8.5625 L 115.453125 10.246094 L 109.285156 10.246094 L 109.285156 15.664062 Z M 133.167969 1.535156 L 133.167969 17.417969 L 132.09375 17.417969 C 131.925781 17.417969 131.78125 17.386719 131.664062 17.328125 C 131.554688 17.269531 131.445312 17.167969 131.332031 17.027344 L 122.171875 5.058594 C 122.1875 5.242188 122.199219 5.425781 122.207031 5.601562 C 122.214844 5.777344 122.21875 5.945312 122.21875 6.101562 L 122.21875 17.417969 L 120.339844 17.417969 L 120.339844 1.535156 L 121.445312 1.535156 C 121.539062 1.535156 121.621094 1.542969 121.6875 1.554688 C 121.753906 1.5625 121.8125 1.582031 121.863281 1.613281 C 121.914062 1.632812 121.96875 1.671875 122.019531 1.722656 C 122.070312 1.765625 122.125 1.824219 122.183594 1.898438 L 131.34375 13.859375 C 131.328125 13.667969 131.316406 13.480469 131.300781 13.304688 C 131.292969 13.121094 131.289062 12.945312 131.289062 12.785156 L 131.289062 1.535156 Z M 148.363281 3.339844 L 143.238281 3.339844 L 143.238281 17.417969 L 141.105469 17.417969 L 141.105469 3.339844 L 135.964844 3.339844 L 135.964844 1.535156 L 148.363281 1.535156 Z M 159.191406 4.015625 C 159.125 4.128906 159.050781 4.210938 158.96875 4.273438 C 158.894531 4.324219 158.804688 4.347656 158.691406 4.347656 C 158.566406 4.347656 158.417969 4.285156 158.25 4.160156 C 158.078125 4.035156 157.867188 3.898438 157.609375 3.75 C 157.359375 3.597656 157.054688 3.457031 156.691406 3.328125 C 156.339844 3.203125 155.90625 3.140625 155.398438 3.140625 C 154.921875 3.140625 154.496094 3.207031 154.128906 3.339844 C 153.769531 3.464844 153.460938 3.640625 153.210938 3.863281 C 152.96875 4.082031 152.785156 4.347656 152.660156 4.648438 C 152.535156 4.945312 152.472656 5.265625 152.472656 5.613281 C 152.472656 6.054688 152.578125 6.425781 152.792969 6.722656 C 153.011719 7.007812 153.300781 7.257812 153.652344 7.464844 C 154.015625 7.671875 154.417969 7.851562 154.867188 8.007812 C 155.324219 8.15625 155.789062 8.308594 156.261719 8.472656 C 156.738281 8.636719 157.203125 8.820312 157.652344 9.027344 C 158.109375 9.226562 158.515625 9.480469 158.867188 9.792969 C 159.230469 10.101562 159.515625 10.480469 159.730469 10.933594 C 159.953125 11.382812 160.0625 11.9375 160.0625 12.59375 C 160.0625 13.289062 159.945312 13.945312 159.707031 14.558594 C 159.472656 15.164062 159.125 15.691406 158.671875 16.140625 C 158.21875 16.59375 157.664062 16.949219 157 17.207031 C 156.34375 17.464844 155.597656 17.59375 154.757812 17.59375 C 153.726562 17.59375 152.792969 17.410156 151.953125 17.039062 C 151.113281 16.664062 150.394531 16.15625 149.796875 15.519531 L 150.414062 14.5 C 150.476562 14.421875 150.546875 14.355469 150.625 14.300781 C 150.714844 14.242188 150.808594 14.214844 150.914062 14.214844 C 151.007812 14.214844 151.117188 14.253906 151.234375 14.335938 C 151.359375 14.410156 151.5 14.503906 151.652344 14.625 C 151.808594 14.742188 151.984375 14.871094 152.183594 15.011719 C 152.382812 15.152344 152.609375 15.28125 152.859375 15.398438 C 153.117188 15.519531 153.40625 15.617188 153.730469 15.699219 C 154.054688 15.773438 154.417969 15.808594 154.824219 15.808594 C 155.332031 15.808594 155.785156 15.738281 156.183594 15.597656 C 156.582031 15.457031 156.917969 15.261719 157.1875 15.011719 C 157.46875 14.753906 157.683594 14.445312 157.828125 14.089844 C 157.976562 13.738281 158.050781 13.339844 158.050781 12.90625 C 158.050781 12.425781 157.941406 12.035156 157.71875 11.730469 C 157.503906 11.421875 157.222656 11.160156 156.867188 10.957031 C 156.515625 10.75 156.109375 10.574219 155.652344 10.433594 C 155.195312 10.285156 154.734375 10.136719 154.261719 9.992188 C 153.789062 9.835938 153.324219 9.660156 152.867188 9.457031 C 152.414062 9.257812 152.007812 9 151.652344 8.683594 C 151.300781 8.367188 151.011719 7.96875 150.792969 7.496094 C 150.578125 7.015625 150.472656 6.425781 150.472656 5.722656 C 150.472656 5.164062 150.578125 4.617188 150.792969 4.09375 C 151.011719 3.570312 151.328125 3.105469 151.742188 2.699219 C 152.160156 2.292969 152.671875 1.964844 153.277344 1.722656 C 153.890625 1.480469 154.589844 1.355469 155.378906 1.355469 C 156.261719 1.355469 157.0625 1.496094 157.785156 1.777344 C 158.515625 2.058594 159.15625 2.464844 159.707031 2.996094 Z M 159.191406 4.015625 "/>
</g>
</svg>
