<?xml version="1.0" encoding="UTF-8"?>
<svg xmlns="http://www.w3.org/2000/svg" xmlns:xlink="http://www.w3.org/1999/xlink" width="px" height="19px" viewBox="0 0 110 19" version="1.1">
<g id="surface1">
<path style=" stroke:none;fill-rule:nonzero;fill:rgb(13.72549%,13.72549%,13.72549%);fill-opacity:1;" d="M 2.574219 17.417969 L 0.441406 17.417969 L 0.441406 1.535156 L 2.574219 1.535156 Z M 19.820312 1.535156 L 19.820312 17.417969 L 18.75 17.417969 C 18.582031 17.417969 18.441406 17.386719 18.324219 17.328125 C 18.210938 17.269531 18.101562 17.167969 17.992188 17.027344 L 8.875 5.058594 C 8.886719 5.242188 8.898438 5.425781 8.90625 5.601562 C 8.914062 5.777344 8.917969 5.945312 8.917969 6.101562 L 8.917969 17.417969 L 7.046875 17.417969 L 7.046875 1.535156 L 8.148438 1.535156 C 8.242188 1.535156 8.324219 1.542969 8.390625 1.554688 C 8.457031 1.5625 8.515625 1.582031 8.566406 1.613281 C 8.617188 1.632812 8.667969 1.671875 8.71875 1.722656 C 8.769531 1.765625 8.824219 1.824219 8.882812 1.898438 L 18.003906 13.859375 C 17.988281 13.667969 17.972656 13.480469 17.960938 13.304688 C 17.953125 13.121094 17.949219 12.945312 17.949219 12.785156 L 17.949219 1.535156 Z M 32.351562 4.015625 C 32.285156 4.128906 32.210938 4.210938 32.132812 4.273438 C 32.058594 4.324219 31.964844 4.347656 31.855469 4.347656 C 31.730469 4.347656 31.585938 4.285156 31.417969 4.160156 C 31.246094 4.035156 31.035156 3.898438 30.777344 3.75 C 30.527344 3.597656 30.226562 3.457031 29.867188 3.328125 C 29.511719 3.203125 29.085938 3.140625 28.578125 3.140625 C 28.101562 3.140625 27.679688 3.207031 27.3125 3.339844 C 26.953125 3.464844 26.648438 3.640625 26.398438 3.863281 C 26.160156 4.082031 25.976562 4.347656 25.851562 4.648438 C 25.726562 4.945312 25.664062 5.265625 25.664062 5.613281 C 25.664062 6.054688 25.769531 6.425781 25.980469 6.722656 C 26.203125 7.007812 26.488281 7.257812 26.839844 7.464844 C 27.199219 7.671875 27.601562 7.851562 28.050781 8.007812 C 28.503906 8.15625 28.96875 8.308594 29.4375 8.472656 C 29.914062 8.636719 30.375 8.820312 30.824219 9.027344 C 31.277344 9.226562 31.679688 9.480469 32.03125 9.792969 C 32.390625 10.101562 32.675781 10.480469 32.890625 10.933594 C 33.109375 11.382812 33.21875 11.9375 33.21875 12.59375 C 33.21875 13.289062 33.101562 13.945312 32.867188 14.558594 C 32.632812 15.164062 32.289062 15.691406 31.835938 16.140625 C 31.386719 16.59375 30.832031 16.949219 30.171875 17.207031 C 29.519531 17.464844 28.777344 17.59375 27.941406 17.59375 C 26.914062 17.59375 25.980469 17.410156 25.144531 17.039062 C 24.308594 16.664062 23.59375 16.15625 23 15.519531 L 23.617188 14.5 C 23.675781 14.421875 23.746094 14.355469 23.828125 14.300781 C 23.914062 14.242188 24.007812 14.214844 24.113281 14.214844 C 24.207031 14.214844 24.3125 14.253906 24.429688 14.335938 C 24.554688 14.410156 24.695312 14.503906 24.847656 14.625 C 25.003906 14.742188 25.179688 14.871094 25.378906 15.011719 C 25.574219 15.152344 25.800781 15.28125 26.046875 15.398438 C 26.304688 15.519531 26.59375 15.617188 26.917969 15.699219 C 27.238281 15.773438 27.601562 15.808594 28.007812 15.808594 C 28.511719 15.808594 28.964844 15.738281 29.359375 15.597656 C 29.753906 15.457031 30.089844 15.261719 30.359375 15.011719 C 30.640625 14.753906 30.851562 14.445312 31 14.089844 C 31.144531 13.738281 31.21875 13.339844 31.21875 12.90625 C 31.21875 12.425781 31.109375 12.035156 30.886719 11.730469 C 30.675781 11.421875 30.394531 11.160156 30.042969 10.957031 C 29.6875 10.75 29.285156 10.574219 28.832031 10.433594 C 28.375 10.285156 27.914062 10.136719 27.445312 9.992188 C 26.976562 9.835938 26.515625 9.660156 26.058594 9.457031 C 25.605469 9.257812 25.203125 9 24.847656 8.683594 C 24.496094 8.367188 24.210938 7.96875 23.992188 7.496094 C 23.777344 7.015625 23.671875 6.425781 23.671875 5.722656 C 23.671875 5.164062 23.777344 4.617188 23.992188 4.09375 C 24.210938 3.570312 24.527344 3.105469 24.9375 2.699219 C 25.355469 2.292969 25.863281 1.964844 26.464844 1.722656 C 27.074219 1.480469 27.773438 1.355469 28.554688 1.355469 C 29.4375 1.355469 30.234375 1.496094 30.953125 1.777344 C 31.679688 2.058594 32.316406 2.464844 32.867188 2.996094 Z M 47.332031 3.339844 L 42.230469 3.339844 L 42.230469 17.417969 L 40.105469 17.417969 L 40.105469 3.339844 L 34.992188 3.339844 L 34.992188 1.535156 L 47.332031 1.535156 Z M 52.246094 17.417969 L 50.113281 17.417969 L 50.113281 1.535156 L 52.246094 1.535156 Z M 67.375 3.339844 L 62.273438 3.339844 L 62.273438 17.417969 L 60.148438 17.417969 L 60.148438 3.339844 L 55.035156 3.339844 L 55.035156 1.535156 L 67.375 1.535156 Z M 76.238281 15.710938 C 76.890625 15.710938 77.472656 15.597656 77.988281 15.378906 C 78.5 15.15625 78.933594 14.84375 79.285156 14.445312 C 79.644531 14.046875 79.917969 13.570312 80.101562 13.015625 C 80.289062 12.460938 80.386719 11.851562 80.386719 11.1875 L 80.386719 1.535156 L 82.507812 1.535156 L 82.507812 11.1875 C 82.507812 12.105469 82.363281 12.953125 82.070312 13.738281 C 81.78125 14.519531 81.367188 15.199219 80.824219 15.777344 C 80.289062 16.34375 79.632812 16.792969 78.855469 17.117188 C 78.078125 17.441406 77.207031 17.605469 76.238281 17.605469 C 75.269531 17.605469 74.398438 17.441406 73.621094 17.117188 C 72.84375 16.792969 72.183594 16.34375 71.640625 15.777344 C 71.097656 15.199219 70.679688 14.519531 70.386719 13.738281 C 70.101562 12.953125 69.957031 12.105469 69.957031 11.1875 L 69.957031 1.535156 L 72.082031 1.535156 L 72.082031 11.175781 C 72.082031 11.839844 72.171875 12.453125 72.355469 13.003906 C 72.546875 13.558594 72.816406 14.035156 73.167969 14.433594 C 73.527344 14.835938 73.964844 15.148438 74.480469 15.378906 C 75 15.597656 75.585938 15.710938 76.238281 15.710938 Z M 97.433594 3.339844 L 92.328125 3.339844 L 92.328125 17.417969 L 90.207031 17.417969 L 90.207031 3.339844 L 85.089844 3.339844 L 85.089844 1.535156 L 97.433594 1.535156 Z M 109.9375 15.664062 L 109.925781 17.417969 L 100.210938 17.417969 L 100.210938 1.535156 L 109.925781 1.535156 L 109.925781 3.285156 L 102.34375 3.285156 L 102.34375 8.5625 L 108.484375 8.5625 L 108.484375 10.246094 L 102.34375 10.246094 L 102.34375 15.664062 Z M 109.9375 15.664062 "/>
</g>
</svg>
