<?xml version="1.0" encoding="UTF-8"?>
<svg xmlns="http://www.w3.org/2000/svg" xmlns:xlink="http://www.w3.org/1999/xlink" width="px" height="19px" viewBox="0 0 144 19" version="1.1">
<g id="surface1">
<path style=" stroke:none;fill-rule:nonzero;fill:rgb(13.72549%,13.72549%,13.72549%);fill-opacity:1;" d="M 5.128906 9.769531 C 5.742188 9.769531 6.28125 9.6875 6.746094 9.523438 C 7.21875 9.363281 7.613281 9.136719 7.933594 8.847656 C 8.257812 8.554688 8.5 8.203125 8.664062 7.796875 C 8.828125 7.390625 8.90625 6.941406 8.90625 6.457031 C 8.90625 5.441406 8.59375 4.652344 7.964844 4.082031 C 7.34375 3.515625 6.398438 3.230469 5.128906 3.230469 L 2.582031 3.230469 L 2.582031 9.769531 Z M 5.128906 1.535156 C 6.132812 1.535156 7.007812 1.652344 7.746094 1.890625 C 8.488281 2.117188 9.105469 2.445312 9.59375 2.875 C 10.082031 3.304688 10.445312 3.820312 10.679688 4.425781 C 10.921875 5.03125 11.046875 5.707031 11.046875 6.457031 C 11.046875 7.195312 10.917969 7.871094 10.65625 8.484375 C 10.398438 9.097656 10.019531 9.625 9.515625 10.070312 C 9.023438 10.511719 8.40625 10.859375 7.667969 11.109375 C 6.9375 11.355469 6.089844 11.476562 5.128906 11.476562 L 2.582031 11.476562 L 2.582031 17.417969 L 0.445312 17.417969 L 0.445312 1.535156 Z M 23.199219 15.609375 L 23.199219 17.417969 L 14.191406 17.417969 L 14.191406 1.535156 L 16.332031 1.535156 L 16.332031 15.609375 Z M 34.445312 11.519531 L 31.953125 5.058594 C 31.878906 4.867188 31.800781 4.644531 31.71875 4.394531 C 31.640625 4.136719 31.5625 3.863281 31.488281 3.574219 C 31.332031 4.171875 31.175781 4.671875 31.011719 5.070312 L 28.519531 11.519531 Z M 38.921875 17.417969 L 37.257812 17.417969 C 37.066406 17.417969 36.910156 17.367188 36.792969 17.273438 C 36.675781 17.175781 36.585938 17.054688 36.527344 16.90625 L 35.042969 13.070312 L 27.921875 13.070312 L 26.4375 16.90625 C 26.390625 17.039062 26.308594 17.15625 26.183594 17.261719 C 26.054688 17.363281 25.902344 17.417969 25.71875 17.417969 L 24.054688 17.417969 L 30.402344 1.535156 L 32.574219 1.535156 Z M 52.183594 14.136719 C 52.300781 14.136719 52.40625 14.183594 52.496094 14.28125 L 53.347656 15.199219 C 52.699219 15.953125 51.90625 16.542969 50.976562 16.960938 C 50.054688 17.382812 48.933594 17.59375 47.621094 17.59375 C 46.484375 17.59375 45.449219 17.398438 44.519531 17.007812 C 43.589844 16.609375 42.792969 16.054688 42.136719 15.34375 C 41.480469 14.628906 40.96875 13.769531 40.609375 12.773438 C 40.246094 11.773438 40.066406 10.679688 40.066406 9.480469 C 40.066406 8.285156 40.253906 7.1875 40.632812 6.1875 C 41.007812 5.191406 41.535156 4.335938 42.214844 3.617188 C 42.902344 2.902344 43.722656 2.347656 44.675781 1.957031 C 45.625 1.554688 46.679688 1.355469 47.832031 1.355469 C 48.960938 1.355469 49.957031 1.539062 50.820312 1.898438 C 51.6875 2.261719 52.445312 2.753906 53.105469 3.375 L 52.394531 4.359375 C 52.351562 4.433594 52.292969 4.496094 52.21875 4.550781 C 52.152344 4.59375 52.058594 4.617188 51.941406 4.617188 C 51.808594 4.617188 51.644531 4.546875 51.453125 4.40625 C 51.261719 4.257812 51.011719 4.09375 50.699219 3.917969 C 50.390625 3.738281 50.003906 3.582031 49.535156 3.441406 C 49.070312 3.292969 48.5 3.21875 47.820312 3.21875 C 47 3.21875 46.25 3.363281 45.570312 3.652344 C 44.890625 3.933594 44.304688 4.34375 43.808594 4.882812 C 43.324219 5.421875 42.941406 6.078125 42.667969 6.855469 C 42.394531 7.628906 42.257812 8.503906 42.257812 9.480469 C 42.257812 10.472656 42.398438 11.355469 42.679688 12.128906 C 42.96875 12.90625 43.355469 13.5625 43.84375 14.101562 C 44.339844 14.632812 44.917969 15.042969 45.582031 15.320312 C 46.253906 15.601562 46.976562 15.742188 47.753906 15.742188 C 48.226562 15.742188 48.652344 15.71875 49.027344 15.664062 C 49.410156 15.605469 49.761719 15.519531 50.078125 15.398438 C 50.40625 15.28125 50.703125 15.132812 50.976562 14.957031 C 51.257812 14.769531 51.535156 14.554688 51.808594 14.300781 C 51.933594 14.191406 52.058594 14.136719 52.183594 14.136719 Z M 66.074219 15.664062 L 66.0625 17.417969 L 56.28125 17.417969 L 56.28125 1.535156 L 66.0625 1.535156 L 66.0625 3.285156 L 58.429688 3.285156 L 58.429688 8.5625 L 64.613281 8.5625 L 64.613281 10.246094 L 58.429688 10.246094 L 58.429688 15.664062 Z M 86.027344 1.535156 L 86.027344 17.417969 L 84.144531 17.417969 L 84.144531 5.746094 C 84.144531 5.589844 84.148438 5.425781 84.15625 5.246094 C 84.167969 5.070312 84.183594 4.890625 84.199219 4.703125 L 78.75 14.632812 C 78.578125 14.96875 78.320312 15.132812 77.972656 15.132812 L 77.664062 15.132812 C 77.316406 15.132812 77.058594 14.96875 76.886719 14.632812 L 71.328125 4.660156 C 71.371094 5.050781 71.394531 5.414062 71.394531 5.746094 L 71.394531 17.417969 L 69.511719 17.417969 L 69.511719 1.535156 L 71.09375 1.535156 C 71.285156 1.535156 71.433594 1.550781 71.539062 1.589844 C 71.640625 1.625 71.742188 1.730469 71.835938 1.898438 L 77.320312 11.675781 C 77.410156 11.851562 77.492188 12.039062 77.574219 12.230469 C 77.664062 12.421875 77.746094 12.617188 77.820312 12.816406 C 77.894531 12.617188 77.96875 12.421875 78.050781 12.230469 C 78.132812 12.03125 78.222656 11.839844 78.316406 11.664062 L 83.699219 1.898438 C 83.789062 1.730469 83.886719 1.625 83.988281 1.589844 C 84.097656 1.550781 84.25 1.535156 84.441406 1.535156 Z M 100.320312 15.664062 L 100.308594 17.417969 L 90.527344 17.417969 L 90.527344 1.535156 L 100.308594 1.535156 L 100.308594 3.285156 L 92.675781 3.285156 L 92.675781 8.5625 L 98.859375 8.5625 L 98.859375 10.246094 L 92.675781 10.246094 L 92.675781 15.664062 Z M 116.617188 1.535156 L 116.617188 17.417969 L 115.542969 17.417969 C 115.375 17.417969 115.230469 17.386719 115.113281 17.328125 C 115 17.269531 114.890625 17.167969 114.777344 17.027344 L 105.597656 5.058594 C 105.613281 5.242188 105.621094 5.425781 105.628906 5.601562 C 105.636719 5.777344 105.640625 5.945312 105.640625 6.101562 L 105.640625 17.417969 L 103.757812 17.417969 L 103.757812 1.535156 L 104.867188 1.535156 C 104.960938 1.535156 105.042969 1.542969 105.109375 1.554688 C 105.175781 1.5625 105.234375 1.582031 105.285156 1.613281 C 105.339844 1.632812 105.390625 1.671875 105.441406 1.722656 C 105.492188 1.765625 105.546875 1.824219 105.609375 1.898438 L 114.789062 13.859375 C 114.777344 13.667969 114.761719 13.480469 114.746094 13.304688 C 114.738281 13.121094 114.734375 12.945312 114.734375 12.785156 L 114.734375 1.535156 Z M 131.851562 3.339844 L 126.710938 3.339844 L 126.710938 17.417969 L 124.574219 17.417969 L 124.574219 3.339844 L 119.425781 3.339844 L 119.425781 1.535156 L 131.851562 1.535156 Z M 142.707031 4.015625 C 142.640625 4.128906 142.566406 4.210938 142.484375 4.273438 C 142.410156 4.324219 142.316406 4.347656 142.207031 4.347656 C 142.082031 4.347656 141.933594 4.285156 141.765625 4.160156 C 141.59375 4.035156 141.378906 3.898438 141.121094 3.75 C 140.871094 3.597656 140.5625 3.457031 140.203125 3.328125 C 139.847656 3.203125 139.414062 3.140625 138.90625 3.140625 C 138.425781 3.140625 138 3.207031 137.632812 3.339844 C 137.269531 3.464844 136.964844 3.640625 136.714844 3.863281 C 136.46875 4.082031 136.285156 4.347656 136.160156 4.648438 C 136.035156 4.945312 135.972656 5.265625 135.972656 5.613281 C 135.972656 6.054688 136.078125 6.425781 136.292969 6.722656 C 136.511719 7.007812 136.800781 7.257812 137.15625 7.464844 C 137.519531 7.671875 137.925781 7.851562 138.375 8.007812 C 138.832031 8.15625 139.296875 8.308594 139.769531 8.472656 C 140.25 8.636719 140.714844 8.820312 141.164062 9.027344 C 141.625 9.226562 142.03125 9.480469 142.382812 9.792969 C 142.746094 10.101562 143.035156 10.480469 143.25 10.933594 C 143.46875 11.382812 143.582031 11.9375 143.582031 12.59375 C 143.582031 13.289062 143.460938 13.945312 143.226562 14.558594 C 142.988281 15.164062 142.644531 15.691406 142.183594 16.140625 C 141.734375 16.59375 141.175781 16.949219 140.511719 17.207031 C 139.855469 17.464844 139.105469 17.59375 138.265625 17.59375 C 137.230469 17.59375 136.292969 17.410156 135.449219 17.039062 C 134.609375 16.664062 133.886719 16.15625 133.289062 15.519531 L 133.910156 14.5 C 133.96875 14.421875 134.039062 14.355469 134.121094 14.300781 C 134.210938 14.242188 134.304688 14.214844 134.410156 14.214844 C 134.503906 14.214844 134.613281 14.253906 134.730469 14.335938 C 134.855469 14.410156 134.996094 14.503906 135.152344 14.625 C 135.304688 14.742188 135.484375 14.871094 135.683594 15.011719 C 135.882812 15.152344 136.105469 15.28125 136.359375 15.398438 C 136.617188 15.519531 136.910156 15.617188 137.234375 15.699219 C 137.558594 15.773438 137.925781 15.808594 138.332031 15.808594 C 138.839844 15.808594 139.292969 15.738281 139.691406 15.597656 C 140.089844 15.457031 140.425781 15.261719 140.699219 15.011719 C 140.980469 14.753906 141.195312 14.445312 141.34375 14.089844 C 141.492188 13.738281 141.566406 13.339844 141.566406 12.90625 C 141.566406 12.425781 141.453125 12.035156 141.230469 11.730469 C 141.019531 11.421875 140.734375 11.160156 140.378906 10.957031 C 140.023438 10.75 139.617188 10.574219 139.160156 10.433594 C 138.703125 10.285156 138.238281 10.136719 137.765625 9.992188 C 137.292969 9.835938 136.828125 9.660156 136.371094 9.457031 C 135.910156 9.257812 135.503906 9 135.152344 8.683594 C 134.796875 8.367188 134.507812 7.96875 134.289062 7.496094 C 134.074219 7.015625 133.964844 6.425781 133.964844 5.722656 C 133.964844 5.164062 134.074219 4.617188 134.289062 4.09375 C 134.507812 3.570312 134.828125 3.105469 135.238281 2.699219 C 135.660156 2.292969 136.175781 1.964844 136.78125 1.722656 C 137.390625 1.480469 138.09375 1.355469 138.882812 1.355469 C 139.769531 1.355469 140.574219 1.496094 141.296875 1.777344 C 142.03125 2.058594 142.671875 2.464844 143.226562 2.996094 Z M 142.707031 4.015625 "/>
</g>
</svg>
