<?xml version="1.0" encoding="UTF-8"?>
<svg xmlns="http://www.w3.org/2000/svg" xmlns:xlink="http://www.w3.org/1999/xlink" width="px" height="19px" viewBox="0 0 112 19" version="1.1">
<g id="surface1">
<path style=" stroke:none;fill-rule:nonzero;fill:rgb(13.72549%,13.72549%,13.72549%);fill-opacity:1;" d="M 4.828125 9.226562 C 5.445312 9.226562 5.988281 9.152344 6.460938 9.003906 C 6.941406 8.847656 7.335938 8.636719 7.652344 8.363281 C 7.976562 8.082031 8.21875 7.75 8.382812 7.363281 C 8.542969 6.980469 8.625 6.554688 8.625 6.089844 C 8.625 5.144531 8.316406 4.429688 7.699219 3.949219 C 7.078125 3.46875 6.152344 3.230469 4.914062 3.230469 L 2.574219 3.230469 L 2.574219 9.226562 Z M 12.136719 17.417969 L 10.238281 17.417969 C 9.847656 17.417969 9.558594 17.265625 9.375 16.960938 L 5.269531 11.289062 C 5.144531 11.109375 5.007812 10.984375 4.859375 10.910156 C 4.71875 10.828125 4.5 10.789062 4.199219 10.789062 L 2.574219 10.789062 L 2.574219 17.417969 L 0.441406 17.417969 L 0.441406 1.535156 L 4.914062 1.535156 C 5.917969 1.535156 6.78125 1.636719 7.511719 1.84375 C 8.238281 2.042969 8.839844 2.335938 9.308594 2.71875 C 9.789062 3.105469 10.140625 3.570312 10.371094 4.117188 C 10.597656 4.65625 10.710938 5.261719 10.710938 5.933594 C 10.710938 6.496094 10.625 7.019531 10.449219 7.507812 C 10.269531 7.996094 10.011719 8.433594 9.675781 8.828125 C 9.34375 9.210938 8.933594 9.539062 8.449219 9.8125 C 7.96875 10.085938 7.425781 10.292969 6.816406 10.433594 C 7.085938 10.589844 7.324219 10.816406 7.519531 11.109375 Z M 24.492188 15.664062 L 24.480469 17.417969 L 14.730469 17.417969 L 14.730469 1.535156 L 24.480469 1.535156 L 24.480469 3.285156 L 16.871094 3.285156 L 16.871094 8.5625 L 23.035156 8.5625 L 23.035156 10.246094 L 16.871094 10.246094 L 16.871094 15.664062 Z M 36.011719 4.015625 C 35.945312 4.128906 35.871094 4.210938 35.792969 4.273438 C 35.71875 4.324219 35.625 4.347656 35.515625 4.347656 C 35.390625 4.347656 35.242188 4.285156 35.074219 4.160156 C 34.90625 4.035156 34.691406 3.898438 34.433594 3.75 C 34.183594 3.597656 33.878906 3.457031 33.515625 3.328125 C 33.164062 3.203125 32.734375 3.140625 32.226562 3.140625 C 31.746094 3.140625 31.324219 3.207031 30.957031 3.339844 C 30.59375 3.464844 30.289062 3.640625 30.039062 3.863281 C 29.796875 4.082031 29.613281 4.347656 29.488281 4.648438 C 29.363281 4.945312 29.300781 5.265625 29.300781 5.613281 C 29.300781 6.054688 29.40625 6.425781 29.617188 6.722656 C 29.839844 7.007812 30.128906 7.257812 30.480469 7.464844 C 30.839844 7.671875 31.246094 7.851562 31.695312 8.007812 C 32.152344 8.15625 32.617188 8.308594 33.085938 8.472656 C 33.566406 8.636719 34.027344 8.820312 34.476562 9.027344 C 34.933594 9.226562 35.339844 9.480469 35.691406 9.792969 C 36.054688 10.101562 36.339844 10.480469 36.554688 10.933594 C 36.773438 11.382812 36.886719 11.9375 36.886719 12.59375 C 36.886719 13.289062 36.765625 13.945312 36.53125 14.558594 C 36.296875 15.164062 35.949219 15.691406 35.492188 16.140625 C 35.042969 16.59375 34.488281 16.949219 33.828125 17.207031 C 33.171875 17.464844 32.425781 17.59375 31.585938 17.59375 C 30.554688 17.59375 29.617188 17.410156 28.78125 17.039062 C 27.941406 16.664062 27.222656 16.15625 26.625 15.519531 L 27.246094 14.5 C 27.304688 14.421875 27.375 14.355469 27.453125 14.300781 C 27.542969 14.242188 27.640625 14.214844 27.742188 14.214844 C 27.835938 14.214844 27.945312 14.253906 28.0625 14.335938 C 28.1875 14.410156 28.328125 14.503906 28.480469 14.625 C 28.636719 14.742188 28.8125 14.871094 29.011719 15.011719 C 29.210938 15.152344 29.433594 15.28125 29.683594 15.398438 C 29.941406 15.519531 30.234375 15.617188 30.558594 15.699219 C 30.882812 15.773438 31.246094 15.808594 31.652344 15.808594 C 32.160156 15.808594 32.613281 15.738281 33.007812 15.597656 C 33.40625 15.457031 33.742188 15.261719 34.015625 15.011719 C 34.292969 14.753906 34.507812 14.445312 34.65625 14.089844 C 34.800781 13.738281 34.875 13.339844 34.875 12.90625 C 34.875 12.425781 34.765625 12.035156 34.542969 11.730469 C 34.332031 11.421875 34.046875 11.160156 33.695312 10.957031 C 33.339844 10.75 32.9375 10.574219 32.480469 10.433594 C 32.023438 10.285156 31.558594 10.136719 31.085938 9.992188 C 30.617188 9.835938 30.152344 9.660156 29.695312 9.457031 C 29.238281 9.257812 28.835938 9 28.480469 8.683594 C 28.128906 8.367188 27.839844 7.96875 27.621094 7.496094 C 27.40625 7.015625 27.300781 6.425781 27.300781 5.722656 C 27.300781 5.164062 27.40625 4.617188 27.621094 4.09375 C 27.839844 3.570312 28.15625 3.105469 28.570312 2.699219 C 28.988281 2.292969 29.5 1.964844 30.105469 1.722656 C 30.714844 1.480469 31.414062 1.355469 32.203125 1.355469 C 33.085938 1.355469 33.890625 1.496094 34.609375 1.777344 C 35.339844 2.058594 35.980469 2.464844 36.53125 2.996094 Z M 50.113281 15.664062 L 50.101562 17.417969 L 40.351562 17.417969 L 40.351562 1.535156 L 50.101562 1.535156 L 50.101562 3.285156 L 42.492188 3.285156 L 42.492188 8.5625 L 48.65625 8.5625 L 48.65625 10.246094 L 42.492188 10.246094 L 42.492188 15.664062 Z M 61.941406 11.519531 L 59.457031 5.058594 C 59.382812 4.867188 59.308594 4.644531 59.226562 4.394531 C 59.144531 4.136719 59.066406 3.863281 58.996094 3.574219 C 58.839844 4.171875 58.679688 4.671875 58.519531 5.070312 L 56.035156 11.519531 Z M 66.402344 17.417969 L 64.746094 17.417969 C 64.554688 17.417969 64.402344 17.367188 64.285156 17.273438 C 64.164062 17.175781 64.078125 17.054688 64.019531 16.90625 L 62.539062 13.070312 L 55.4375 13.070312 L 53.957031 16.90625 C 53.914062 17.039062 53.828125 17.15625 53.703125 17.261719 C 53.578125 17.363281 53.425781 17.417969 53.242188 17.417969 L 51.585938 17.417969 L 57.910156 1.535156 L 60.078125 1.535156 Z M 73.3125 9.226562 C 73.929688 9.226562 74.472656 9.152344 74.945312 9.003906 C 75.421875 8.847656 75.820312 8.636719 76.136719 8.363281 C 76.460938 8.082031 76.703125 7.75 76.867188 7.363281 C 77.027344 6.980469 77.109375 6.554688 77.109375 6.089844 C 77.109375 5.144531 76.800781 4.429688 76.179688 3.949219 C 75.5625 3.46875 74.636719 3.230469 73.398438 3.230469 L 71.058594 3.230469 L 71.058594 9.226562 Z M 80.621094 17.417969 L 78.722656 17.417969 C 78.332031 17.417969 78.042969 17.265625 77.859375 16.960938 L 73.753906 11.289062 C 73.628906 11.109375 73.492188 10.984375 73.34375 10.910156 C 73.203125 10.828125 72.984375 10.789062 72.679688 10.789062 L 71.058594 10.789062 L 71.058594 17.417969 L 68.925781 17.417969 L 68.925781 1.535156 L 73.398438 1.535156 C 74.398438 1.535156 75.265625 1.636719 75.992188 1.84375 C 76.722656 2.042969 77.324219 2.335938 77.792969 2.71875 C 78.273438 3.105469 78.625 3.570312 78.855469 4.117188 C 79.082031 4.65625 79.195312 5.261719 79.195312 5.933594 C 79.195312 6.496094 79.109375 7.019531 78.929688 7.507812 C 78.753906 7.996094 78.496094 8.433594 78.15625 8.828125 C 77.828125 9.210938 77.417969 9.539062 76.933594 9.8125 C 76.453125 10.085938 75.910156 10.292969 75.296875 10.433594 C 75.570312 10.589844 75.804688 10.816406 76.003906 11.109375 Z M 94.171875 14.136719 C 94.289062 14.136719 94.394531 14.183594 94.480469 14.28125 L 95.332031 15.199219 C 94.683594 15.953125 93.894531 16.542969 92.96875 16.960938 C 92.046875 17.382812 90.933594 17.59375 89.621094 17.59375 C 88.488281 17.59375 87.457031 17.398438 86.53125 17.007812 C 85.601562 16.609375 84.8125 16.054688 84.15625 15.34375 C 83.5 14.628906 82.992188 13.769531 82.632812 12.773438 C 82.273438 11.773438 82.089844 10.679688 82.089844 9.480469 C 82.089844 8.285156 82.28125 7.1875 82.65625 6.1875 C 83.03125 5.191406 83.558594 4.335938 84.234375 3.617188 C 84.917969 2.902344 85.734375 2.347656 86.683594 1.957031 C 87.636719 1.554688 88.683594 1.355469 89.832031 1.355469 C 90.957031 1.355469 91.953125 1.539062 92.8125 1.898438 C 93.675781 2.261719 94.433594 2.753906 95.089844 3.375 L 94.382812 4.359375 C 94.335938 4.433594 94.277344 4.496094 94.207031 4.550781 C 94.140625 4.59375 94.046875 4.617188 93.929688 4.617188 C 93.796875 4.617188 93.632812 4.546875 93.441406 4.40625 C 93.25 4.257812 93 4.09375 92.691406 3.917969 C 92.382812 3.738281 91.996094 3.582031 91.53125 3.441406 C 91.070312 3.292969 90.5 3.21875 89.820312 3.21875 C 89.003906 3.21875 88.257812 3.363281 87.578125 3.652344 C 86.902344 3.933594 86.316406 4.34375 85.824219 4.882812 C 85.339844 5.421875 84.960938 6.078125 84.6875 6.855469 C 84.414062 7.628906 84.277344 8.503906 84.277344 9.480469 C 84.277344 10.472656 84.417969 11.355469 84.699219 12.128906 C 84.984375 12.90625 85.371094 13.5625 85.855469 14.101562 C 86.351562 14.632812 86.929688 15.042969 87.589844 15.320312 C 88.261719 15.601562 88.980469 15.742188 89.753906 15.742188 C 90.226562 15.742188 90.648438 15.71875 91.023438 15.664062 C 91.40625 15.605469 91.757812 15.519531 92.074219 15.398438 C 92.398438 15.28125 92.695312 15.132812 92.96875 14.957031 C 93.246094 14.769531 93.523438 14.554688 93.796875 14.300781 C 93.921875 14.191406 94.046875 14.136719 94.171875 14.136719 Z M 111.078125 1.535156 L 111.078125 17.417969 L 108.933594 17.417969 L 108.933594 10.191406 L 100.398438 10.191406 L 100.398438 17.417969 L 98.257812 17.417969 L 98.257812 1.535156 L 100.398438 1.535156 L 100.398438 8.617188 L 108.933594 8.617188 L 108.933594 1.535156 Z M 111.078125 1.535156 "/>
</g>
</svg>
