<?xml version="1.0" encoding="UTF-8"?>
<svg xmlns="http://www.w3.org/2000/svg" xmlns:xlink="http://www.w3.org/1999/xlink" width="px" height="19px" viewBox="0 0 128 19" version="1.1">
<g id="surface1">
<path style=" stroke:none;fill-rule:nonzero;fill:rgb(13.72549%,13.72549%,13.72549%);fill-opacity:1;" d="M 4.835938 9.226562 C 5.453125 9.226562 6 9.152344 6.472656 9.003906 C 6.953125 8.847656 7.351562 8.636719 7.667969 8.363281 C 7.992188 8.082031 8.234375 7.75 8.398438 7.363281 C 8.558594 6.980469 8.640625 6.554688 8.640625 6.089844 C 8.640625 5.144531 8.332031 4.429688 7.710938 3.949219 C 7.09375 3.46875 6.164062 3.230469 4.925781 3.230469 L 2.578125 3.230469 L 2.578125 9.226562 Z M 12.160156 17.417969 L 10.253906 17.417969 C 9.863281 17.417969 9.578125 17.265625 9.394531 16.960938 L 5.277344 11.289062 C 5.152344 11.109375 5.015625 10.984375 4.867188 10.910156 C 4.730469 10.828125 4.507812 10.789062 4.203125 10.789062 L 2.578125 10.789062 L 2.578125 17.417969 L 0.445312 17.417969 L 0.445312 1.535156 L 4.925781 1.535156 C 5.925781 1.535156 6.792969 1.636719 7.523438 1.84375 C 8.253906 2.042969 8.855469 2.335938 9.328125 2.71875 C 9.804688 3.105469 10.160156 3.570312 10.386719 4.117188 C 10.617188 4.65625 10.730469 5.261719 10.730469 5.933594 C 10.730469 6.496094 10.644531 7.019531 10.464844 7.507812 C 10.289062 7.996094 10.03125 8.433594 9.691406 8.828125 C 9.359375 9.210938 8.949219 9.539062 8.464844 9.8125 C 7.984375 10.085938 7.4375 10.292969 6.828125 10.433594 C 7.097656 10.589844 7.335938 10.816406 7.535156 11.109375 Z M 24.535156 15.664062 L 24.523438 17.417969 L 14.757812 17.417969 L 14.757812 1.535156 L 24.523438 1.535156 L 24.523438 3.285156 L 16.902344 3.285156 L 16.902344 8.5625 L 23.074219 8.5625 L 23.074219 10.246094 L 16.902344 10.246094 L 16.902344 15.664062 Z M 36.074219 4.015625 C 36.007812 4.128906 35.9375 4.210938 35.855469 4.273438 C 35.78125 4.324219 35.6875 4.347656 35.578125 4.347656 C 35.453125 4.347656 35.304688 4.285156 35.136719 4.160156 C 34.964844 4.035156 34.753906 3.898438 34.496094 3.75 C 34.242188 3.597656 33.9375 3.457031 33.574219 3.328125 C 33.222656 3.203125 32.789062 3.140625 32.28125 3.140625 C 31.800781 3.140625 31.378906 3.207031 31.011719 3.339844 C 30.648438 3.464844 30.34375 3.640625 30.089844 3.863281 C 29.847656 4.082031 29.664062 4.347656 29.539062 4.648438 C 29.414062 4.945312 29.351562 5.265625 29.351562 5.613281 C 29.351562 6.054688 29.457031 6.425781 29.671875 6.722656 C 29.894531 7.007812 30.179688 7.257812 30.535156 7.464844 C 30.894531 7.671875 31.300781 7.851562 31.75 8.007812 C 32.207031 8.15625 32.671875 8.308594 33.144531 8.472656 C 33.625 8.636719 34.089844 8.820312 34.539062 9.027344 C 34.996094 9.226562 35.402344 9.480469 35.753906 9.792969 C 36.117188 10.101562 36.40625 10.480469 36.617188 10.933594 C 36.839844 11.382812 36.949219 11.9375 36.949219 12.59375 C 36.949219 13.289062 36.832031 13.945312 36.597656 14.558594 C 36.359375 15.164062 36.011719 15.691406 35.554688 16.140625 C 35.105469 16.59375 34.550781 16.949219 33.886719 17.207031 C 33.230469 17.464844 32.480469 17.59375 31.640625 17.59375 C 30.609375 17.59375 29.671875 17.410156 28.832031 17.039062 C 27.988281 16.664062 27.269531 16.15625 26.671875 15.519531 L 27.292969 14.5 C 27.351562 14.421875 27.421875 14.355469 27.503906 14.300781 C 27.589844 14.242188 27.6875 14.214844 27.789062 14.214844 C 27.886719 14.214844 27.992188 14.253906 28.113281 14.335938 C 28.238281 14.410156 28.378906 14.503906 28.53125 14.625 C 28.6875 14.742188 28.863281 14.871094 29.0625 15.011719 C 29.261719 15.152344 29.488281 15.28125 29.738281 15.398438 C 29.996094 15.519531 30.289062 15.617188 30.613281 15.699219 C 30.9375 15.773438 31.300781 15.808594 31.707031 15.808594 C 32.214844 15.808594 32.667969 15.738281 33.066406 15.597656 C 33.464844 15.457031 33.800781 15.261719 34.074219 15.011719 C 34.355469 14.753906 34.566406 14.445312 34.714844 14.089844 C 34.863281 13.738281 34.9375 13.339844 34.9375 12.90625 C 34.9375 12.425781 34.824219 12.035156 34.605469 11.730469 C 34.390625 11.421875 34.105469 11.160156 33.753906 10.957031 C 33.398438 10.75 32.992188 10.574219 32.535156 10.433594 C 32.078125 10.285156 31.613281 10.136719 31.140625 9.992188 C 30.671875 9.835938 30.207031 9.660156 29.75 9.457031 C 29.292969 9.257812 28.886719 9 28.53125 8.683594 C 28.179688 8.367188 27.890625 7.96875 27.667969 7.496094 C 27.457031 7.015625 27.347656 6.425781 27.347656 5.722656 C 27.347656 5.164062 27.457031 4.617188 27.667969 4.09375 C 27.890625 3.570312 28.207031 3.105469 28.621094 2.699219 C 29.039062 2.292969 29.554688 1.964844 30.15625 1.722656 C 30.769531 1.480469 31.472656 1.355469 32.261719 1.355469 C 33.144531 1.355469 33.949219 1.496094 34.671875 1.777344 C 35.402344 2.058594 36.042969 2.464844 36.597656 2.996094 Z M 55.070312 9.480469 C 55.070312 10.671875 54.878906 11.765625 54.503906 12.761719 C 54.128906 13.75 53.597656 14.605469 52.910156 15.320312 C 52.226562 16.039062 51.398438 16.597656 50.433594 16.996094 C 49.476562 17.386719 48.414062 17.582031 47.246094 17.582031 C 46.082031 17.582031 45.019531 17.386719 44.0625 16.996094 C 43.101562 16.597656 42.28125 16.039062 41.59375 15.320312 C 40.910156 14.605469 40.378906 13.75 40.003906 12.761719 C 39.625 11.765625 39.4375 10.671875 39.4375 9.480469 C 39.4375 8.292969 39.625 7.203125 40.003906 6.210938 C 40.378906 5.214844 40.910156 4.355469 41.59375 3.640625 C 42.28125 2.914062 43.101562 2.355469 44.0625 1.957031 C 45.019531 1.554688 46.082031 1.355469 47.246094 1.355469 C 48.414062 1.355469 49.476562 1.554688 50.433594 1.957031 C 51.398438 2.355469 52.226562 2.914062 52.910156 3.640625 C 53.597656 4.355469 54.128906 5.214844 54.503906 6.210938 C 54.878906 7.203125 55.070312 8.292969 55.070312 9.480469 Z M 52.867188 9.480469 C 52.867188 8.503906 52.734375 7.628906 52.46875 6.855469 C 52.203125 6.078125 51.828125 5.425781 51.339844 4.890625 C 50.855469 4.351562 50.265625 3.9375 49.570312 3.652344 C 48.878906 3.363281 48.101562 3.21875 47.246094 3.21875 C 46.398438 3.21875 45.628906 3.363281 44.9375 3.652344 C 44.242188 3.9375 43.648438 4.351562 43.15625 4.890625 C 42.667969 5.425781 42.292969 6.078125 42.027344 6.855469 C 41.761719 7.628906 41.628906 8.503906 41.628906 9.480469 C 41.628906 10.457031 41.761719 11.332031 42.027344 12.109375 C 42.292969 12.875 42.667969 13.53125 43.15625 14.070312 C 43.648438 14.601562 44.242188 15.011719 44.9375 15.300781 C 45.628906 15.582031 46.398438 15.722656 47.246094 15.722656 C 48.101562 15.722656 48.878906 15.582031 49.570312 15.300781 C 50.265625 15.011719 50.855469 14.601562 51.339844 14.070312 C 51.828125 13.53125 52.203125 12.875 52.46875 12.109375 C 52.734375 11.332031 52.867188 10.457031 52.867188 9.480469 Z M 64.699219 15.710938 C 65.355469 15.710938 65.941406 15.597656 66.457031 15.378906 C 66.972656 15.15625 67.410156 14.84375 67.761719 14.445312 C 68.125 14.046875 68.398438 13.570312 68.582031 13.015625 C 68.773438 12.460938 68.867188 11.851562 68.867188 11.1875 L 68.867188 1.535156 L 71.003906 1.535156 L 71.003906 11.1875 C 71.003906 12.105469 70.855469 12.953125 70.5625 13.738281 C 70.273438 14.519531 69.855469 15.199219 69.3125 15.777344 C 68.773438 16.34375 68.113281 16.792969 67.332031 17.117188 C 66.550781 17.441406 65.671875 17.605469 64.699219 17.605469 C 63.726562 17.605469 62.847656 17.441406 62.066406 17.117188 C 61.285156 16.792969 60.621094 16.34375 60.074219 15.777344 C 59.527344 15.199219 59.109375 14.519531 58.8125 13.738281 C 58.527344 12.953125 58.382812 12.105469 58.382812 11.1875 L 58.382812 1.535156 L 60.515625 1.535156 L 60.515625 11.175781 C 60.515625 11.839844 60.609375 12.453125 60.792969 13.003906 C 60.984375 13.558594 61.257812 14.035156 61.613281 14.433594 C 61.972656 14.835938 62.414062 15.148438 62.929688 15.378906 C 63.453125 15.597656 64.042969 15.710938 64.699219 15.710938 Z M 79.683594 9.226562 C 80.304688 9.226562 80.847656 9.152344 81.320312 9.003906 C 81.800781 8.847656 82.199219 8.636719 82.515625 8.363281 C 82.839844 8.082031 83.082031 7.75 83.246094 7.363281 C 83.40625 6.980469 83.488281 6.554688 83.488281 6.089844 C 83.488281 5.144531 83.179688 4.429688 82.558594 3.949219 C 81.941406 3.46875 81.011719 3.230469 79.773438 3.230469 L 77.425781 3.230469 L 77.425781 9.226562 Z M 87.007812 17.417969 L 85.105469 17.417969 C 84.714844 17.417969 84.425781 17.265625 84.242188 16.960938 L 80.125 11.289062 C 80 11.109375 79.863281 10.984375 79.71875 10.910156 C 79.578125 10.828125 79.355469 10.789062 79.054688 10.789062 L 77.425781 10.789062 L 77.425781 17.417969 L 75.292969 17.417969 L 75.292969 1.535156 L 79.773438 1.535156 C 80.773438 1.535156 81.640625 1.636719 82.371094 1.84375 C 83.101562 2.042969 83.703125 2.335938 84.175781 2.71875 C 84.652344 3.105469 85.007812 3.570312 85.238281 4.117188 C 85.464844 4.65625 85.578125 5.261719 85.578125 5.933594 C 85.578125 6.496094 85.492188 7.019531 85.3125 7.507812 C 85.136719 7.996094 84.878906 8.433594 84.539062 8.828125 C 84.207031 9.210938 83.796875 9.539062 83.3125 9.8125 C 82.832031 10.085938 82.285156 10.292969 81.675781 10.433594 C 81.949219 10.589844 82.183594 10.816406 82.382812 11.109375 Z M 100.582031 14.136719 C 100.699219 14.136719 100.804688 14.183594 100.890625 14.28125 L 101.742188 15.199219 C 101.09375 15.953125 100.304688 16.542969 99.375 16.960938 C 98.453125 17.382812 97.335938 17.59375 96.023438 17.59375 C 94.890625 17.59375 93.855469 17.398438 92.925781 17.007812 C 91.996094 16.609375 91.207031 16.054688 90.550781 15.34375 C 89.894531 14.628906 89.382812 13.769531 89.023438 12.773438 C 88.660156 11.773438 88.480469 10.679688 88.480469 9.480469 C 88.480469 8.285156 88.667969 7.1875 89.042969 6.1875 C 89.421875 5.191406 89.949219 4.335938 90.625 3.617188 C 91.3125 2.902344 92.128906 2.347656 93.082031 1.957031 C 94.035156 1.554688 95.085938 1.355469 96.234375 1.355469 C 97.363281 1.355469 98.359375 1.539062 99.222656 1.898438 C 100.085938 2.261719 100.84375 2.753906 101.5 3.375 L 100.792969 4.359375 C 100.746094 4.433594 100.6875 4.496094 100.613281 4.550781 C 100.546875 4.59375 100.457031 4.617188 100.339844 4.617188 C 100.207031 4.617188 100.042969 4.546875 99.851562 4.40625 C 99.660156 4.257812 99.410156 4.09375 99.101562 3.917969 C 98.789062 3.738281 98.402344 3.582031 97.9375 3.441406 C 97.472656 3.292969 96.902344 3.21875 96.222656 3.21875 C 95.40625 3.21875 94.65625 3.363281 93.976562 3.652344 C 93.300781 3.933594 92.714844 4.34375 92.21875 4.882812 C 91.734375 5.421875 91.351562 6.078125 91.078125 6.855469 C 90.808594 7.628906 90.671875 8.503906 90.671875 9.480469 C 90.671875 10.472656 90.8125 11.355469 91.089844 12.128906 C 91.378906 12.90625 91.765625 13.5625 92.253906 14.101562 C 92.746094 14.632812 93.324219 15.042969 93.988281 15.320312 C 94.660156 15.601562 95.382812 15.742188 96.15625 15.742188 C 96.628906 15.742188 97.054688 15.71875 97.429688 15.664062 C 97.8125 15.605469 98.164062 15.519531 98.480469 15.398438 C 98.804688 15.28125 99.101562 15.132812 99.375 14.957031 C 99.65625 14.769531 99.933594 14.554688 100.207031 14.300781 C 100.332031 14.191406 100.457031 14.136719 100.582031 14.136719 Z M 114.453125 15.664062 L 114.441406 17.417969 L 104.675781 17.417969 L 104.675781 1.535156 L 114.441406 1.535156 L 114.441406 3.285156 L 106.820312 3.285156 L 106.820312 8.5625 L 112.992188 8.5625 L 112.992188 10.246094 L 106.820312 10.246094 L 106.820312 15.664062 Z M 125.992188 4.015625 C 125.925781 4.128906 125.851562 4.210938 125.773438 4.273438 C 125.699219 4.324219 125.605469 4.347656 125.496094 4.347656 C 125.371094 4.347656 125.222656 4.285156 125.054688 4.160156 C 124.882812 4.035156 124.667969 3.898438 124.410156 3.75 C 124.160156 3.597656 123.855469 3.457031 123.492188 3.328125 C 123.140625 3.203125 122.707031 3.140625 122.199219 3.140625 C 121.71875 3.140625 121.296875 3.207031 120.925781 3.339844 C 120.566406 3.464844 120.257812 3.640625 120.007812 3.863281 C 119.765625 4.082031 119.582031 4.347656 119.457031 4.648438 C 119.332031 4.945312 119.269531 5.265625 119.269531 5.613281 C 119.269531 6.054688 119.375 6.425781 119.589844 6.722656 C 119.808594 7.007812 120.097656 7.257812 120.453125 7.464844 C 120.8125 7.671875 121.21875 7.851562 121.667969 8.007812 C 122.125 8.15625 122.589844 8.308594 123.0625 8.472656 C 123.542969 8.636719 124.007812 8.820312 124.457031 9.027344 C 124.914062 9.226562 125.320312 9.480469 125.671875 9.792969 C 126.035156 10.101562 126.320312 10.480469 126.535156 10.933594 C 126.757812 11.382812 126.867188 11.9375 126.867188 12.59375 C 126.867188 13.289062 126.75 13.945312 126.511719 14.558594 C 126.277344 15.164062 125.929688 15.691406 125.472656 16.140625 C 125.023438 16.59375 124.464844 16.949219 123.804688 17.207031 C 123.148438 17.464844 122.398438 17.59375 121.558594 17.59375 C 120.523438 17.59375 119.589844 17.410156 118.746094 17.039062 C 117.90625 16.664062 117.1875 16.15625 116.589844 15.519531 L 117.210938 14.5 C 117.269531 14.421875 117.339844 14.355469 117.421875 14.300781 C 117.507812 14.242188 117.605469 14.214844 117.707031 14.214844 C 117.804688 14.214844 117.910156 14.253906 118.027344 14.335938 C 118.152344 14.410156 118.292969 14.503906 118.449219 14.625 C 118.605469 14.742188 118.78125 14.871094 118.980469 15.011719 C 119.179688 15.152344 119.402344 15.28125 119.65625 15.398438 C 119.914062 15.519531 120.203125 15.617188 120.527344 15.699219 C 120.851562 15.773438 121.21875 15.808594 121.625 15.808594 C 122.132812 15.808594 122.585938 15.738281 122.984375 15.597656 C 123.382812 15.457031 123.71875 15.261719 123.992188 15.011719 C 124.269531 14.753906 124.484375 14.445312 124.632812 14.089844 C 124.78125 13.738281 124.855469 13.339844 124.855469 12.90625 C 124.855469 12.425781 124.742188 12.035156 124.523438 11.730469 C 124.308594 11.421875 124.023438 11.160156 123.671875 10.957031 C 123.316406 10.75 122.910156 10.574219 122.453125 10.433594 C 121.996094 10.285156 121.53125 10.136719 121.058594 9.992188 C 120.585938 9.835938 120.125 9.660156 119.664062 9.457031 C 119.207031 9.257812 118.804688 9 118.449219 8.683594 C 118.09375 8.367188 117.808594 7.96875 117.585938 7.496094 C 117.371094 7.015625 117.265625 6.425781 117.265625 5.722656 C 117.265625 5.164062 117.371094 4.617188 117.585938 4.09375 C 117.808594 3.570312 118.125 3.105469 118.539062 2.699219 C 118.957031 2.292969 119.46875 1.964844 120.074219 1.722656 C 120.6875 1.480469 121.386719 1.355469 122.175781 1.355469 C 123.0625 1.355469 123.867188 1.496094 124.589844 1.777344 C 125.320312 2.058594 125.960938 2.464844 126.511719 2.996094 Z M 125.992188 4.015625 "/>
</g>
</svg>
