<svg width="83" height="12" viewBox="0 0 83 12" fill="none" xmlns="http://www.w3.org/2000/svg">
<path d="M6.608 7.276L5.033 3.195C4.98633 3.07367 4.93733 2.93367 4.886 2.775C4.83467 2.61167 4.78567 2.439 4.739 2.257C4.641 2.635 4.54067 2.95 4.438 3.202L2.863 7.276H6.608ZM9.436 11H8.386C8.26467 11 8.16667 10.9697 8.092 10.909C8.01733 10.8483 7.96133 10.7713 7.924 10.678L6.986 8.256H2.485L1.547 10.678C1.519 10.762 1.46533 10.8367 1.386 10.902C1.30667 10.9673 1.20867 11 1.092 11H0.042L4.053 0.968999H5.425L9.436 11ZM17.8178 8.928C17.8925 8.928 17.9578 8.95833 18.0138 9.019L18.5528 9.6C18.1422 10.076 17.6428 10.447 17.0548 10.713C16.4715 10.979 15.7645 11.112 14.9338 11.112C14.2152 11.112 13.5618 10.9883 12.9738 10.741C12.3858 10.489 11.8842 10.139 11.4688 9.691C11.0535 9.23833 10.7315 8.697 10.5028 8.067C10.2742 7.437 10.1598 6.744 10.1598 5.988C10.1598 5.232 10.2788 4.539 10.5168 3.909C10.7548 3.279 11.0885 2.73767 11.5178 2.285C11.9518 1.83233 12.4698 1.48233 13.0718 1.235C13.6738 0.982999 14.3388 0.856999 15.0668 0.856999C15.7808 0.856999 16.4108 0.971333 16.9568 1.2C17.5028 1.42867 17.9835 1.739 18.3988 2.131L17.9508 2.754C17.9228 2.80067 17.8855 2.84033 17.8388 2.873C17.7968 2.901 17.7385 2.915 17.6638 2.915C17.5798 2.915 17.4772 2.87067 17.3558 2.782C17.2345 2.68867 17.0758 2.586 16.8798 2.474C16.6838 2.362 16.4388 2.26167 16.1448 2.173C15.8508 2.07967 15.4892 2.033 15.0598 2.033C14.5418 2.033 14.0682 2.124 13.6388 2.306C13.2095 2.48333 12.8385 2.74233 12.5258 3.083C12.2178 3.42367 11.9775 3.839 11.8048 4.329C11.6322 4.819 11.5458 5.372 11.5458 5.988C11.5458 6.61333 11.6345 7.171 11.8118 7.661C11.9938 8.151 12.2388 8.56633 12.5468 8.907C12.8595 9.243 13.2258 9.49967 13.6458 9.677C14.0705 9.85433 14.5278 9.943 15.0178 9.943C15.3165 9.943 15.5848 9.92667 15.8228 9.894C16.0655 9.85667 16.2872 9.80067 16.4878 9.726C16.6932 9.65133 16.8822 9.558 17.0548 9.446C17.2322 9.32933 17.4072 9.19167 17.5798 9.033C17.6592 8.963 17.7385 8.928 17.8178 8.928ZM25.7344 7.276L24.1594 3.195C24.1127 3.07367 24.0637 2.93367 24.0124 2.775C23.9611 2.61167 23.9121 2.439 23.8654 2.257C23.7674 2.635 23.6671 2.95 23.5644 3.202L21.9894 7.276H25.7344ZM28.5624 11H27.5124C27.3911 11 27.2931 10.9697 27.2184 10.909C27.1437 10.8483 27.0877 10.7713 27.0504 10.678L26.1124 8.256H21.6114L20.6734 10.678C20.6454 10.762 20.5917 10.8367 20.5124 10.902C20.4331 10.9673 20.3351 11 20.2184 11H19.1684L23.1794 0.968999H24.5514L28.5624 11ZM38.856 5.988C38.856 6.73933 38.737 7.423 38.499 8.039C38.261 8.655 37.925 9.18233 37.491 9.621C37.057 10.0597 36.5343 10.4003 35.923 10.643C35.3163 10.881 34.6443 11 33.907 11H30.162V0.968999H33.907C34.6443 0.968999 35.3163 1.09033 35.923 1.333C36.5343 1.571 37.057 1.91167 37.491 2.355C37.925 2.79367 38.261 3.321 38.499 3.937C38.737 4.553 38.856 5.23667 38.856 5.988ZM37.463 5.988C37.463 5.372 37.379 4.82133 37.211 4.336C37.043 3.85067 36.805 3.44 36.497 3.104C36.189 2.768 35.8157 2.51133 35.377 2.334C34.9383 2.15667 34.4483 2.068 33.907 2.068H31.52V9.901H33.907C34.4483 9.901 34.9383 9.81233 35.377 9.635C35.8157 9.45767 36.189 9.20333 36.497 8.872C36.805 8.536 37.043 8.12533 37.211 7.64C37.379 7.15467 37.463 6.604 37.463 5.988ZM47.2804 9.894L47.2734 11H41.0924V0.968999H47.2734V2.075H42.4504V5.407H46.3564V6.471H42.4504V9.894H47.2804ZM59.8895 0.968999V11H58.6995V3.629C58.6995 3.531 58.7018 3.426 58.7065 3.314C58.7158 3.202 58.7252 3.08767 58.7345 2.971L55.2905 9.243C55.1832 9.453 55.0198 9.558 54.8005 9.558H54.6045C54.3852 9.558 54.2218 9.453 54.1145 9.243L50.6005 2.943C50.6285 3.19033 50.6425 3.419 50.6425 3.629V11H49.4525V0.968999H50.4535C50.5748 0.968999 50.6682 0.980666 50.7335 1.004C50.7988 1.02733 50.8618 1.09267 50.9225 1.2L54.3875 7.374C54.4435 7.486 54.4972 7.60267 54.5485 7.724C54.6045 7.84533 54.6558 7.969 54.7025 8.095C54.7492 7.969 54.7982 7.84533 54.8495 7.724C54.9008 7.598 54.9568 7.479 55.0175 7.367L58.4195 1.2C58.4755 1.09267 58.5362 1.02733 58.6015 1.004C58.6715 0.980666 58.7672 0.968999 58.8885 0.968999H59.8895ZM64.0924 11H62.7344V0.968999H64.0924V11ZM73.9803 8.928C74.0549 8.928 74.1203 8.95833 74.1763 9.019L74.7153 9.6C74.3046 10.076 73.8053 10.447 73.2173 10.713C72.6339 10.979 71.9269 11.112 71.0963 11.112C70.3776 11.112 69.7243 10.9883 69.1363 10.741C68.5483 10.489 68.0466 10.139 67.6313 9.691C67.2159 9.23833 66.8939 8.697 66.6653 8.067C66.4366 7.437 66.3223 6.744 66.3223 5.988C66.3223 5.232 66.4413 4.539 66.6793 3.909C66.9173 3.279 67.2509 2.73767 67.6803 2.285C68.1143 1.83233 68.6323 1.48233 69.2343 1.235C69.8363 0.982999 70.5013 0.856999 71.2293 0.856999C71.9433 0.856999 72.5733 0.971333 73.1193 1.2C73.6653 1.42867 74.1459 1.739 74.5613 2.131L74.1133 2.754C74.0853 2.80067 74.0479 2.84033 74.0013 2.873C73.9593 2.901 73.9009 2.915 73.8263 2.915C73.7423 2.915 73.6396 2.87067 73.5183 2.782C73.3969 2.68867 73.2383 2.586 73.0423 2.474C72.8463 2.362 72.6013 2.26167 72.3073 2.173C72.0133 2.07967 71.6516 2.033 71.2223 2.033C70.7043 2.033 70.2306 2.124 69.8013 2.306C69.3719 2.48333 69.0009 2.74233 68.6883 3.083C68.3803 3.42367 68.1399 3.839 67.9673 4.329C67.7946 4.819 67.7083 5.372 67.7083 5.988C67.7083 6.61333 67.7969 7.171 67.9743 7.661C68.1563 8.151 68.4013 8.56633 68.7093 8.907C69.0219 9.243 69.3883 9.49967 69.8083 9.677C70.2329 9.85433 70.6903 9.943 71.1803 9.943C71.4789 9.943 71.7473 9.92667 71.9853 9.894C72.2279 9.85667 72.4496 9.80067 72.6503 9.726C72.8556 9.65133 73.0446 9.558 73.2173 9.446C73.3946 9.32933 73.5696 9.19167 73.7423 9.033C73.8216 8.963 73.9009 8.928 73.9803 8.928ZM81.7008 2.537C81.6588 2.607 81.6122 2.66067 81.5608 2.698C81.5142 2.73067 81.4558 2.747 81.3858 2.747C81.3065 2.747 81.2132 2.70733 81.1058 2.628C80.9985 2.54867 80.8632 2.46233 80.6998 2.369C80.5412 2.271 80.3475 2.18233 80.1188 2.103C79.8948 2.02367 79.6218 1.984 79.2998 1.984C78.9965 1.984 78.7282 2.026 78.4948 2.11C78.2662 2.18933 78.0725 2.299 77.9138 2.439C77.7598 2.579 77.6432 2.74467 77.5638 2.936C77.4845 3.12267 77.4448 3.32567 77.4448 3.545C77.4448 3.825 77.5125 4.05833 77.6478 4.245C77.7878 4.427 77.9698 4.58333 78.1938 4.714C78.4225 4.84467 78.6792 4.959 78.9638 5.057C79.2532 5.15033 79.5472 5.24833 79.8458 5.351C80.1492 5.45367 80.4432 5.57033 80.7278 5.701C81.0172 5.827 81.2738 5.988 81.4978 6.184C81.7265 6.38 81.9085 6.62033 82.0438 6.905C82.1838 7.18967 82.2538 7.53967 82.2538 7.955C82.2538 8.39367 82.1792 8.80667 82.0298 9.194C81.8805 9.57667 81.6612 9.91033 81.3718 10.195C81.0872 10.4797 80.7348 10.7037 80.3148 10.867C79.8995 11.0303 79.4258 11.112 78.8938 11.112C78.2405 11.112 77.6478 10.9953 77.1158 10.762C76.5838 10.524 76.1288 10.2043 75.7508 9.803L76.1428 9.159C76.1802 9.10767 76.2245 9.06567 76.2758 9.033C76.3318 8.99567 76.3925 8.977 76.4578 8.977C76.5185 8.977 76.5862 9.00267 76.6608 9.054C76.7402 9.10067 76.8288 9.16133 76.9268 9.236C77.0248 9.31067 77.1368 9.39233 77.2628 9.481C77.3888 9.56967 77.5312 9.65133 77.6898 9.726C77.8532 9.80067 78.0375 9.86367 78.2428 9.915C78.4482 9.96167 78.6792 9.985 78.9358 9.985C79.2578 9.985 79.5448 9.94067 79.7968 9.852C80.0488 9.76333 80.2612 9.63967 80.4338 9.481C80.6112 9.31767 80.7465 9.124 80.8398 8.9C80.9332 8.676 80.9798 8.42633 80.9798 8.151C80.9798 7.84767 80.9098 7.60033 80.7698 7.409C80.6345 7.213 80.4548 7.04967 80.2308 6.919C80.0068 6.78833 79.7502 6.67867 79.4608 6.59C79.1715 6.49667 78.8775 6.40333 78.5788 6.31C78.2802 6.212 77.9862 6.1 77.6968 5.974C77.4075 5.848 77.1508 5.68467 76.9268 5.484C76.7028 5.28333 76.5208 5.03367 76.3808 4.735C76.2455 4.43167 76.1778 4.05833 76.1778 3.615C76.1778 3.26033 76.2455 2.91733 76.3808 2.586C76.5208 2.25467 76.7215 1.96067 76.9828 1.704C77.2488 1.44733 77.5732 1.242 77.9558 1.088C78.3432 0.933999 78.7865 0.856999 79.2858 0.856999C79.8458 0.856999 80.3545 0.945666 80.8118 1.123C81.2738 1.30033 81.6798 1.557 82.0298 1.893L81.7008 2.537Z" fill="#232323"/>
</svg>
