<svg width="88" height="12" viewBox="0 0 88 12" fill="none" xmlns="http://www.w3.org/2000/svg">
<path d="M6.608 7.276L5.033 3.195C4.98633 3.07367 4.93733 2.93367 4.886 2.775C4.83467 2.61167 4.78567 2.439 4.739 2.257C4.641 2.635 4.54067 2.95 4.438 3.202L2.863 7.276H6.608ZM9.436 11H8.386C8.26467 11 8.16667 10.9697 8.092 10.909C8.01733 10.8483 7.96133 10.7713 7.924 10.678L6.986 8.256H2.485L1.547 10.678C1.519 10.762 1.46533 10.8367 1.386 10.902C1.30667 10.9673 1.20867 11 1.092 11H0.042L4.053 0.968999H5.425L9.436 11ZM19.7296 5.988C19.7296 6.73933 19.6106 7.423 19.3726 8.039C19.1346 8.655 18.7986 9.18233 18.3646 9.621C17.9306 10.0597 17.4079 10.4003 16.7966 10.643C16.1899 10.881 15.5179 11 14.7806 11H11.0356V0.968999H14.7806C15.5179 0.968999 16.1899 1.09033 16.7966 1.333C17.4079 1.571 17.9306 1.91167 18.3646 2.355C18.7986 2.79367 19.1346 3.321 19.3726 3.937C19.6106 4.553 19.7296 5.23667 19.7296 5.988ZM18.3366 5.988C18.3366 5.372 18.2526 4.82133 18.0846 4.336C17.9166 3.85067 17.6786 3.44 17.3706 3.104C17.0626 2.768 16.6893 2.51133 16.2506 2.334C15.8119 2.15667 15.3219 2.068 14.7806 2.068H12.3936V9.901H14.7806C15.3219 9.901 15.8119 9.81233 16.2506 9.635C16.6893 9.45767 17.0626 9.20333 17.3706 8.872C17.6786 8.536 17.9166 8.12533 18.0846 7.64C18.2526 7.15467 18.3366 6.604 18.3366 5.988ZM32.403 0.968999V11H31.213V3.629C31.213 3.531 31.2153 3.426 31.22 3.314C31.2293 3.202 31.2387 3.08767 31.248 2.971L27.804 9.243C27.6967 9.453 27.5333 9.558 27.314 9.558H27.118C26.8987 9.558 26.7353 9.453 26.628 9.243L23.114 2.943C23.142 3.19033 23.156 3.419 23.156 3.629V11H21.966V0.968999H22.967C23.0883 0.968999 23.1817 0.980666 23.247 1.004C23.3123 1.02733 23.3753 1.09267 23.436 1.2L26.901 7.374C26.957 7.486 27.0107 7.60267 27.062 7.724C27.118 7.84533 27.1693 7.969 27.216 8.095C27.2627 7.969 27.3117 7.84533 27.363 7.724C27.4143 7.598 27.4703 7.479 27.531 7.367L30.933 1.2C30.989 1.09267 31.0497 1.02733 31.115 1.004C31.185 0.980666 31.2807 0.968999 31.402 0.968999H32.403ZM36.606 11H35.248V0.968999H36.606V11ZM44.5828 2.537C44.5408 2.607 44.4941 2.66067 44.4428 2.698C44.3961 2.73067 44.3378 2.747 44.2678 2.747C44.1884 2.747 44.0951 2.70733 43.9878 2.628C43.8804 2.54867 43.7451 2.46233 43.5818 2.369C43.4231 2.271 43.2294 2.18233 43.0008 2.103C42.7768 2.02367 42.5038 1.984 42.1818 1.984C41.8784 1.984 41.6101 2.026 41.3768 2.11C41.1481 2.18933 40.9544 2.299 40.7958 2.439C40.6418 2.579 40.5251 2.74467 40.4458 2.936C40.3664 3.12267 40.3268 3.32567 40.3268 3.545C40.3268 3.825 40.3944 4.05833 40.5298 4.245C40.6698 4.427 40.8518 4.58333 41.0758 4.714C41.3044 4.84467 41.5611 4.959 41.8458 5.057C42.1351 5.15033 42.4291 5.24833 42.7278 5.351C43.0311 5.45367 43.3251 5.57033 43.6098 5.701C43.8991 5.827 44.1558 5.988 44.3798 6.184C44.6084 6.38 44.7904 6.62033 44.9258 6.905C45.0658 7.18967 45.1358 7.53967 45.1358 7.955C45.1358 8.39367 45.0611 8.80667 44.9118 9.194C44.7624 9.57667 44.5431 9.91033 44.2538 10.195C43.9691 10.4797 43.6168 10.7037 43.1968 10.867C42.7814 11.0303 42.3078 11.112 41.7758 11.112C41.1224 11.112 40.5298 10.9953 39.9978 10.762C39.4658 10.524 39.0108 10.2043 38.6328 9.803L39.0248 9.159C39.0621 9.10767 39.1064 9.06567 39.1578 9.033C39.2138 8.99567 39.2744 8.977 39.3398 8.977C39.4004 8.977 39.4681 9.00267 39.5428 9.054C39.6221 9.10067 39.7108 9.16133 39.8088 9.236C39.9068 9.31067 40.0188 9.39233 40.1448 9.481C40.2708 9.56967 40.4131 9.65133 40.5718 9.726C40.7351 9.80067 40.9194 9.86367 41.1248 9.915C41.3301 9.96167 41.5611 9.985 41.8178 9.985C42.1398 9.985 42.4268 9.94067 42.6788 9.852C42.9308 9.76333 43.1431 9.63967 43.3158 9.481C43.4931 9.31767 43.6284 9.124 43.7218 8.9C43.8151 8.676 43.8618 8.42633 43.8618 8.151C43.8618 7.84767 43.7918 7.60033 43.6518 7.409C43.5164 7.213 43.3368 7.04967 43.1128 6.919C42.8888 6.78833 42.6321 6.67867 42.3428 6.59C42.0534 6.49667 41.7594 6.40333 41.4608 6.31C41.1621 6.212 40.8681 6.1 40.5788 5.974C40.2894 5.848 40.0328 5.68467 39.8088 5.484C39.5848 5.28333 39.4028 5.03367 39.2628 4.735C39.1274 4.43167 39.0598 4.05833 39.0598 3.615C39.0598 3.26033 39.1274 2.91733 39.2628 2.586C39.4028 2.25467 39.6034 1.96067 39.8648 1.704C40.1308 1.44733 40.4551 1.242 40.8378 1.088C41.2251 0.933999 41.6684 0.856999 42.1678 0.856999C42.7278 0.856999 43.2364 0.945666 43.6938 1.123C44.1558 1.30033 44.5618 1.557 44.9118 1.893L44.5828 2.537ZM52.4643 2.537C52.4223 2.607 52.3757 2.66067 52.3243 2.698C52.2777 2.73067 52.2193 2.747 52.1493 2.747C52.07 2.747 51.9767 2.70733 51.8693 2.628C51.762 2.54867 51.6267 2.46233 51.4633 2.369C51.3047 2.271 51.111 2.18233 50.8823 2.103C50.6583 2.02367 50.3853 1.984 50.0633 1.984C49.76 1.984 49.4917 2.026 49.2583 2.11C49.0297 2.18933 48.836 2.299 48.6773 2.439C48.5233 2.579 48.4067 2.74467 48.3273 2.936C48.248 3.12267 48.2083 3.32567 48.2083 3.545C48.2083 3.825 48.276 4.05833 48.4113 4.245C48.5513 4.427 48.7333 4.58333 48.9573 4.714C49.186 4.84467 49.4427 4.959 49.7273 5.057C50.0167 5.15033 50.3107 5.24833 50.6093 5.351C50.9127 5.45367 51.2067 5.57033 51.4913 5.701C51.7807 5.827 52.0373 5.988 52.2613 6.184C52.49 6.38 52.672 6.62033 52.8073 6.905C52.9473 7.18967 53.0173 7.53967 53.0173 7.955C53.0173 8.39367 52.9427 8.80667 52.7933 9.194C52.644 9.57667 52.4247 9.91033 52.1353 10.195C51.8507 10.4797 51.4983 10.7037 51.0783 10.867C50.663 11.0303 50.1893 11.112 49.6573 11.112C49.004 11.112 48.4113 10.9953 47.8793 10.762C47.3473 10.524 46.8923 10.2043 46.5143 9.803L46.9063 9.159C46.9437 9.10767 46.988 9.06567 47.0393 9.033C47.0953 8.99567 47.156 8.977 47.2213 8.977C47.282 8.977 47.3497 9.00267 47.4243 9.054C47.5037 9.10067 47.5923 9.16133 47.6903 9.236C47.7883 9.31067 47.9003 9.39233 48.0263 9.481C48.1523 9.56967 48.2947 9.65133 48.4533 9.726C48.6167 9.80067 48.801 9.86367 49.0063 9.915C49.2117 9.96167 49.4427 9.985 49.6993 9.985C50.0213 9.985 50.3083 9.94067 50.5603 9.852C50.8123 9.76333 51.0247 9.63967 51.1973 9.481C51.3747 9.31767 51.51 9.124 51.6033 8.9C51.6967 8.676 51.7433 8.42633 51.7433 8.151C51.7433 7.84767 51.6733 7.60033 51.5333 7.409C51.398 7.213 51.2183 7.04967 50.9943 6.919C50.7703 6.78833 50.5137 6.67867 50.2243 6.59C49.935 6.49667 49.641 6.40333 49.3423 6.31C49.0437 6.212 48.7497 6.1 48.4603 5.974C48.171 5.848 47.9143 5.68467 47.6903 5.484C47.4663 5.28333 47.2843 5.03367 47.1443 4.735C47.009 4.43167 46.9413 4.05833 46.9413 3.615C46.9413 3.26033 47.009 2.91733 47.1443 2.586C47.2843 2.25467 47.485 1.96067 47.7463 1.704C48.0123 1.44733 48.3367 1.242 48.7193 1.088C49.1067 0.933999 49.55 0.856999 50.0493 0.856999C50.6093 0.856999 51.118 0.945666 51.5753 1.123C52.0373 1.30033 52.4433 1.557 52.7933 1.893L52.4643 2.537ZM56.5729 11H55.2149V0.968999H56.5729V11ZM68.6867 5.988C68.6867 6.73933 68.5677 7.43 68.3297 8.06C68.0917 8.68533 67.7557 9.22433 67.3217 9.677C66.8877 10.1297 66.3651 10.482 65.7537 10.734C65.1471 10.9813 64.4751 11.105 63.7377 11.105C63.0004 11.105 62.3284 10.9813 61.7217 10.734C61.1151 10.482 60.5947 10.1297 60.1607 9.677C59.7267 9.22433 59.3907 8.68533 59.1527 8.06C58.9147 7.43 58.7957 6.73933 58.7957 5.988C58.7957 5.23667 58.9147 4.54833 59.1527 3.923C59.3907 3.293 59.7267 2.75167 60.1607 2.299C60.5947 1.84167 61.1151 1.487 61.7217 1.235C62.3284 0.982999 63.0004 0.856999 63.7377 0.856999C64.4751 0.856999 65.1471 0.982999 65.7537 1.235C66.3651 1.487 66.8877 1.84167 67.3217 2.299C67.7557 2.75167 68.0917 3.293 68.3297 3.923C68.5677 4.54833 68.6867 5.23667 68.6867 5.988ZM67.2937 5.988C67.2937 5.372 67.2097 4.819 67.0417 4.329C66.8737 3.839 66.6357 3.426 66.3277 3.09C66.0197 2.74933 65.6464 2.488 65.2077 2.306C64.7691 2.124 64.2791 2.033 63.7377 2.033C63.2011 2.033 62.7134 2.124 62.2747 2.306C61.8361 2.488 61.4604 2.74933 61.1477 3.09C60.8397 3.426 60.6017 3.839 60.4337 4.329C60.2657 4.819 60.1817 5.372 60.1817 5.988C60.1817 6.604 60.2657 7.157 60.4337 7.647C60.6017 8.13233 60.8397 8.54533 61.1477 8.886C61.4604 9.222 61.8361 9.481 62.2747 9.663C62.7134 9.84033 63.2011 9.929 63.7377 9.929C64.2791 9.929 64.7691 9.84033 65.2077 9.663C65.6464 9.481 66.0197 9.222 66.3277 8.886C66.6357 8.54533 66.8737 8.13233 67.0417 7.647C67.2097 7.157 67.2937 6.604 67.2937 5.988ZM79.0367 0.968999V11H78.3577C78.2503 11 78.1593 10.9813 78.0847 10.944C78.0147 10.9067 77.9447 10.8437 77.8747 10.755L72.0717 3.195C72.081 3.31167 72.088 3.426 72.0927 3.538C72.0973 3.65 72.0997 3.755 72.0997 3.853V11H70.9097V0.968999H71.6097C71.6703 0.968999 71.7217 0.973666 71.7637 0.982999C71.8057 0.987666 71.843 0.999333 71.8757 1.018C71.9083 1.032 71.941 1.05533 71.9737 1.088C72.0063 1.116 72.0413 1.15333 72.0787 1.2L77.8817 8.753C77.8723 8.63167 77.863 8.515 77.8537 8.403C77.849 8.28633 77.8467 8.17667 77.8467 8.074V0.968999H79.0367ZM87.0121 2.537C86.9701 2.607 86.9234 2.66067 86.8721 2.698C86.8254 2.73067 86.7671 2.747 86.6971 2.747C86.6177 2.747 86.5244 2.70733 86.4171 2.628C86.3097 2.54867 86.1744 2.46233 86.0111 2.369C85.8524 2.271 85.6587 2.18233 85.4301 2.103C85.2061 2.02367 84.9331 1.984 84.6111 1.984C84.3077 1.984 84.0394 2.026 83.8061 2.11C83.5774 2.18933 83.3837 2.299 83.2251 2.439C83.0711 2.579 82.9544 2.74467 82.8751 2.936C82.7957 3.12267 82.7561 3.32567 82.7561 3.545C82.7561 3.825 82.8237 4.05833 82.9591 4.245C83.0991 4.427 83.2811 4.58333 83.5051 4.714C83.7337 4.84467 83.9904 4.959 84.2751 5.057C84.5644 5.15033 84.8584 5.24833 85.1571 5.351C85.4604 5.45367 85.7544 5.57033 86.0391 5.701C86.3284 5.827 86.5851 5.988 86.8091 6.184C87.0377 6.38 87.2197 6.62033 87.3551 6.905C87.4951 7.18967 87.5651 7.53967 87.5651 7.955C87.5651 8.39367 87.4904 8.80667 87.3411 9.194C87.1917 9.57667 86.9724 9.91033 86.6831 10.195C86.3984 10.4797 86.0461 10.7037 85.6261 10.867C85.2107 11.0303 84.7371 11.112 84.2051 11.112C83.5517 11.112 82.9591 10.9953 82.4271 10.762C81.8951 10.524 81.4401 10.2043 81.0621 9.803L81.4541 9.159C81.4914 9.10767 81.5357 9.06567 81.5871 9.033C81.6431 8.99567 81.7037 8.977 81.7691 8.977C81.8297 8.977 81.8974 9.00267 81.9721 9.054C82.0514 9.10067 82.1401 9.16133 82.2381 9.236C82.3361 9.31067 82.4481 9.39233 82.5741 9.481C82.7001 9.56967 82.8424 9.65133 83.0011 9.726C83.1644 9.80067 83.3487 9.86367 83.5541 9.915C83.7594 9.96167 83.9904 9.985 84.2471 9.985C84.5691 9.985 84.8561 9.94067 85.1081 9.852C85.3601 9.76333 85.5724 9.63967 85.7451 9.481C85.9224 9.31767 86.0577 9.124 86.1511 8.9C86.2444 8.676 86.2911 8.42633 86.2911 8.151C86.2911 7.84767 86.2211 7.60033 86.0811 7.409C85.9457 7.213 85.7661 7.04967 85.5421 6.919C85.3181 6.78833 85.0614 6.67867 84.7721 6.59C84.4827 6.49667 84.1887 6.40333 83.8901 6.31C83.5914 6.212 83.2974 6.1 83.0081 5.974C82.7187 5.848 82.4621 5.68467 82.2381 5.484C82.0141 5.28333 81.8321 5.03367 81.6921 4.735C81.5567 4.43167 81.4891 4.05833 81.4891 3.615C81.4891 3.26033 81.5567 2.91733 81.6921 2.586C81.8321 2.25467 82.0327 1.96067 82.2941 1.704C82.5601 1.44733 82.8844 1.242 83.2671 1.088C83.6544 0.933999 84.0977 0.856999 84.5971 0.856999C85.1571 0.856999 85.6657 0.945666 86.1231 1.123C86.5851 1.30033 86.9911 1.557 87.3411 1.893L87.0121 2.537Z" fill="#232323"/>
</svg>
