<svg width="65" height="10" viewBox="0 0 65 10" fill="none" xmlns="http://www.w3.org/2000/svg">
<path d="M7.134 7.224C7.198 7.224 7.254 7.25 7.302 7.302L7.764 7.8C7.412 8.208 6.984 8.526 6.48 8.754C5.98 8.982 5.374 9.096 4.662 9.096C4.046 9.096 3.486 8.99 2.982 8.778C2.478 8.562 2.048 8.262 1.692 7.878C1.336 7.49 1.06 7.026 0.864 6.486C0.668 5.946 0.57 5.352 0.57 4.704C0.57 4.056 0.672 3.462 0.876 2.922C1.08 2.382 1.366 1.918 1.734 1.53C2.106 1.142 2.55 0.842 3.066 0.629999C3.582 0.413999 4.152 0.305999 4.776 0.305999C5.388 0.305999 5.928 0.403999 6.396 0.599999C6.864 0.796 7.276 1.062 7.632 1.398L7.248 1.932C7.224 1.972 7.192 2.006 7.152 2.034C7.116 2.058 7.066 2.07 7.002 2.07C6.93 2.07 6.842 2.032 6.738 1.956C6.634 1.876 6.498 1.788 6.33 1.692C6.162 1.596 5.952 1.51 5.7 1.434C5.448 1.354 5.138 1.314 4.77 1.314C4.326 1.314 3.92 1.392 3.552 1.548C3.184 1.7 2.866 1.922 2.598 2.214C2.334 2.506 2.128 2.862 1.98 3.282C1.832 3.702 1.758 4.176 1.758 4.704C1.758 5.24 1.834 5.718 1.986 6.138C2.142 6.558 2.352 6.914 2.616 7.206C2.884 7.494 3.198 7.714 3.558 7.866C3.922 8.018 4.314 8.094 4.734 8.094C4.99 8.094 5.22 8.08 5.424 8.052C5.632 8.02 5.822 7.972 5.994 7.908C6.17 7.844 6.332 7.764 6.48 7.668C6.632 7.568 6.782 7.45 6.93 7.314C6.998 7.254 7.066 7.224 7.134 7.224ZM13.9196 5.808L12.5696 2.31C12.5296 2.206 12.4876 2.086 12.4436 1.95C12.3996 1.81 12.3576 1.662 12.3176 1.506C12.2336 1.83 12.1476 2.1 12.0596 2.316L10.7096 5.808H13.9196ZM16.3436 9H15.4436C15.3396 9 15.2556 8.974 15.1916 8.922C15.1276 8.87 15.0796 8.804 15.0476 8.724L14.2436 6.648H10.3856L9.58162 8.724C9.55762 8.796 9.51162 8.86 9.44362 8.916C9.37562 8.972 9.29162 9 9.19162 9H8.29162L11.7296 0.401999H12.9056L16.3436 9ZM22.5927 8.022V9H17.7147V0.401999H18.8727V8.022H22.5927ZM29.4228 8.052L29.4168 9H24.1188V0.401999H29.4168V1.35H25.2828V4.206H28.6308V5.118H25.2828V8.052H29.4228ZM38.2506 0.401999V9H37.6686C37.5766 9 37.4986 8.984 37.4346 8.952C37.3746 8.92 37.3146 8.866 37.2546 8.79L32.2806 2.31C32.2886 2.41 32.2946 2.508 32.2986 2.604C32.3026 2.7 32.3046 2.79 32.3046 2.874V9H31.2846V0.401999H31.8846C31.9366 0.401999 31.9806 0.405999 32.0166 0.413999C32.0526 0.418 32.0846 0.427999 32.1126 0.443999C32.1406 0.455999 32.1686 0.476 32.1966 0.504C32.2246 0.528 32.2546 0.559999 32.2866 0.599999L37.2606 7.074C37.2526 6.97 37.2446 6.87 37.2366 6.774C37.2326 6.674 37.2306 6.58 37.2306 6.492V0.401999H38.2506ZM48.1406 4.704C48.1406 5.348 48.0386 5.934 47.8346 6.462C47.6306 6.99 47.3426 7.442 46.9706 7.818C46.5986 8.194 46.1506 8.486 45.6266 8.694C45.1066 8.898 44.5306 9 43.8986 9H40.6886V0.401999H43.8986C44.5306 0.401999 45.1066 0.506 45.6266 0.714C46.1506 0.918 46.5986 1.21 46.9706 1.59C47.3426 1.966 47.6306 2.418 47.8346 2.946C48.0386 3.474 48.1406 4.06 48.1406 4.704ZM46.9466 4.704C46.9466 4.176 46.8746 3.704 46.7306 3.288C46.5866 2.872 46.3826 2.52 46.1186 2.232C45.8546 1.944 45.5346 1.724 45.1586 1.572C44.7826 1.42 44.3626 1.344 43.8986 1.344H41.8526V8.058H43.8986C44.3626 8.058 44.7826 7.982 45.1586 7.83C45.5346 7.678 45.8546 7.46 46.1186 7.176C46.3826 6.888 46.5866 6.536 46.7306 6.12C46.8746 5.704 46.9466 5.232 46.9466 4.704ZM54.3892 5.808L53.0392 2.31C52.9992 2.206 52.9572 2.086 52.9132 1.95C52.8692 1.81 52.8272 1.662 52.7872 1.506C52.7032 1.83 52.6172 2.1 52.5292 2.316L51.1792 5.808H54.3892ZM56.8132 9H55.9132C55.8092 9 55.7252 8.974 55.6612 8.922C55.5972 8.87 55.5492 8.804 55.5172 8.724L54.7132 6.648H50.8552L50.0512 8.724C50.0272 8.796 49.9812 8.86 49.9132 8.916C49.8452 8.972 49.7612 9 49.6612 9H48.7612L52.1992 0.401999H53.3752L56.8132 9ZM60.5663 4.566C60.9023 4.566 61.1983 4.526 61.4543 4.446C61.7143 4.362 61.9303 4.246 62.1023 4.098C62.2783 3.946 62.4103 3.766 62.4983 3.558C62.5863 3.35 62.6303 3.12 62.6303 2.868C62.6303 2.356 62.4623 1.97 62.1263 1.71C61.7903 1.45 61.2863 1.32 60.6143 1.32H59.3423V4.566H60.5663ZM64.5383 9H63.5063C63.2943 9 63.1383 8.918 63.0383 8.754L60.8063 5.682C60.7383 5.586 60.6643 5.518 60.5843 5.478C60.5083 5.434 60.3883 5.412 60.2243 5.412H59.3423V9H58.1843V0.401999H60.6143C61.1583 0.401999 61.6283 0.457999 62.0243 0.569999C62.4203 0.678 62.7463 0.836 63.0023 1.044C63.2623 1.252 63.4543 1.504 63.5783 1.8C63.7023 2.092 63.7643 2.42 63.7643 2.784C63.7643 3.088 63.7163 3.372 63.6203 3.636C63.5243 3.9 63.3843 4.138 63.2003 4.35C63.0203 4.558 62.7983 4.736 62.5343 4.884C62.2743 5.032 61.9783 5.144 61.6463 5.22C61.7943 5.304 61.9223 5.426 62.0303 5.586L64.5383 9Z" fill="#232323"/>
</svg>
