<svg width="92" height="12" viewBox="0 0 92 12" fill="none" xmlns="http://www.w3.org/2000/svg">
<path d="M8.323 8.928C8.39767 8.928 8.463 8.95833 8.519 9.019L9.058 9.6C8.64733 10.076 8.148 10.447 7.56 10.713C6.97667 10.979 6.26967 11.112 5.439 11.112C4.72033 11.112 4.067 10.9883 3.479 10.741C2.891 10.489 2.38933 10.139 1.974 9.691C1.55867 9.23833 1.23667 8.697 1.008 8.067C0.779333 7.437 0.665 6.744 0.665 5.988C0.665 5.232 0.784 4.539 1.022 3.909C1.26 3.279 1.59367 2.73767 2.023 2.285C2.457 1.83233 2.975 1.48233 3.577 1.235C4.179 0.982999 4.844 0.856999 5.572 0.856999C6.286 0.856999 6.916 0.971333 7.462 1.2C8.008 1.42867 8.48867 1.739 8.904 2.131L8.456 2.754C8.428 2.80067 8.39067 2.84033 8.344 2.873C8.302 2.901 8.24367 2.915 8.169 2.915C8.085 2.915 7.98233 2.87067 7.861 2.782C7.73967 2.68867 7.581 2.586 7.385 2.474C7.189 2.362 6.944 2.26167 6.65 2.173C6.356 2.07967 5.99433 2.033 5.565 2.033C5.047 2.033 4.57333 2.124 4.144 2.306C3.71467 2.48333 3.34367 2.74233 3.031 3.083C2.723 3.42367 2.48267 3.839 2.31 4.329C2.13733 4.819 2.051 5.372 2.051 5.988C2.051 6.61333 2.13967 7.171 2.317 7.661C2.499 8.151 2.744 8.56633 3.052 8.907C3.36467 9.243 3.731 9.49967 4.151 9.677C4.57567 9.85433 5.033 9.943 5.523 9.943C5.82167 9.943 6.09 9.92667 6.328 9.894C6.57067 9.85667 6.79233 9.80067 6.993 9.726C7.19833 9.65133 7.38733 9.558 7.56 9.446C7.73733 9.32933 7.91233 9.19167 8.085 9.033C8.16433 8.963 8.24367 8.928 8.323 8.928ZM16.2396 7.276L14.6646 3.195C14.6179 3.07367 14.5689 2.93367 14.5176 2.775C14.4662 2.61167 14.4172 2.439 14.3706 2.257C14.2726 2.635 14.1722 2.95 14.0696 3.202L12.4946 7.276H16.2396ZM19.0676 11H18.0176C17.8962 11 17.7982 10.9697 17.7236 10.909C17.6489 10.8483 17.5929 10.7713 17.5556 10.678L16.6176 8.256H12.1166L11.1786 10.678C11.1506 10.762 11.0969 10.8367 11.0176 10.902C10.9382 10.9673 10.8402 11 10.7236 11H9.67356L13.6846 0.968999H15.0566L19.0676 11ZM31.1042 0.968999V11H29.9142V3.629C29.9142 3.531 29.9165 3.426 29.9212 3.314C29.9305 3.202 29.9398 3.08767 29.9492 2.971L26.5052 9.243C26.3978 9.453 26.2345 9.558 26.0152 9.558H25.8192C25.5998 9.558 25.4365 9.453 25.3292 9.243L21.8152 2.943C21.8432 3.19033 21.8572 3.419 21.8572 3.629V11H20.6672V0.968999H21.6682C21.7895 0.968999 21.8828 0.980666 21.9482 1.004C22.0135 1.02733 22.0765 1.09267 22.1372 1.2L25.6022 7.374C25.6582 7.486 25.7118 7.60267 25.7632 7.724C25.8192 7.84533 25.8705 7.969 25.9172 8.095C25.9638 7.969 26.0128 7.84533 26.0642 7.724C26.1155 7.598 26.1715 7.479 26.2322 7.367L29.6342 1.2C29.6902 1.09267 29.7508 1.02733 29.8162 1.004C29.8862 0.980666 29.9818 0.968999 30.1032 0.968999H31.1042ZM36.9101 6.17C37.2975 6.17 37.6381 6.11867 37.9321 6.016C38.2308 5.91333 38.4805 5.771 38.6811 5.589C38.8865 5.40233 39.0405 5.18067 39.1431 4.924C39.2458 4.66733 39.2971 4.385 39.2971 4.077C39.2971 3.43767 39.0988 2.93833 38.7021 2.579C38.3101 2.21967 37.7128 2.04 36.9101 2.04H35.3001V6.17H36.9101ZM36.9101 0.968999C37.5448 0.968999 38.0955 1.04367 38.5621 1.193C39.0335 1.33767 39.4231 1.54533 39.7311 1.816C40.0391 2.08667 40.2678 2.41333 40.4171 2.796C40.5711 3.17867 40.6481 3.60567 40.6481 4.077C40.6481 4.54367 40.5665 4.97067 40.4031 5.358C40.2398 5.74533 39.9995 6.079 39.6821 6.359C39.3695 6.639 38.9798 6.85833 38.5131 7.017C38.0511 7.171 37.5168 7.248 36.9101 7.248H35.3001V11H33.9491V0.968999H36.9101ZM46.5083 9.922C46.9237 9.922 47.2947 9.852 47.6213 9.712C47.948 9.572 48.2233 9.376 48.4473 9.124C48.676 8.872 48.8487 8.571 48.9653 8.221C49.0867 7.871 49.1473 7.486 49.1473 7.066V0.968999H50.4983V7.066C50.4983 7.64467 50.405 8.18133 50.2183 8.676C50.0363 9.17067 49.7727 9.6 49.4273 9.964C49.0867 10.3233 48.669 10.6057 48.1743 10.811C47.6797 11.0163 47.1243 11.119 46.5083 11.119C45.8923 11.119 45.337 11.0163 44.8423 10.811C44.3477 10.6057 43.9277 10.3233 43.5823 9.964C43.237 9.6 42.971 9.17067 42.7843 8.676C42.6023 8.18133 42.5113 7.64467 42.5113 7.066V0.968999H43.8623V7.059C43.8623 7.479 43.9207 7.864 44.0373 8.214C44.1587 8.564 44.3313 8.865 44.5553 9.117C44.784 9.369 45.0617 9.56733 45.3883 9.712C45.7197 9.852 46.093 9.922 46.5083 9.922ZM58.3433 2.537C58.3013 2.607 58.2546 2.66067 58.2033 2.698C58.1566 2.73067 58.0983 2.747 58.0283 2.747C57.9489 2.747 57.8556 2.70733 57.7483 2.628C57.6409 2.54867 57.5056 2.46233 57.3423 2.369C57.1836 2.271 56.9899 2.18233 56.7613 2.103C56.5373 2.02367 56.2643 1.984 55.9423 1.984C55.6389 1.984 55.3706 2.026 55.1373 2.11C54.9086 2.18933 54.7149 2.299 54.5563 2.439C54.4023 2.579 54.2856 2.74467 54.2063 2.936C54.1269 3.12267 54.0873 3.32567 54.0873 3.545C54.0873 3.825 54.1549 4.05833 54.2903 4.245C54.4303 4.427 54.6123 4.58333 54.8363 4.714C55.0649 4.84467 55.3216 4.959 55.6063 5.057C55.8956 5.15033 56.1896 5.24833 56.4883 5.351C56.7916 5.45367 57.0856 5.57033 57.3703 5.701C57.6596 5.827 57.9163 5.988 58.1403 6.184C58.3689 6.38 58.5509 6.62033 58.6863 6.905C58.8263 7.18967 58.8963 7.53967 58.8963 7.955C58.8963 8.39367 58.8216 8.80667 58.6723 9.194C58.5229 9.57667 58.3036 9.91033 58.0143 10.195C57.7296 10.4797 57.3773 10.7037 56.9573 10.867C56.5419 11.0303 56.0683 11.112 55.5363 11.112C54.8829 11.112 54.2903 10.9953 53.7583 10.762C53.2263 10.524 52.7713 10.2043 52.3933 9.803L52.7853 9.159C52.8226 9.10767 52.8669 9.06567 52.9183 9.033C52.9743 8.99567 53.0349 8.977 53.1003 8.977C53.1609 8.977 53.2286 9.00267 53.3033 9.054C53.3826 9.10067 53.4713 9.16133 53.5693 9.236C53.6673 9.31067 53.7793 9.39233 53.9053 9.481C54.0313 9.56967 54.1736 9.65133 54.3323 9.726C54.4956 9.80067 54.6799 9.86367 54.8853 9.915C55.0906 9.96167 55.3216 9.985 55.5783 9.985C55.9003 9.985 56.1873 9.94067 56.4393 9.852C56.6913 9.76333 56.9036 9.63967 57.0763 9.481C57.2536 9.31767 57.3889 9.124 57.4823 8.9C57.5756 8.676 57.6223 8.42633 57.6223 8.151C57.6223 7.84767 57.5523 7.60033 57.4123 7.409C57.2769 7.213 57.0973 7.04967 56.8733 6.919C56.6493 6.78833 56.3926 6.67867 56.1033 6.59C55.8139 6.49667 55.5199 6.40333 55.2213 6.31C54.9226 6.212 54.6286 6.1 54.3393 5.974C54.0499 5.848 53.7933 5.68467 53.5693 5.484C53.3453 5.28333 53.1633 5.03367 53.0233 4.735C52.8879 4.43167 52.8203 4.05833 52.8203 3.615C52.8203 3.26033 52.8879 2.91733 53.0233 2.586C53.1633 2.25467 53.3639 1.96067 53.6253 1.704C53.8913 1.44733 54.2156 1.242 54.5983 1.088C54.9856 0.933999 55.4289 0.856999 55.9283 0.856999C56.4883 0.856999 56.9969 0.945666 57.4543 1.123C57.9163 1.30033 58.3223 1.557 58.6723 1.893L58.3433 2.537ZM70.6468 9.859V11H64.9558V0.968999H66.3068V9.859H70.6468ZM73.7852 11H72.4272V0.968999H73.7852V11ZM77.9891 2.075V5.582H82.1121V6.688H77.9891V11H76.6311V0.968999H82.8121V2.075H77.9891ZM91.0151 9.894L91.0081 11H84.8271V0.968999H91.0081V2.075H86.1851V5.407H90.0911V6.471H86.1851V9.894H91.0151Z" fill="#232323"/>
</svg>
