<svg width="62" height="12" viewBox="0 0 62 12" fill="none" xmlns="http://www.w3.org/2000/svg">
<path d="M8.323 8.928C8.39767 8.928 8.463 8.95833 8.519 9.019L9.058 9.6C8.64733 10.076 8.148 10.447 7.56 10.713C6.97667 10.979 6.26967 11.112 5.439 11.112C4.72033 11.112 4.067 10.9883 3.479 10.741C2.891 10.489 2.38933 10.139 1.974 9.691C1.55867 9.23833 1.23667 8.697 1.008 8.067C0.779333 7.437 0.665 6.744 0.665 5.988C0.665 5.232 0.784 4.539 1.022 3.909C1.26 3.279 1.59367 2.73767 2.023 2.285C2.457 1.83233 2.975 1.48233 3.577 1.235C4.179 0.982999 4.844 0.856999 5.572 0.856999C6.286 0.856999 6.916 0.971333 7.462 1.2C8.008 1.42867 8.48867 1.739 8.904 2.131L8.456 2.754C8.428 2.80067 8.39067 2.84033 8.344 2.873C8.302 2.901 8.24367 2.915 8.169 2.915C8.085 2.915 7.98233 2.87067 7.861 2.782C7.73967 2.68867 7.581 2.586 7.385 2.474C7.189 2.362 6.944 2.26167 6.65 2.173C6.356 2.07967 5.99433 2.033 5.565 2.033C5.047 2.033 4.57333 2.124 4.144 2.306C3.71467 2.48333 3.34367 2.74233 3.031 3.083C2.723 3.42367 2.48267 3.839 2.31 4.329C2.13733 4.819 2.051 5.372 2.051 5.988C2.051 6.61333 2.13967 7.171 2.317 7.661C2.499 8.151 2.744 8.56633 3.052 8.907C3.36467 9.243 3.731 9.49967 4.151 9.677C4.57567 9.85433 5.033 9.943 5.523 9.943C5.82167 9.943 6.09 9.92667 6.328 9.894C6.57067 9.85667 6.79233 9.80067 6.993 9.726C7.19833 9.65133 7.38733 9.558 7.56 9.446C7.73733 9.32933 7.91233 9.19167 8.085 9.033C8.16433 8.963 8.24367 8.928 8.323 8.928ZM16.2396 7.276L14.6646 3.195C14.6179 3.07367 14.5689 2.93367 14.5176 2.775C14.4662 2.61167 14.4172 2.439 14.3706 2.257C14.2726 2.635 14.1722 2.95 14.0696 3.202L12.4946 7.276H16.2396ZM19.0676 11H18.0176C17.8962 11 17.7982 10.9697 17.7236 10.909C17.6489 10.8483 17.5929 10.7713 17.5556 10.678L16.6176 8.256H12.1166L11.1786 10.678C11.1506 10.762 11.0969 10.8367 11.0176 10.902C10.9382 10.9673 10.8402 11 10.7236 11H9.67356L13.6846 0.968999H15.0566L19.0676 11ZM23.4462 5.827C23.8382 5.827 24.1835 5.78033 24.4822 5.687C24.7855 5.589 25.0375 5.45367 25.2382 5.281C25.4435 5.10367 25.5975 4.89367 25.7002 4.651C25.8028 4.40833 25.8542 4.14 25.8542 3.846C25.8542 3.24867 25.6582 2.79833 25.2662 2.495C24.8742 2.19167 24.2862 2.04 23.5022 2.04H22.0182V5.827H23.4462ZM28.0802 11H26.8762C26.6288 11 26.4468 10.9043 26.3302 10.713L23.7262 7.129C23.6468 7.017 23.5605 6.93767 23.4672 6.891C23.3785 6.83967 23.2385 6.814 23.0472 6.814H22.0182V11H20.6672V0.968999H23.5022C24.1368 0.968999 24.6852 1.03433 25.1472 1.165C25.6092 1.291 25.9895 1.47533 26.2882 1.718C26.5915 1.96067 26.8155 2.25467 26.9602 2.6C27.1048 2.94067 27.1772 3.32333 27.1772 3.748C27.1772 4.10267 27.1212 4.434 27.0092 4.742C26.8972 5.05 26.7338 5.32767 26.5192 5.575C26.3092 5.81767 26.0502 6.02533 25.7422 6.198C25.4388 6.37067 25.0935 6.50133 24.7062 6.59C24.8788 6.688 25.0282 6.83033 25.1542 7.017L28.0802 11ZM35.9125 9.894L35.9055 11H29.7245V0.968999H35.9055V2.075H31.0825V5.407H34.9885V6.471H31.0825V9.894H35.9125ZM44.2726 9.894L44.2656 11H38.0846V0.968999H44.2656V2.075H39.4426V5.407H43.3486V6.471H39.4426V9.894H44.2726ZM49.2237 5.827C49.6157 5.827 49.961 5.78033 50.2597 5.687C50.563 5.589 50.815 5.45367 51.0157 5.281C51.221 5.10367 51.375 4.89367 51.4777 4.651C51.5803 4.40833 51.6317 4.14 51.6317 3.846C51.6317 3.24867 51.4357 2.79833 51.0437 2.495C50.6517 2.19167 50.0637 2.04 49.2797 2.04H47.7957V5.827H49.2237ZM53.8577 11H52.6537C52.4063 11 52.2243 10.9043 52.1077 10.713L49.5037 7.129C49.4243 7.017 49.338 6.93767 49.2447 6.891C49.156 6.83967 49.016 6.814 48.8247 6.814H47.7957V11H46.4447V0.968999H49.2797C49.9143 0.968999 50.4627 1.03433 50.9247 1.165C51.3867 1.291 51.767 1.47533 52.0657 1.718C52.369 1.96067 52.593 2.25467 52.7377 2.6C52.8823 2.94067 52.9547 3.32333 52.9547 3.748C52.9547 4.10267 52.8987 4.434 52.7867 4.742C52.6747 5.05 52.5113 5.32767 52.2967 5.575C52.0867 5.81767 51.8277 6.02533 51.5197 6.198C51.2163 6.37067 50.871 6.50133 50.4837 6.59C50.6563 6.688 50.8057 6.83033 50.9317 7.017L53.8577 11ZM60.633 2.537C60.591 2.607 60.5443 2.66067 60.493 2.698C60.4463 2.73067 60.388 2.747 60.318 2.747C60.2387 2.747 60.1453 2.70733 60.038 2.628C59.9307 2.54867 59.7953 2.46233 59.632 2.369C59.4733 2.271 59.2797 2.18233 59.051 2.103C58.827 2.02367 58.554 1.984 58.232 1.984C57.9287 1.984 57.6603 2.026 57.427 2.11C57.1983 2.18933 57.0047 2.299 56.846 2.439C56.692 2.579 56.5753 2.74467 56.496 2.936C56.4167 3.12267 56.377 3.32567 56.377 3.545C56.377 3.825 56.4447 4.05833 56.58 4.245C56.72 4.427 56.902 4.58333 57.126 4.714C57.3547 4.84467 57.6113 4.959 57.896 5.057C58.1853 5.15033 58.4793 5.24833 58.778 5.351C59.0813 5.45367 59.3753 5.57033 59.66 5.701C59.9493 5.827 60.206 5.988 60.43 6.184C60.6587 6.38 60.8407 6.62033 60.976 6.905C61.116 7.18967 61.186 7.53967 61.186 7.955C61.186 8.39367 61.1113 8.80667 60.962 9.194C60.8127 9.57667 60.5933 9.91033 60.304 10.195C60.0193 10.4797 59.667 10.7037 59.247 10.867C58.8317 11.0303 58.358 11.112 57.826 11.112C57.1727 11.112 56.58 10.9953 56.048 10.762C55.516 10.524 55.061 10.2043 54.683 9.803L55.075 9.159C55.1123 9.10767 55.1567 9.06567 55.208 9.033C55.264 8.99567 55.3247 8.977 55.39 8.977C55.4507 8.977 55.5183 9.00267 55.593 9.054C55.6723 9.10067 55.761 9.16133 55.859 9.236C55.957 9.31067 56.069 9.39233 56.195 9.481C56.321 9.56967 56.4633 9.65133 56.622 9.726C56.7853 9.80067 56.9697 9.86367 57.175 9.915C57.3803 9.96167 57.6113 9.985 57.868 9.985C58.19 9.985 58.477 9.94067 58.729 9.852C58.981 9.76333 59.1933 9.63967 59.366 9.481C59.5433 9.31767 59.6787 9.124 59.772 8.9C59.8653 8.676 59.912 8.42633 59.912 8.151C59.912 7.84767 59.842 7.60033 59.702 7.409C59.5667 7.213 59.387 7.04967 59.163 6.919C58.939 6.78833 58.6823 6.67867 58.393 6.59C58.1037 6.49667 57.8097 6.40333 57.511 6.31C57.2123 6.212 56.9183 6.1 56.629 5.974C56.3397 5.848 56.083 5.68467 55.859 5.484C55.635 5.28333 55.453 5.03367 55.313 4.735C55.1777 4.43167 55.11 4.05833 55.11 3.615C55.11 3.26033 55.1777 2.91733 55.313 2.586C55.453 2.25467 55.6537 1.96067 55.915 1.704C56.181 1.44733 56.5053 1.242 56.888 1.088C57.2753 0.933999 57.7187 0.856999 58.218 0.856999C58.778 0.856999 59.2867 0.945666 59.744 1.123C60.206 1.30033 60.612 1.557 60.962 1.893L60.633 2.537Z" fill="#232323"/>
</svg>
