<svg width="76" height="10" viewBox="0 0 76 10" fill="none" xmlns="http://www.w3.org/2000/svg">
<path d="M7.134 7.224C7.198 7.224 7.254 7.25 7.302 7.302L7.764 7.8C7.412 8.208 6.984 8.526 6.48 8.754C5.98 8.982 5.374 9.096 4.662 9.096C4.046 9.096 3.486 8.99 2.982 8.778C2.478 8.562 2.048 8.262 1.692 7.878C1.336 7.49 1.06 7.026 0.864 6.486C0.668 5.946 0.57 5.352 0.57 4.704C0.57 4.056 0.672 3.462 0.876 2.922C1.08 2.382 1.366 1.918 1.734 1.53C2.106 1.142 2.55 0.842 3.066 0.629999C3.582 0.413999 4.152 0.305999 4.776 0.305999C5.388 0.305999 5.928 0.403999 6.396 0.599999C6.864 0.796 7.276 1.062 7.632 1.398L7.248 1.932C7.224 1.972 7.192 2.006 7.152 2.034C7.116 2.058 7.066 2.07 7.002 2.07C6.93 2.07 6.842 2.032 6.738 1.956C6.634 1.876 6.498 1.788 6.33 1.692C6.162 1.596 5.952 1.51 5.7 1.434C5.448 1.354 5.138 1.314 4.77 1.314C4.326 1.314 3.92 1.392 3.552 1.548C3.184 1.7 2.866 1.922 2.598 2.214C2.334 2.506 2.128 2.862 1.98 3.282C1.832 3.702 1.758 4.176 1.758 4.704C1.758 5.24 1.834 5.718 1.986 6.138C2.142 6.558 2.352 6.914 2.616 7.206C2.884 7.494 3.198 7.714 3.558 7.866C3.922 8.018 4.314 8.094 4.734 8.094C4.99 8.094 5.22 8.08 5.424 8.052C5.632 8.02 5.822 7.972 5.994 7.908C6.17 7.844 6.332 7.764 6.48 7.668C6.632 7.568 6.782 7.45 6.93 7.314C6.998 7.254 7.066 7.224 7.134 7.224ZM17.1336 4.704C17.1336 5.348 17.0316 5.94 16.8276 6.48C16.6236 7.016 16.3356 7.478 15.9636 7.866C15.5916 8.254 15.1436 8.556 14.6196 8.772C14.0996 8.984 13.5236 9.09 12.8916 9.09C12.2596 9.09 11.6836 8.984 11.1636 8.772C10.6436 8.556 10.1976 8.254 9.82556 7.866C9.45356 7.478 9.16556 7.016 8.96156 6.48C8.75756 5.94 8.65556 5.348 8.65556 4.704C8.65556 4.06 8.75756 3.47 8.96156 2.934C9.16556 2.394 9.45356 1.93 9.82556 1.542C10.1976 1.15 10.6436 0.845999 11.1636 0.629999C11.6836 0.413999 12.2596 0.305999 12.8916 0.305999C13.5236 0.305999 14.0996 0.413999 14.6196 0.629999C15.1436 0.845999 15.5916 1.15 15.9636 1.542C16.3356 1.93 16.6236 2.394 16.8276 2.934C17.0316 3.47 17.1336 4.06 17.1336 4.704ZM15.9396 4.704C15.9396 4.176 15.8676 3.702 15.7236 3.282C15.5796 2.862 15.3756 2.508 15.1116 2.22C14.8476 1.928 14.5276 1.704 14.1516 1.548C13.7756 1.392 13.3556 1.314 12.8916 1.314C12.4316 1.314 12.0136 1.392 11.6376 1.548C11.2616 1.704 10.9396 1.928 10.6716 2.22C10.4076 2.508 10.2036 2.862 10.0596 3.282C9.91556 3.702 9.84356 4.176 9.84356 4.704C9.84356 5.232 9.91556 5.706 10.0596 6.126C10.2036 6.542 10.4076 6.896 10.6716 7.188C10.9396 7.476 11.2616 7.698 11.6376 7.854C12.0136 8.006 12.4316 8.082 12.8916 8.082C13.3556 8.082 13.7756 8.006 14.1516 7.854C14.5276 7.698 14.8476 7.476 15.1116 7.188C15.3756 6.896 15.5796 6.542 15.7236 6.126C15.8676 5.706 15.9396 5.232 15.9396 4.704ZM26.0049 0.401999V9H25.4229C25.3309 9 25.2529 8.984 25.1889 8.952C25.1289 8.92 25.0689 8.866 25.0089 8.79L20.0349 2.31C20.0429 2.41 20.0489 2.508 20.0529 2.604C20.0569 2.7 20.0589 2.79 20.0589 2.874V9H19.0389V0.401999H19.6389C19.6909 0.401999 19.7349 0.405999 19.7709 0.413999C19.8069 0.418 19.8389 0.427999 19.8669 0.443999C19.8949 0.455999 19.9229 0.476 19.9509 0.504C19.9789 0.528 20.0089 0.559999 20.0409 0.599999L25.0149 7.074C25.0069 6.97 24.9989 6.87 24.9909 6.774C24.9869 6.674 24.9849 6.58 24.9849 6.492V0.401999H26.0049ZM34.257 1.38H31.473V9H30.315V1.38H27.525V0.401999H34.257V1.38ZM39.4951 5.808L38.1451 2.31C38.1051 2.206 38.0631 2.086 38.0191 1.95C37.9751 1.81 37.9331 1.662 37.8931 1.506C37.8091 1.83 37.7231 2.1 37.6351 2.316L36.2851 5.808H39.4951ZM41.9191 9H41.0191C40.9151 9 40.8311 8.974 40.7671 8.922C40.7031 8.87 40.6551 8.804 40.6231 8.724L39.8191 6.648H35.9611L35.1571 8.724C35.1331 8.796 35.0871 8.86 35.0191 8.916C34.9511 8.972 34.8671 9 34.7671 9H33.8671L37.3051 0.401999H38.4811L41.9191 9ZM49.1035 7.224C49.1675 7.224 49.2235 7.25 49.2715 7.302L49.7335 7.8C49.3815 8.208 48.9535 8.526 48.4495 8.754C47.9495 8.982 47.3435 9.096 46.6315 9.096C46.0155 9.096 45.4555 8.99 44.9515 8.778C44.4475 8.562 44.0175 8.262 43.6615 7.878C43.3055 7.49 43.0295 7.026 42.8335 6.486C42.6375 5.946 42.5395 5.352 42.5395 4.704C42.5395 4.056 42.6415 3.462 42.8455 2.922C43.0495 2.382 43.3355 1.918 43.7035 1.53C44.0755 1.142 44.5195 0.842 45.0355 0.629999C45.5515 0.413999 46.1215 0.305999 46.7455 0.305999C47.3575 0.305999 47.8975 0.403999 48.3655 0.599999C48.8335 0.796 49.2455 1.062 49.6015 1.398L49.2175 1.932C49.1935 1.972 49.1615 2.006 49.1215 2.034C49.0855 2.058 49.0355 2.07 48.9715 2.07C48.8995 2.07 48.8115 2.032 48.7075 1.956C48.6035 1.876 48.4675 1.788 48.2995 1.692C48.1315 1.596 47.9215 1.51 47.6695 1.434C47.4175 1.354 47.1075 1.314 46.7395 1.314C46.2955 1.314 45.8895 1.392 45.5215 1.548C45.1535 1.7 44.8355 1.922 44.5675 2.214C44.3035 2.506 44.0975 2.862 43.9495 3.282C43.8015 3.702 43.7275 4.176 43.7275 4.704C43.7275 5.24 43.8035 5.718 43.9555 6.138C44.1115 6.558 44.3215 6.914 44.5855 7.206C44.8535 7.494 45.1675 7.714 45.5275 7.866C45.8915 8.018 46.2835 8.094 46.7035 8.094C46.9595 8.094 47.1895 8.08 47.3935 8.052C47.6015 8.02 47.7915 7.972 47.9635 7.908C48.1395 7.844 48.3015 7.764 48.4495 7.668C48.6015 7.568 48.7515 7.45 48.8995 7.314C48.9675 7.254 49.0355 7.224 49.1035 7.224ZM57.1372 1.38H54.3532V9H53.1952V1.38H50.4052V0.401999H57.1372V1.38ZM64.918 8.076C65.274 8.076 65.592 8.016 65.872 7.896C66.152 7.776 66.388 7.608 66.58 7.392C66.776 7.176 66.924 6.918 67.024 6.618C67.128 6.318 67.18 5.988 67.18 5.628V0.401999H68.338V5.628C68.338 6.124 68.258 6.584 68.098 7.008C67.942 7.432 67.716 7.8 67.42 8.112C67.128 8.42 66.77 8.662 66.346 8.838C65.922 9.014 65.446 9.102 64.918 9.102C64.39 9.102 63.914 9.014 63.49 8.838C63.066 8.662 62.706 8.42 62.41 8.112C62.114 7.8 61.886 7.432 61.726 7.008C61.57 6.584 61.492 6.124 61.492 5.628V0.401999H62.65V5.622C62.65 5.982 62.7 6.312 62.8 6.612C62.904 6.912 63.052 7.17 63.244 7.386C63.44 7.602 63.678 7.772 63.958 7.896C64.242 8.016 64.562 8.076 64.918 8.076ZM75.0623 1.746C75.0263 1.806 74.9863 1.852 74.9423 1.884C74.9023 1.912 74.8523 1.926 74.7923 1.926C74.7243 1.926 74.6443 1.892 74.5523 1.824C74.4603 1.756 74.3443 1.682 74.2043 1.602C74.0683 1.518 73.9023 1.442 73.7063 1.374C73.5143 1.306 73.2803 1.272 73.0043 1.272C72.7443 1.272 72.5143 1.308 72.3143 1.38C72.1183 1.448 71.9523 1.542 71.8163 1.662C71.6843 1.782 71.5843 1.924 71.5163 2.088C71.4483 2.248 71.4143 2.422 71.4143 2.61C71.4143 2.85 71.4723 3.05 71.5883 3.21C71.7083 3.366 71.8643 3.5 72.0563 3.612C72.2523 3.724 72.4723 3.822 72.7163 3.906C72.9643 3.986 73.2163 4.07 73.4723 4.158C73.7323 4.246 73.9843 4.346 74.2283 4.458C74.4763 4.566 74.6963 4.704 74.8883 4.872C75.0843 5.04 75.2403 5.246 75.3563 5.49C75.4763 5.734 75.5363 6.034 75.5363 6.39C75.5363 6.766 75.4723 7.12 75.3443 7.452C75.2163 7.78 75.0283 8.066 74.7803 8.31C74.5363 8.554 74.2343 8.746 73.8743 8.886C73.5183 9.026 73.1123 9.096 72.6563 9.096C72.0963 9.096 71.5883 8.996 71.1323 8.796C70.6763 8.592 70.2863 8.318 69.9623 7.974L70.2983 7.422C70.3303 7.378 70.3683 7.342 70.4123 7.314C70.4603 7.282 70.5123 7.266 70.5683 7.266C70.6203 7.266 70.6783 7.288 70.7423 7.332C70.8103 7.372 70.8863 7.424 70.9703 7.488C71.0543 7.552 71.1503 7.622 71.2583 7.698C71.3663 7.774 71.4883 7.844 71.6243 7.908C71.7643 7.972 71.9223 8.026 72.0983 8.07C72.2743 8.11 72.4723 8.13 72.6923 8.13C72.9683 8.13 73.2143 8.092 73.4303 8.016C73.6463 7.94 73.8283 7.834 73.9763 7.698C74.1283 7.558 74.2443 7.392 74.3243 7.2C74.4043 7.008 74.4443 6.794 74.4443 6.558C74.4443 6.298 74.3843 6.086 74.2643 5.922C74.1483 5.754 73.9943 5.614 73.8023 5.502C73.6103 5.39 73.3903 5.296 73.1423 5.22C72.8943 5.14 72.6423 5.06 72.3863 4.98C72.1303 4.896 71.8783 4.8 71.6303 4.692C71.3823 4.584 71.1623 4.444 70.9703 4.272C70.7783 4.1 70.6223 3.886 70.5023 3.63C70.3863 3.37 70.3283 3.05 70.3283 2.67C70.3283 2.366 70.3863 2.072 70.5023 1.788C70.6223 1.504 70.7943 1.252 71.0183 1.032C71.2463 0.812 71.5243 0.636 71.8523 0.504C72.1843 0.372 72.5643 0.305999 72.9923 0.305999C73.4723 0.305999 73.9083 0.381999 74.3003 0.534C74.6963 0.686 75.0443 0.906 75.3443 1.194L75.0623 1.746Z" fill="#232323"/>
</svg>
