<svg width="102" height="12" viewBox="0 0 102 12" fill="none" xmlns="http://www.w3.org/2000/svg">
<path d="M8.975 5.988C8.975 6.73933 8.856 7.423 8.618 8.039C8.38 8.655 8.044 9.18233 7.61 9.621C7.176 10.0597 6.65333 10.4003 6.042 10.643C5.43533 10.881 4.76333 11 4.026 11H0.281V0.968999H4.026C4.76333 0.968999 5.43533 1.09033 6.042 1.333C6.65333 1.571 7.176 1.91167 7.61 2.355C8.044 2.79367 8.38 3.321 8.618 3.937C8.856 4.553 8.975 5.23667 8.975 5.988ZM7.582 5.988C7.582 5.372 7.498 4.82133 7.33 4.336C7.162 3.85067 6.924 3.44 6.616 3.104C6.308 2.768 5.93467 2.51133 5.496 2.334C5.05733 2.15667 4.56733 2.068 4.026 2.068H1.639V9.901H4.026C4.56733 9.901 5.05733 9.81233 5.496 9.635C5.93467 9.45767 6.308 9.20333 6.616 8.872C6.924 8.536 7.162 8.12533 7.33 7.64C7.498 7.15467 7.582 6.604 7.582 5.988ZM17.3994 9.894L17.3924 11H11.2114V0.968999H17.3924V2.075H12.5694V5.407H16.4754V6.471H12.5694V9.894H17.3994ZM22.5325 6.17C22.9198 6.17 23.2605 6.11867 23.5545 6.016C23.8531 5.91333 24.1028 5.771 24.3035 5.589C24.5088 5.40233 24.6628 5.18067 24.7655 4.924C24.8681 4.66733 24.9195 4.385 24.9195 4.077C24.9195 3.43767 24.7211 2.93833 24.3245 2.579C23.9325 2.21967 23.3351 2.04 22.5325 2.04H20.9225V6.17H22.5325ZM22.5325 0.968999C23.1671 0.968999 23.7178 1.04367 24.1845 1.193C24.6558 1.33767 25.0455 1.54533 25.3535 1.816C25.6615 2.08667 25.8901 2.41333 26.0395 2.796C26.1935 3.17867 26.2705 3.60567 26.2705 4.077C26.2705 4.54367 26.1888 4.97067 26.0255 5.358C25.8621 5.74533 25.6218 6.079 25.3045 6.359C24.9918 6.639 24.6021 6.85833 24.1355 7.017C23.6735 7.171 23.1391 7.248 22.5325 7.248H20.9225V11H19.5715V0.968999H22.5325ZM32.8894 7.276L31.3144 3.195C31.2677 3.07367 31.2187 2.93367 31.1674 2.775C31.1161 2.61167 31.0671 2.439 31.0204 2.257C30.9224 2.635 30.8221 2.95 30.7194 3.202L29.1444 7.276H32.8894ZM35.7174 11H34.6674C34.5461 11 34.4481 10.9697 34.3734 10.909C34.2987 10.8483 34.2427 10.7713 34.2054 10.678L33.2674 8.256H28.7664L27.8284 10.678C27.8004 10.762 27.7467 10.8367 27.6674 10.902C27.5881 10.9673 27.4901 11 27.3734 11H26.3234L30.3344 0.968999H31.7064L35.7174 11ZM40.096 5.827C40.488 5.827 40.8333 5.78033 41.132 5.687C41.4353 5.589 41.6873 5.45367 41.888 5.281C42.0933 5.10367 42.2473 4.89367 42.35 4.651C42.4527 4.40833 42.504 4.14 42.504 3.846C42.504 3.24867 42.308 2.79833 41.916 2.495C41.524 2.19167 40.936 2.04 40.152 2.04H38.668V5.827H40.096ZM44.73 11H43.526C43.2787 11 43.0967 10.9043 42.98 10.713L40.376 7.129C40.2967 7.017 40.2103 6.93767 40.117 6.891C40.0283 6.83967 39.8883 6.814 39.697 6.814H38.668V11H37.317V0.968999H40.152C40.7867 0.968999 41.335 1.03433 41.797 1.165C42.259 1.291 42.6393 1.47533 42.938 1.718C43.2413 1.96067 43.4653 2.25467 43.61 2.6C43.7547 2.94067 43.827 3.32333 43.827 3.748C43.827 4.10267 43.771 4.434 43.659 4.742C43.547 5.05 43.3837 5.32767 43.169 5.575C42.959 5.81767 42.7 6.02533 42.392 6.198C42.0887 6.37067 41.7433 6.50133 41.356 6.59C41.5287 6.688 41.678 6.83033 41.804 7.017L44.73 11ZM52.8292 2.11H49.5812V11H48.2302V2.11H44.9752V0.968999H52.8292V2.11ZM65.0347 0.968999V11H63.8447V3.629C63.8447 3.531 63.8471 3.426 63.8517 3.314C63.8611 3.202 63.8704 3.08767 63.8797 2.971L60.4357 9.243C60.3284 9.453 60.1651 9.558 59.9457 9.558H59.7497C59.5304 9.558 59.3671 9.453 59.2597 9.243L55.7457 2.943C55.7737 3.19033 55.7877 3.419 55.7877 3.629V11H54.5977V0.968999H55.5987C55.7201 0.968999 55.8134 0.980666 55.8787 1.004C55.9441 1.02733 56.0071 1.09267 56.0677 1.2L59.5327 7.374C59.5887 7.486 59.6424 7.60267 59.6937 7.724C59.7497 7.84533 59.8011 7.969 59.8477 8.095C59.8944 7.969 59.9434 7.84533 59.9947 7.724C60.0461 7.598 60.1021 7.479 60.1627 7.367L63.5647 1.2C63.6207 1.09267 63.6814 1.02733 63.7467 1.004C63.8167 0.980666 63.9124 0.968999 64.0337 0.968999H65.0347ZM74.0677 9.894L74.0607 11H67.8797V0.968999H74.0607V2.075H69.2377V5.407H73.1437V6.471H69.2377V9.894H74.0677ZM84.3667 0.968999V11H83.6877C83.5804 11 83.4894 10.9813 83.4147 10.944C83.3447 10.9067 83.2747 10.8437 83.2047 10.755L77.4017 3.195C77.4111 3.31167 77.4181 3.426 77.4227 3.538C77.4274 3.65 77.4297 3.755 77.4297 3.853V11H76.2397V0.968999H76.9397C77.0004 0.968999 77.0517 0.973666 77.0937 0.982999C77.1357 0.987666 77.1731 0.999333 77.2057 1.018C77.2384 1.032 77.2711 1.05533 77.3037 1.088C77.3364 1.116 77.3714 1.15333 77.4087 1.2L83.2117 8.753C83.2024 8.63167 83.1931 8.515 83.1837 8.403C83.1791 8.28633 83.1767 8.17667 83.1767 8.074V0.968999H84.3667ZM93.9942 2.11H90.7462V11H89.3952V2.11H86.1402V0.968999H93.9942V2.11ZM100.853 2.537C100.811 2.607 100.764 2.66067 100.713 2.698C100.666 2.73067 100.608 2.747 100.538 2.747C100.458 2.747 100.365 2.70733 100.258 2.628C100.15 2.54867 100.015 2.46233 99.8516 2.369C99.693 2.271 99.4993 2.18233 99.2706 2.103C99.0466 2.02367 98.7736 1.984 98.4516 1.984C98.1483 1.984 97.88 2.026 97.6466 2.11C97.418 2.18933 97.2243 2.299 97.0656 2.439C96.9116 2.579 96.795 2.74467 96.7156 2.936C96.6363 3.12267 96.5966 3.32567 96.5966 3.545C96.5966 3.825 96.6643 4.05833 96.7996 4.245C96.9396 4.427 97.1216 4.58333 97.3456 4.714C97.5743 4.84467 97.831 4.959 98.1156 5.057C98.405 5.15033 98.699 5.24833 98.9976 5.351C99.301 5.45367 99.595 5.57033 99.8796 5.701C100.169 5.827 100.426 5.988 100.65 6.184C100.878 6.38 101.06 6.62033 101.196 6.905C101.336 7.18967 101.406 7.53967 101.406 7.955C101.406 8.39367 101.331 8.80667 101.182 9.194C101.032 9.57667 100.813 9.91033 100.524 10.195C100.239 10.4797 99.8866 10.7037 99.4666 10.867C99.0513 11.0303 98.5776 11.112 98.0456 11.112C97.3923 11.112 96.7996 10.9953 96.2676 10.762C95.7356 10.524 95.2806 10.2043 94.9026 9.803L95.2946 9.159C95.332 9.10767 95.3763 9.06567 95.4276 9.033C95.4836 8.99567 95.5443 8.977 95.6096 8.977C95.6703 8.977 95.738 9.00267 95.8126 9.054C95.892 9.10067 95.9806 9.16133 96.0786 9.236C96.1766 9.31067 96.2886 9.39233 96.4146 9.481C96.5406 9.56967 96.683 9.65133 96.8416 9.726C97.005 9.80067 97.1893 9.86367 97.3946 9.915C97.6 9.96167 97.831 9.985 98.0876 9.985C98.4096 9.985 98.6966 9.94067 98.9486 9.852C99.2006 9.76333 99.413 9.63967 99.5856 9.481C99.763 9.31767 99.8983 9.124 99.9916 8.9C100.085 8.676 100.132 8.42633 100.132 8.151C100.132 7.84767 100.062 7.60033 99.9216 7.409C99.7863 7.213 99.6066 7.04967 99.3826 6.919C99.1586 6.78833 98.902 6.67867 98.6126 6.59C98.3233 6.49667 98.0293 6.40333 97.7306 6.31C97.432 6.212 97.138 6.1 96.8486 5.974C96.5593 5.848 96.3026 5.68467 96.0786 5.484C95.8546 5.28333 95.6726 5.03367 95.5326 4.735C95.3973 4.43167 95.3296 4.05833 95.3296 3.615C95.3296 3.26033 95.3973 2.91733 95.5326 2.586C95.6726 2.25467 95.8733 1.96067 96.1346 1.704C96.4006 1.44733 96.725 1.242 97.1076 1.088C97.495 0.933999 97.9383 0.856999 98.4376 0.856999C98.9976 0.856999 99.5063 0.945666 99.9636 1.123C100.426 1.30033 100.832 1.557 101.182 1.893L100.853 2.537Z" fill="#232323"/>
</svg>
