<svg width="67" height="10" viewBox="0 0 67 10" fill="none" xmlns="http://www.w3.org/2000/svg">
<path d="M7.55 4.704C7.55 5.348 7.448 5.934 7.244 6.462C7.04 6.99 6.752 7.442 6.38 7.818C6.008 8.194 5.56 8.486 5.036 8.694C4.516 8.898 3.94 9 3.308 9H0.0980001V0.401999H3.308C3.94 0.401999 4.516 0.506 5.036 0.714C5.56 0.918 6.008 1.21 6.38 1.59C6.752 1.966 7.04 2.418 7.244 2.946C7.448 3.474 7.55 4.06 7.55 4.704ZM6.356 4.704C6.356 4.176 6.284 3.704 6.14 3.288C5.996 2.872 5.792 2.52 5.528 2.232C5.264 1.944 4.944 1.724 4.568 1.572C4.192 1.42 3.772 1.344 3.308 1.344H1.262V8.058H3.308C3.772 8.058 4.192 7.982 4.568 7.83C4.944 7.678 5.264 7.46 5.528 7.176C5.792 6.888 5.996 6.536 6.14 6.12C6.284 5.704 6.356 5.232 6.356 4.704ZM10.6309 9H9.46691V0.401999H10.6309V9ZM15.4522 4.566C15.7882 4.566 16.0842 4.526 16.3402 4.446C16.6002 4.362 16.8162 4.246 16.9882 4.098C17.1642 3.946 17.2962 3.766 17.3842 3.558C17.4722 3.35 17.5162 3.12 17.5162 2.868C17.5162 2.356 17.3482 1.97 17.0122 1.71C16.6762 1.45 16.1722 1.32 15.5002 1.32H14.2282V4.566H15.4522ZM19.4242 9H18.3922C18.1802 9 18.0242 8.918 17.9242 8.754L15.6922 5.682C15.6242 5.586 15.5502 5.518 15.4702 5.478C15.3942 5.434 15.2742 5.412 15.1102 5.412H14.2282V9H13.0702V0.401999H15.5002C16.0442 0.401999 16.5142 0.457999 16.9102 0.569999C17.3062 0.678 17.6322 0.836 17.8882 1.044C18.1482 1.252 18.3402 1.504 18.4642 1.8C18.5882 2.092 18.6502 2.42 18.6502 2.784C18.6502 3.088 18.6022 3.372 18.5062 3.636C18.4102 3.9 18.2702 4.138 18.0862 4.35C17.9062 4.558 17.6842 4.736 17.4202 4.884C17.1602 5.032 16.8642 5.144 16.5322 5.22C16.6802 5.304 16.8082 5.426 16.9162 5.586L19.4242 9ZM26.1376 8.052L26.1316 9H20.8336V0.401999H26.1316V1.35H21.9976V4.206H25.3456V5.118H21.9976V8.052H26.1376ZM33.8479 7.224C33.9119 7.224 33.9679 7.25 34.0159 7.302L34.4779 7.8C34.1259 8.208 33.6979 8.526 33.1939 8.754C32.6939 8.982 32.0879 9.096 31.3759 9.096C30.7599 9.096 30.1999 8.99 29.6959 8.778C29.1919 8.562 28.7619 8.262 28.4059 7.878C28.0499 7.49 27.7739 7.026 27.5779 6.486C27.3819 5.946 27.2839 5.352 27.2839 4.704C27.2839 4.056 27.3859 3.462 27.5899 2.922C27.7939 2.382 28.0799 1.918 28.4479 1.53C28.8199 1.142 29.2639 0.842 29.7799 0.629999C30.2959 0.413999 30.8659 0.305999 31.4899 0.305999C32.1019 0.305999 32.6419 0.403999 33.1099 0.599999C33.5779 0.796 33.9899 1.062 34.3459 1.398L33.9619 1.932C33.9379 1.972 33.9059 2.006 33.8659 2.034C33.8299 2.058 33.7799 2.07 33.7159 2.07C33.6439 2.07 33.5559 2.032 33.4519 1.956C33.3479 1.876 33.2119 1.788 33.0439 1.692C32.8759 1.596 32.6659 1.51 32.4139 1.434C32.1619 1.354 31.8519 1.314 31.4839 1.314C31.0399 1.314 30.6339 1.392 30.2659 1.548C29.8979 1.7 29.5799 1.922 29.3119 2.214C29.0479 2.506 28.8419 2.862 28.6939 3.282C28.5459 3.702 28.4719 4.176 28.4719 4.704C28.4719 5.24 28.5479 5.718 28.6999 6.138C28.8559 6.558 29.0659 6.914 29.3299 7.206C29.5979 7.494 29.9119 7.714 30.2719 7.866C30.6359 8.018 31.0279 8.094 31.4479 8.094C31.7039 8.094 31.9339 8.08 32.1379 8.052C32.3459 8.02 32.5359 7.972 32.7079 7.908C32.8839 7.844 33.0459 7.764 33.1939 7.668C33.3459 7.568 33.4959 7.45 33.6439 7.314C33.7119 7.254 33.7799 7.224 33.8479 7.224ZM41.8815 1.38H39.0975V9H37.9395V1.38H35.1495V0.401999H41.8815V1.38ZM50.9547 4.704C50.9547 5.348 50.8527 5.94 50.6487 6.48C50.4447 7.016 50.1567 7.478 49.7847 7.866C49.4127 8.254 48.9647 8.556 48.4407 8.772C47.9207 8.984 47.3447 9.09 46.7127 9.09C46.0807 9.09 45.5047 8.984 44.9847 8.772C44.4647 8.556 44.0187 8.254 43.6467 7.866C43.2747 7.478 42.9867 7.016 42.7827 6.48C42.5787 5.94 42.4767 5.348 42.4767 4.704C42.4767 4.06 42.5787 3.47 42.7827 2.934C42.9867 2.394 43.2747 1.93 43.6467 1.542C44.0187 1.15 44.4647 0.845999 44.9847 0.629999C45.5047 0.413999 46.0807 0.305999 46.7127 0.305999C47.3447 0.305999 47.9207 0.413999 48.4407 0.629999C48.9647 0.845999 49.4127 1.15 49.7847 1.542C50.1567 1.93 50.4447 2.394 50.6487 2.934C50.8527 3.47 50.9547 4.06 50.9547 4.704ZM49.7607 4.704C49.7607 4.176 49.6887 3.702 49.5447 3.282C49.4007 2.862 49.1967 2.508 48.9327 2.22C48.6687 1.928 48.3487 1.704 47.9727 1.548C47.5967 1.392 47.1767 1.314 46.7127 1.314C46.2527 1.314 45.8347 1.392 45.4587 1.548C45.0827 1.704 44.7607 1.928 44.4927 2.22C44.2287 2.508 44.0247 2.862 43.8807 3.282C43.7367 3.702 43.6647 4.176 43.6647 4.704C43.6647 5.232 43.7367 5.706 43.8807 6.126C44.0247 6.542 44.2287 6.896 44.4927 7.188C44.7607 7.476 45.0827 7.698 45.4587 7.854C45.8347 8.006 46.2527 8.082 46.7127 8.082C47.1767 8.082 47.5967 8.006 47.9727 7.854C48.3487 7.698 48.6687 7.476 48.9327 7.188C49.1967 6.896 49.4007 6.542 49.5447 6.126C49.6887 5.706 49.7607 5.232 49.7607 4.704ZM55.242 4.566C55.578 4.566 55.874 4.526 56.13 4.446C56.39 4.362 56.606 4.246 56.778 4.098C56.954 3.946 57.086 3.766 57.174 3.558C57.262 3.35 57.306 3.12 57.306 2.868C57.306 2.356 57.138 1.97 56.802 1.71C56.466 1.45 55.962 1.32 55.29 1.32H54.018V4.566H55.242ZM59.214 9H58.182C57.97 9 57.814 8.918 57.714 8.754L55.482 5.682C55.414 5.586 55.34 5.518 55.26 5.478C55.184 5.434 55.064 5.412 54.9 5.412H54.018V9H52.86V0.401999H55.29C55.834 0.401999 56.304 0.457999 56.7 0.569999C57.096 0.678 57.422 0.836 57.678 1.044C57.938 1.252 58.13 1.504 58.254 1.8C58.378 2.092 58.44 2.42 58.44 2.784C58.44 3.088 58.392 3.372 58.296 3.636C58.2 3.9 58.06 4.138 57.876 4.35C57.696 4.558 57.474 4.736 57.21 4.884C56.95 5.032 56.654 5.144 56.322 5.22C56.47 5.304 56.598 5.426 56.706 5.586L59.214 9ZM63.5233 5.574V9H62.3593V5.574L59.2093 0.401999H60.2293C60.3333 0.401999 60.4153 0.427999 60.4753 0.48C60.5353 0.527999 60.5873 0.592 60.6313 0.672L62.5993 4.014C62.6713 4.154 62.7373 4.286 62.7973 4.41C62.8573 4.53 62.9093 4.652 62.9533 4.776C62.9973 4.652 63.0473 4.53 63.1033 4.41C63.1593 4.286 63.2213 4.154 63.2893 4.014L65.2513 0.672C65.2873 0.604 65.3373 0.542 65.4013 0.486C65.4653 0.43 65.5473 0.401999 65.6473 0.401999H66.6733L63.5233 5.574Z" fill="#232323"/>
</svg>
