<svg width="24" height="10" viewBox="0 0 24 10" fill="none" xmlns="http://www.w3.org/2000/svg">
<path d="M5.402 8.052L5.396 9H0.0980001V0.401999H5.396V1.35H1.262V4.206H4.61V5.118H1.262V8.052H5.402ZM13.9898 0.401999V9H13.4078C13.3158 9 13.2378 8.984 13.1738 8.952C13.1138 8.92 13.0538 8.866 12.9938 8.79L8.01978 2.31C8.02778 2.41 8.03378 2.508 8.03778 2.604C8.04178 2.7 8.04378 2.79 8.04378 2.874V9H7.02378V0.401999H7.62378C7.67578 0.401999 7.71978 0.405999 7.75578 0.413999C7.79178 0.418 7.82378 0.427999 7.85178 0.443999C7.87978 0.455999 7.90778 0.476 7.93578 0.504C7.96378 0.528 7.99378 0.559999 8.02578 0.599999L12.9998 7.074C12.9918 6.97 12.9838 6.87 12.9758 6.774C12.9718 6.674 12.9698 6.58 12.9698 6.492V0.401999H13.9898ZM23.1718 4.866V8.166C22.7398 8.478 22.2778 8.712 21.7858 8.868C21.2978 9.02 20.7618 9.096 20.1778 9.096C19.4858 9.096 18.8618 8.99 18.3058 8.778C17.7498 8.562 17.2738 8.262 16.8778 7.878C16.4858 7.49 16.1838 7.026 15.9718 6.486C15.7598 5.946 15.6538 5.352 15.6538 4.704C15.6538 4.048 15.7558 3.45 15.9598 2.91C16.1678 2.37 16.4618 1.908 16.8418 1.524C17.2218 1.136 17.6838 0.836 18.2278 0.624C18.7718 0.411999 19.3798 0.305999 20.0518 0.305999C20.3918 0.305999 20.7078 0.331999 20.9998 0.383999C21.2918 0.432 21.5618 0.504 21.8098 0.599999C22.0578 0.691999 22.2878 0.806 22.4998 0.942C22.7118 1.074 22.9098 1.224 23.0938 1.392L22.7638 1.92C22.7118 2 22.6438 2.052 22.5598 2.076C22.4798 2.096 22.3898 2.076 22.2898 2.016C22.1938 1.96 22.0838 1.892 21.9598 1.812C21.8358 1.732 21.6838 1.656 21.5038 1.584C21.3278 1.508 21.1178 1.444 20.8738 1.392C20.6338 1.34 20.3478 1.314 20.0158 1.314C19.5318 1.314 19.0938 1.394 18.7018 1.554C18.3098 1.71 17.9758 1.936 17.6998 2.232C17.4238 2.524 17.2118 2.88 17.0638 3.3C16.9158 3.716 16.8418 4.184 16.8418 4.704C16.8418 5.244 16.9178 5.728 17.0698 6.156C17.2258 6.58 17.4458 6.942 17.7298 7.242C18.0178 7.538 18.3658 7.764 18.7738 7.92C19.1818 8.076 19.6398 8.154 20.1478 8.154C20.5478 8.154 20.9018 8.11 21.2098 8.022C21.5218 7.93 21.8258 7.804 22.1218 7.644V5.754H20.7838C20.7078 5.754 20.6458 5.732 20.5978 5.688C20.5538 5.644 20.5318 5.59 20.5318 5.526V4.866H23.1718Z" fill="#232323"/>
</svg>
