<svg width="70" height="12" viewBox="0 0 70 12" fill="none" xmlns="http://www.w3.org/2000/svg">
<path d="M1.639 11H0.281V0.968999H1.639V11ZM12.6118 0.968999V11H11.9328C11.8255 11 11.7345 10.9813 11.6598 10.944C11.5898 10.9067 11.5198 10.8437 11.4498 10.755L5.64683 3.195C5.65616 3.31167 5.66316 3.426 5.66783 3.538C5.6725 3.65 5.67483 3.755 5.67483 3.853V11H4.48483V0.968999H5.18483C5.2455 0.968999 5.29683 0.973666 5.33883 0.982999C5.38083 0.987666 5.41816 0.999333 5.45083 1.018C5.4835 1.032 5.51616 1.05533 5.54883 1.088C5.5815 1.116 5.6165 1.15333 5.65383 1.2L11.4568 8.753C11.4475 8.63167 11.4382 8.515 11.4288 8.403C11.4242 8.28633 11.4218 8.17667 11.4218 8.074V0.968999H12.6118ZM20.5872 2.537C20.5452 2.607 20.4986 2.66067 20.4472 2.698C20.4006 2.73067 20.3422 2.747 20.2722 2.747C20.1929 2.747 20.0996 2.70733 19.9922 2.628C19.8849 2.54867 19.7496 2.46233 19.5862 2.369C19.4276 2.271 19.2339 2.18233 19.0052 2.103C18.7812 2.02367 18.5082 1.984 18.1862 1.984C17.8829 1.984 17.6146 2.026 17.3812 2.11C17.1526 2.18933 16.9589 2.299 16.8002 2.439C16.6462 2.579 16.5296 2.74467 16.4502 2.936C16.3709 3.12267 16.3312 3.32567 16.3312 3.545C16.3312 3.825 16.3989 4.05833 16.5342 4.245C16.6742 4.427 16.8562 4.58333 17.0802 4.714C17.3089 4.84467 17.5656 4.959 17.8502 5.057C18.1396 5.15033 18.4336 5.24833 18.7322 5.351C19.0356 5.45367 19.3296 5.57033 19.6142 5.701C19.9036 5.827 20.1602 5.988 20.3842 6.184C20.6129 6.38 20.7949 6.62033 20.9302 6.905C21.0702 7.18967 21.1402 7.53967 21.1402 7.955C21.1402 8.39367 21.0656 8.80667 20.9162 9.194C20.7669 9.57667 20.5476 9.91033 20.2582 10.195C19.9736 10.4797 19.6212 10.7037 19.2012 10.867C18.7859 11.0303 18.3122 11.112 17.7802 11.112C17.1269 11.112 16.5342 10.9953 16.0022 10.762C15.4702 10.524 15.0152 10.2043 14.6372 9.803L15.0292 9.159C15.0666 9.10767 15.1109 9.06567 15.1622 9.033C15.2182 8.99567 15.2789 8.977 15.3442 8.977C15.4049 8.977 15.4726 9.00267 15.5472 9.054C15.6266 9.10067 15.7152 9.16133 15.8132 9.236C15.9112 9.31067 16.0232 9.39233 16.1492 9.481C16.2752 9.56967 16.4176 9.65133 16.5762 9.726C16.7396 9.80067 16.9239 9.86367 17.1292 9.915C17.3346 9.96167 17.5656 9.985 17.8222 9.985C18.1442 9.985 18.4312 9.94067 18.6832 9.852C18.9352 9.76333 19.1476 9.63967 19.3202 9.481C19.4976 9.31767 19.6329 9.124 19.7262 8.9C19.8196 8.676 19.8662 8.42633 19.8662 8.151C19.8662 7.84767 19.7962 7.60033 19.6562 7.409C19.5209 7.213 19.3412 7.04967 19.1172 6.919C18.8932 6.78833 18.6366 6.67867 18.3472 6.59C18.0579 6.49667 17.7639 6.40333 17.4652 6.31C17.1666 6.212 16.8726 6.1 16.5832 5.974C16.2939 5.848 16.0372 5.68467 15.8132 5.484C15.5892 5.28333 15.4072 5.03367 15.2672 4.735C15.1319 4.43167 15.0642 4.05833 15.0642 3.615C15.0642 3.26033 15.1319 2.91733 15.2672 2.586C15.4072 2.25467 15.6079 1.96067 15.8692 1.704C16.1352 1.44733 16.4596 1.242 16.8422 1.088C17.2296 0.933999 17.6729 0.856999 18.1722 0.856999C18.7322 0.856999 19.2409 0.945666 19.6982 1.123C20.1602 1.30033 20.5662 1.557 20.9162 1.893L20.5872 2.537ZM30.1208 2.11H26.8728V11H25.5218V2.11H22.2668V0.968999H30.1208V2.11ZM33.2473 11H31.8893V0.968999H33.2473V11ZM42.8761 2.11H39.6281V11H38.2771V2.11H35.0221V0.968999H42.8761V2.11ZM48.5156 9.922C48.9309 9.922 49.3019 9.852 49.6286 9.712C49.9553 9.572 50.2306 9.376 50.4546 9.124C50.6833 8.872 50.8559 8.571 50.9726 8.221C51.0939 7.871 51.1546 7.486 51.1546 7.066V0.968999H52.5056V7.066C52.5056 7.64467 52.4123 8.18133 52.2256 8.676C52.0436 9.17067 51.7799 9.6 51.4346 9.964C51.0939 10.3233 50.6763 10.6057 50.1816 10.811C49.6869 11.0163 49.1316 11.119 48.5156 11.119C47.8996 11.119 47.3443 11.0163 46.8496 10.811C46.3549 10.6057 45.9349 10.3233 45.5896 9.964C45.2443 9.6 44.9783 9.17067 44.7916 8.676C44.6096 8.18133 44.5186 7.64467 44.5186 7.066V0.968999H45.8696V7.059C45.8696 7.479 45.9279 7.864 46.0446 8.214C46.1659 8.564 46.3386 8.865 46.5626 9.117C46.7913 9.369 47.0689 9.56733 47.3956 9.712C47.7269 9.852 48.1003 9.922 48.5156 9.922ZM62.0025 2.11H58.7545V11H57.4035V2.11H54.1485V0.968999H62.0025V2.11ZM69.959 9.894L69.952 11H63.771V0.968999H69.952V2.075H65.129V5.407H69.035V6.471H65.129V9.894H69.959Z" fill="#232323"/>
</svg>
