<svg width="91" height="12" viewBox="0 0 91 12" fill="none" xmlns="http://www.w3.org/2000/svg">
<path d="M3.242 6.17C3.62933 6.17 3.97 6.11867 4.264 6.016C4.56267 5.91333 4.81233 5.771 5.013 5.589C5.21833 5.40233 5.37233 5.18067 5.475 4.924C5.57767 4.66733 5.629 4.385 5.629 4.077C5.629 3.43767 5.43067 2.93833 5.034 2.579C4.642 2.21967 4.04467 2.04 3.242 2.04H1.632V6.17H3.242ZM3.242 0.968999C3.87667 0.968999 4.42733 1.04367 4.894 1.193C5.36533 1.33767 5.755 1.54533 6.063 1.816C6.371 2.08667 6.59967 2.41333 6.749 2.796C6.903 3.17867 6.98 3.60567 6.98 4.077C6.98 4.54367 6.89833 4.97067 6.735 5.358C6.57167 5.74533 6.33133 6.079 6.014 6.359C5.70133 6.639 5.31167 6.85833 4.845 7.017C4.383 7.171 3.84867 7.248 3.242 7.248H1.632V11H0.281V0.968999H3.242ZM14.6602 9.859V11H8.9692V0.968999H10.3202V9.859H14.6602ZM21.7676 7.276L20.1926 3.195C20.1459 3.07367 20.0969 2.93367 20.0456 2.775C19.9943 2.61167 19.9453 2.439 19.8986 2.257C19.8006 2.635 19.7003 2.95 19.5976 3.202L18.0226 7.276H21.7676ZM24.5956 11H23.5456C23.4243 11 23.3263 10.9697 23.2516 10.909C23.1769 10.8483 23.1209 10.7713 23.0836 10.678L22.1456 8.256H17.6446L16.7066 10.678C16.6786 10.762 16.6249 10.8367 16.5456 10.902C16.4663 10.9673 16.3683 11 16.2516 11H15.2016L19.2126 0.968999H20.5846L24.5956 11ZM32.9775 8.928C33.0521 8.928 33.1175 8.95833 33.1735 9.019L33.7125 9.6C33.3018 10.076 32.8025 10.447 32.2145 10.713C31.6311 10.979 30.9241 11.112 30.0935 11.112C29.3748 11.112 28.7215 10.9883 28.1335 10.741C27.5455 10.489 27.0438 10.139 26.6285 9.691C26.2131 9.23833 25.8911 8.697 25.6625 8.067C25.4338 7.437 25.3195 6.744 25.3195 5.988C25.3195 5.232 25.4385 4.539 25.6765 3.909C25.9145 3.279 26.2481 2.73767 26.6775 2.285C27.1115 1.83233 27.6295 1.48233 28.2315 1.235C28.8335 0.982999 29.4985 0.856999 30.2265 0.856999C30.9405 0.856999 31.5705 0.971333 32.1165 1.2C32.6625 1.42867 33.1431 1.739 33.5585 2.131L33.1105 2.754C33.0825 2.80067 33.0451 2.84033 32.9985 2.873C32.9565 2.901 32.8981 2.915 32.8235 2.915C32.7395 2.915 32.6368 2.87067 32.5155 2.782C32.3941 2.68867 32.2355 2.586 32.0395 2.474C31.8435 2.362 31.5985 2.26167 31.3045 2.173C31.0105 2.07967 30.6488 2.033 30.2195 2.033C29.7015 2.033 29.2278 2.124 28.7985 2.306C28.3691 2.48333 27.9981 2.74233 27.6855 3.083C27.3775 3.42367 27.1371 3.839 26.9645 4.329C26.7918 4.819 26.7055 5.372 26.7055 5.988C26.7055 6.61333 26.7941 7.171 26.9715 7.661C27.1535 8.151 27.3985 8.56633 27.7065 8.907C28.0191 9.243 28.3855 9.49967 28.8055 9.677C29.2301 9.85433 29.6875 9.943 30.1775 9.943C30.4761 9.943 30.7445 9.92667 30.9825 9.894C31.2251 9.85667 31.4468 9.80067 31.6475 9.726C31.8528 9.65133 32.0418 9.558 32.2145 9.446C32.3918 9.32933 32.5668 9.19167 32.7395 9.033C32.8188 8.963 32.8981 8.928 32.9775 8.928ZM41.755 9.894L41.748 11H35.567V0.968999H41.748V2.075H36.925V5.407H40.831V6.471H36.925V9.894H41.755ZM54.3641 0.968999V11H53.1741V3.629C53.1741 3.531 53.1764 3.426 53.1811 3.314C53.1904 3.202 53.1998 3.08767 53.2091 2.971L49.7651 9.243C49.6578 9.453 49.4944 9.558 49.2751 9.558H49.0791C48.8598 9.558 48.6964 9.453 48.5891 9.243L45.0751 2.943C45.1031 3.19033 45.1171 3.419 45.1171 3.629V11H43.9271V0.968999H44.9281C45.0494 0.968999 45.1428 0.980666 45.2081 1.004C45.2734 1.02733 45.3364 1.09267 45.3971 1.2L48.8621 7.374C48.9181 7.486 48.9718 7.60267 49.0231 7.724C49.0791 7.84533 49.1304 7.969 49.1771 8.095C49.2238 7.969 49.2728 7.84533 49.3241 7.724C49.3754 7.598 49.4314 7.479 49.4921 7.367L52.8941 1.2C52.9501 1.09267 53.0108 1.02733 53.0761 1.004C53.1461 0.980666 53.2418 0.968999 53.3631 0.968999H54.3641ZM63.397 9.894L63.39 11H57.209V0.968999H63.39V2.075H58.567V5.407H62.473V6.471H58.567V9.894H63.397ZM73.6961 0.968999V11H73.0171C72.9098 11 72.8188 10.9813 72.7441 10.944C72.6741 10.9067 72.6041 10.8437 72.5341 10.755L66.7311 3.195C66.7405 3.31167 66.7475 3.426 66.7521 3.538C66.7568 3.65 66.7591 3.755 66.7591 3.853V11H65.5691V0.968999H66.2691C66.3298 0.968999 66.3811 0.973666 66.4231 0.982999C66.4651 0.987666 66.5025 0.999333 66.5351 1.018C66.5678 1.032 66.6005 1.05533 66.6331 1.088C66.6658 1.116 66.7008 1.15333 66.7381 1.2L72.5411 8.753C72.5318 8.63167 72.5225 8.515 72.5131 8.403C72.5085 8.28633 72.5061 8.17667 72.5061 8.074V0.968999H73.6961ZM83.3235 2.11H80.0755V11H78.7245V2.11H75.4695V0.968999H83.3235V2.11ZM90.182 2.537C90.14 2.607 90.0933 2.66067 90.042 2.698C89.9953 2.73067 89.937 2.747 89.867 2.747C89.7877 2.747 89.6943 2.70733 89.587 2.628C89.4797 2.54867 89.3443 2.46233 89.181 2.369C89.0223 2.271 88.8287 2.18233 88.6 2.103C88.376 2.02367 88.103 1.984 87.781 1.984C87.4777 1.984 87.2093 2.026 86.976 2.11C86.7473 2.18933 86.5537 2.299 86.395 2.439C86.241 2.579 86.1243 2.74467 86.045 2.936C85.9657 3.12267 85.926 3.32567 85.926 3.545C85.926 3.825 85.9937 4.05833 86.129 4.245C86.269 4.427 86.451 4.58333 86.675 4.714C86.9037 4.84467 87.1603 4.959 87.445 5.057C87.7343 5.15033 88.0283 5.24833 88.327 5.351C88.6303 5.45367 88.9243 5.57033 89.209 5.701C89.4983 5.827 89.755 5.988 89.979 6.184C90.2077 6.38 90.3897 6.62033 90.525 6.905C90.665 7.18967 90.735 7.53967 90.735 7.955C90.735 8.39367 90.6603 8.80667 90.511 9.194C90.3617 9.57667 90.1423 9.91033 89.853 10.195C89.5683 10.4797 89.216 10.7037 88.796 10.867C88.3807 11.0303 87.907 11.112 87.375 11.112C86.7217 11.112 86.129 10.9953 85.597 10.762C85.065 10.524 84.61 10.2043 84.232 9.803L84.624 9.159C84.6613 9.10767 84.7057 9.06567 84.757 9.033C84.813 8.99567 84.8737 8.977 84.939 8.977C84.9997 8.977 85.0673 9.00267 85.142 9.054C85.2213 9.10067 85.31 9.16133 85.408 9.236C85.506 9.31067 85.618 9.39233 85.744 9.481C85.87 9.56967 86.0123 9.65133 86.171 9.726C86.3343 9.80067 86.5187 9.86367 86.724 9.915C86.9293 9.96167 87.1603 9.985 87.417 9.985C87.739 9.985 88.026 9.94067 88.278 9.852C88.53 9.76333 88.7423 9.63967 88.915 9.481C89.0923 9.31767 89.2277 9.124 89.321 8.9C89.4143 8.676 89.461 8.42633 89.461 8.151C89.461 7.84767 89.391 7.60033 89.251 7.409C89.1157 7.213 88.936 7.04967 88.712 6.919C88.488 6.78833 88.2313 6.67867 87.942 6.59C87.6527 6.49667 87.3587 6.40333 87.06 6.31C86.7613 6.212 86.4673 6.1 86.178 5.974C85.8887 5.848 85.632 5.68467 85.408 5.484C85.184 5.28333 85.002 5.03367 84.862 4.735C84.7267 4.43167 84.659 4.05833 84.659 3.615C84.659 3.26033 84.7267 2.91733 84.862 2.586C85.002 2.25467 85.2027 1.96067 85.464 1.704C85.73 1.44733 86.0543 1.242 86.437 1.088C86.8243 0.933999 87.2677 0.856999 87.767 0.856999C88.327 0.856999 88.8357 0.945666 89.293 1.123C89.755 1.30033 90.161 1.557 90.511 1.893L90.182 2.537Z" fill="#232323"/>
</svg>
