<svg width="71" height="12" viewBox="0 0 71 12" fill="none" xmlns="http://www.w3.org/2000/svg">
<path d="M3.06 5.827C3.452 5.827 3.79733 5.78033 4.096 5.687C4.39933 5.589 4.65133 5.45367 4.852 5.281C5.05733 5.10367 5.21133 4.89367 5.314 4.651C5.41667 4.40833 5.468 4.14 5.468 3.846C5.468 3.24867 5.272 2.79833 4.88 2.495C4.488 2.19167 3.9 2.04 3.116 2.04H1.632V5.827H3.06ZM7.694 11H6.49C6.24267 11 6.06067 10.9043 5.944 10.713L3.34 7.129C3.26067 7.017 3.17433 6.93767 3.081 6.891C2.99233 6.83967 2.85233 6.814 2.661 6.814H1.632V11H0.281V0.968999H3.116C3.75067 0.968999 4.299 1.03433 4.761 1.165C5.223 1.291 5.60333 1.47533 5.902 1.718C6.20533 1.96067 6.42933 2.25467 6.574 2.6C6.71867 2.94067 6.791 3.32333 6.791 3.748C6.791 4.10267 6.735 4.434 6.623 4.742C6.511 5.05 6.34767 5.32767 6.133 5.575C5.923 5.81767 5.664 6.02533 5.356 6.198C5.05267 6.37067 4.70733 6.50133 4.32 6.59C4.49267 6.688 4.642 6.83033 4.768 7.017L7.694 11ZM15.5263 9.894L15.5193 11H9.33834V0.968999H15.5193V2.075H10.6963V5.407H14.6023V6.471H10.6963V9.894H15.5263ZM22.8294 2.537C22.7874 2.607 22.7408 2.66067 22.6894 2.698C22.6428 2.73067 22.5844 2.747 22.5144 2.747C22.4351 2.747 22.3418 2.70733 22.2344 2.628C22.1271 2.54867 21.9918 2.46233 21.8284 2.369C21.6698 2.271 21.4761 2.18233 21.2474 2.103C21.0234 2.02367 20.7504 1.984 20.4284 1.984C20.1251 1.984 19.8568 2.026 19.6234 2.11C19.3948 2.18933 19.2011 2.299 19.0424 2.439C18.8884 2.579 18.7718 2.74467 18.6924 2.936C18.6131 3.12267 18.5734 3.32567 18.5734 3.545C18.5734 3.825 18.6411 4.05833 18.7764 4.245C18.9164 4.427 19.0984 4.58333 19.3224 4.714C19.5511 4.84467 19.8078 4.959 20.0924 5.057C20.3818 5.15033 20.6758 5.24833 20.9744 5.351C21.2778 5.45367 21.5718 5.57033 21.8564 5.701C22.1458 5.827 22.4024 5.988 22.6264 6.184C22.8551 6.38 23.0371 6.62033 23.1724 6.905C23.3124 7.18967 23.3824 7.53967 23.3824 7.955C23.3824 8.39367 23.3078 8.80667 23.1584 9.194C23.0091 9.57667 22.7898 9.91033 22.5004 10.195C22.2158 10.4797 21.8634 10.7037 21.4434 10.867C21.0281 11.0303 20.5544 11.112 20.0224 11.112C19.3691 11.112 18.7764 10.9953 18.2444 10.762C17.7124 10.524 17.2574 10.2043 16.8794 9.803L17.2714 9.159C17.3088 9.10767 17.3531 9.06567 17.4044 9.033C17.4604 8.99567 17.5211 8.977 17.5864 8.977C17.6471 8.977 17.7148 9.00267 17.7894 9.054C17.8688 9.10067 17.9574 9.16133 18.0554 9.236C18.1534 9.31067 18.2654 9.39233 18.3914 9.481C18.5174 9.56967 18.6598 9.65133 18.8184 9.726C18.9818 9.80067 19.1661 9.86367 19.3714 9.915C19.5768 9.96167 19.8078 9.985 20.0644 9.985C20.3864 9.985 20.6734 9.94067 20.9254 9.852C21.1774 9.76333 21.3898 9.63967 21.5624 9.481C21.7398 9.31767 21.8751 9.124 21.9684 8.9C22.0618 8.676 22.1084 8.42633 22.1084 8.151C22.1084 7.84767 22.0384 7.60033 21.8984 7.409C21.7631 7.213 21.5834 7.04967 21.3594 6.919C21.1354 6.78833 20.8788 6.67867 20.5894 6.59C20.3001 6.49667 20.0061 6.40333 19.7074 6.31C19.4088 6.212 19.1148 6.1 18.8254 5.974C18.5361 5.848 18.2794 5.68467 18.0554 5.484C17.8314 5.28333 17.6494 5.03367 17.5094 4.735C17.3741 4.43167 17.3064 4.05833 17.3064 3.615C17.3064 3.26033 17.3741 2.91733 17.5094 2.586C17.6494 2.25467 17.8501 1.96067 18.1114 1.704C18.3774 1.44733 18.7018 1.242 19.0844 1.088C19.4718 0.933999 19.9151 0.856999 20.4144 0.856999C20.9744 0.856999 21.4831 0.945666 21.9404 1.123C22.4024 1.30033 22.8084 1.557 23.1584 1.893L22.8294 2.537ZM31.768 9.894L31.761 11H25.58V0.968999H31.761V2.075H26.938V5.407H30.844V6.471H26.938V9.894H31.768ZM39.2671 7.276L37.6921 3.195C37.6454 3.07367 37.5964 2.93367 37.5451 2.775C37.4937 2.61167 37.4447 2.439 37.3981 2.257C37.3001 2.635 37.1997 2.95 37.0971 3.202L35.5221 7.276H39.2671ZM42.0951 11H41.0451C40.9237 11 40.8257 10.9697 40.7511 10.909C40.6764 10.8483 40.6204 10.7713 40.5831 10.678L39.6451 8.256H35.1441L34.2061 10.678C34.1781 10.762 34.1244 10.8367 34.0451 10.902C33.9657 10.9673 33.8677 11 33.7511 11H32.7011L36.7121 0.968999H38.0841L42.0951 11ZM46.4737 5.827C46.8657 5.827 47.211 5.78033 47.5097 5.687C47.813 5.589 48.065 5.45367 48.2657 5.281C48.471 5.10367 48.625 4.89367 48.7277 4.651C48.8303 4.40833 48.8817 4.14 48.8817 3.846C48.8817 3.24867 48.6857 2.79833 48.2937 2.495C47.9017 2.19167 47.3137 2.04 46.5297 2.04H45.0457V5.827H46.4737ZM51.1077 11H49.9037C49.6563 11 49.4743 10.9043 49.3577 10.713L46.7537 7.129C46.6743 7.017 46.588 6.93767 46.4947 6.891C46.406 6.83967 46.266 6.814 46.0747 6.814H45.0457V11H43.6947V0.968999H46.5297C47.1643 0.968999 47.7127 1.03433 48.1747 1.165C48.6367 1.291 49.017 1.47533 49.3157 1.718C49.619 1.96067 49.843 2.25467 49.9877 2.6C50.1323 2.94067 50.2047 3.32333 50.2047 3.748C50.2047 4.10267 50.1487 4.434 50.0367 4.742C49.9247 5.05 49.7613 5.32767 49.5467 5.575C49.3367 5.81767 49.0777 6.02533 48.7697 6.198C48.4663 6.37067 48.121 6.50133 47.7337 6.59C47.9063 6.688 48.0557 6.83033 48.1817 7.017L51.1077 11ZM59.6983 8.928C59.773 8.928 59.8383 8.95833 59.8943 9.019L60.4333 9.6C60.0226 10.076 59.5233 10.447 58.9353 10.713C58.352 10.979 57.645 11.112 56.8143 11.112C56.0956 11.112 55.4423 10.9883 54.8543 10.741C54.2663 10.489 53.7646 10.139 53.3493 9.691C52.934 9.23833 52.612 8.697 52.3833 8.067C52.1546 7.437 52.0403 6.744 52.0403 5.988C52.0403 5.232 52.1593 4.539 52.3973 3.909C52.6353 3.279 52.969 2.73767 53.3983 2.285C53.8323 1.83233 54.3503 1.48233 54.9523 1.235C55.5543 0.982999 56.2193 0.856999 56.9473 0.856999C57.6613 0.856999 58.2913 0.971333 58.8373 1.2C59.3833 1.42867 59.864 1.739 60.2793 2.131L59.8313 2.754C59.8033 2.80067 59.766 2.84033 59.7193 2.873C59.6773 2.901 59.619 2.915 59.5443 2.915C59.4603 2.915 59.3576 2.87067 59.2363 2.782C59.115 2.68867 58.9563 2.586 58.7603 2.474C58.5643 2.362 58.3193 2.26167 58.0253 2.173C57.7313 2.07967 57.3696 2.033 56.9403 2.033C56.4223 2.033 55.9486 2.124 55.5193 2.306C55.09 2.48333 54.719 2.74233 54.4063 3.083C54.0983 3.42367 53.858 3.839 53.6853 4.329C53.5126 4.819 53.4263 5.372 53.4263 5.988C53.4263 6.61333 53.515 7.171 53.6923 7.661C53.8743 8.151 54.1193 8.56633 54.4273 8.907C54.74 9.243 55.1063 9.49967 55.5263 9.677C55.951 9.85433 56.4083 9.943 56.8983 9.943C57.197 9.943 57.4653 9.92667 57.7033 9.894C57.946 9.85667 58.1676 9.80067 58.3683 9.726C58.5736 9.65133 58.7626 9.558 58.9353 9.446C59.1126 9.32933 59.2876 9.19167 59.4603 9.033C59.5396 8.963 59.619 8.928 59.6983 8.928ZM70.4149 0.968999V11H69.0569V6.436H63.6459V11H62.2879V0.968999H63.6459V5.442H69.0569V0.968999H70.4149Z" fill="#232323"/>
</svg>
