<svg width="81" height="12" viewBox="0 0 81 12" fill="none" xmlns="http://www.w3.org/2000/svg">
<path d="M3.06 5.827C3.452 5.827 3.79733 5.78033 4.096 5.687C4.39933 5.589 4.65133 5.45367 4.852 5.281C5.05733 5.10367 5.21133 4.89367 5.314 4.651C5.41667 4.40833 5.468 4.14 5.468 3.846C5.468 3.24867 5.272 2.79833 4.88 2.495C4.488 2.19167 3.9 2.04 3.116 2.04H1.632V5.827H3.06ZM7.694 11H6.49C6.24267 11 6.06067 10.9043 5.944 10.713L3.34 7.129C3.26067 7.017 3.17433 6.93767 3.081 6.891C2.99233 6.83967 2.85233 6.814 2.661 6.814H1.632V11H0.281V0.968999H3.116C3.75067 0.968999 4.299 1.03433 4.761 1.165C5.223 1.291 5.60333 1.47533 5.902 1.718C6.20533 1.96067 6.42933 2.25467 6.574 2.6C6.71867 2.94067 6.791 3.32333 6.791 3.748C6.791 4.10267 6.735 4.434 6.623 4.742C6.511 5.05 6.34767 5.32767 6.133 5.575C5.923 5.81767 5.664 6.02533 5.356 6.198C5.05267 6.37067 4.70733 6.50133 4.32 6.59C4.49267 6.688 4.642 6.83033 4.768 7.017L7.694 11ZM15.5263 9.894L15.5193 11H9.33834V0.968999H15.5193V2.075H10.6963V5.407H14.6023V6.471H10.6963V9.894H15.5263ZM22.8294 2.537C22.7874 2.607 22.7408 2.66067 22.6894 2.698C22.6428 2.73067 22.5844 2.747 22.5144 2.747C22.4351 2.747 22.3418 2.70733 22.2344 2.628C22.1271 2.54867 21.9918 2.46233 21.8284 2.369C21.6698 2.271 21.4761 2.18233 21.2474 2.103C21.0234 2.02367 20.7504 1.984 20.4284 1.984C20.1251 1.984 19.8568 2.026 19.6234 2.11C19.3948 2.18933 19.2011 2.299 19.0424 2.439C18.8884 2.579 18.7718 2.74467 18.6924 2.936C18.6131 3.12267 18.5734 3.32567 18.5734 3.545C18.5734 3.825 18.6411 4.05833 18.7764 4.245C18.9164 4.427 19.0984 4.58333 19.3224 4.714C19.5511 4.84467 19.8078 4.959 20.0924 5.057C20.3818 5.15033 20.6758 5.24833 20.9744 5.351C21.2778 5.45367 21.5718 5.57033 21.8564 5.701C22.1458 5.827 22.4024 5.988 22.6264 6.184C22.8551 6.38 23.0371 6.62033 23.1724 6.905C23.3124 7.18967 23.3824 7.53967 23.3824 7.955C23.3824 8.39367 23.3078 8.80667 23.1584 9.194C23.0091 9.57667 22.7898 9.91033 22.5004 10.195C22.2158 10.4797 21.8634 10.7037 21.4434 10.867C21.0281 11.0303 20.5544 11.112 20.0224 11.112C19.3691 11.112 18.7764 10.9953 18.2444 10.762C17.7124 10.524 17.2574 10.2043 16.8794 9.803L17.2714 9.159C17.3088 9.10767 17.3531 9.06567 17.4044 9.033C17.4604 8.99567 17.5211 8.977 17.5864 8.977C17.6471 8.977 17.7148 9.00267 17.7894 9.054C17.8688 9.10067 17.9574 9.16133 18.0554 9.236C18.1534 9.31067 18.2654 9.39233 18.3914 9.481C18.5174 9.56967 18.6598 9.65133 18.8184 9.726C18.9818 9.80067 19.1661 9.86367 19.3714 9.915C19.5768 9.96167 19.8078 9.985 20.0644 9.985C20.3864 9.985 20.6734 9.94067 20.9254 9.852C21.1774 9.76333 21.3898 9.63967 21.5624 9.481C21.7398 9.31767 21.8751 9.124 21.9684 8.9C22.0618 8.676 22.1084 8.42633 22.1084 8.151C22.1084 7.84767 22.0384 7.60033 21.8984 7.409C21.7631 7.213 21.5834 7.04967 21.3594 6.919C21.1354 6.78833 20.8788 6.67867 20.5894 6.59C20.3001 6.49667 20.0061 6.40333 19.7074 6.31C19.4088 6.212 19.1148 6.1 18.8254 5.974C18.5361 5.848 18.2794 5.68467 18.0554 5.484C17.8314 5.28333 17.6494 5.03367 17.5094 4.735C17.3741 4.43167 17.3064 4.05833 17.3064 3.615C17.3064 3.26033 17.3741 2.91733 17.5094 2.586C17.6494 2.25467 17.8501 1.96067 18.1114 1.704C18.3774 1.44733 18.7018 1.242 19.0844 1.088C19.4718 0.933999 19.9151 0.856999 20.4144 0.856999C20.9744 0.856999 21.4831 0.945666 21.9404 1.123C22.4024 1.30033 22.8084 1.557 23.1584 1.893L22.8294 2.537ZM34.848 5.988C34.848 6.73933 34.729 7.43 34.491 8.06C34.253 8.68533 33.917 9.22433 33.483 9.677C33.049 10.1297 32.5263 10.482 31.915 10.734C31.3083 10.9813 30.6363 11.105 29.899 11.105C29.1617 11.105 28.4897 10.9813 27.883 10.734C27.2763 10.482 26.756 10.1297 26.322 9.677C25.888 9.22433 25.552 8.68533 25.314 8.06C25.076 7.43 24.957 6.73933 24.957 5.988C24.957 5.23667 25.076 4.54833 25.314 3.923C25.552 3.293 25.888 2.75167 26.322 2.299C26.756 1.84167 27.2763 1.487 27.883 1.235C28.4897 0.982999 29.1617 0.856999 29.899 0.856999C30.6363 0.856999 31.3083 0.982999 31.915 1.235C32.5263 1.487 33.049 1.84167 33.483 2.299C33.917 2.75167 34.253 3.293 34.491 3.923C34.729 4.54833 34.848 5.23667 34.848 5.988ZM33.455 5.988C33.455 5.372 33.371 4.819 33.203 4.329C33.035 3.839 32.797 3.426 32.489 3.09C32.181 2.74933 31.8077 2.488 31.369 2.306C30.9303 2.124 30.4403 2.033 29.899 2.033C29.3623 2.033 28.8747 2.124 28.436 2.306C27.9973 2.488 27.6217 2.74933 27.309 3.09C27.001 3.426 26.763 3.839 26.595 4.329C26.427 4.819 26.343 5.372 26.343 5.988C26.343 6.604 26.427 7.157 26.595 7.647C26.763 8.13233 27.001 8.54533 27.309 8.886C27.6217 9.222 27.9973 9.481 28.436 9.663C28.8747 9.84033 29.3623 9.929 29.899 9.929C30.4403 9.929 30.9303 9.84033 31.369 9.663C31.8077 9.481 32.181 9.222 32.489 8.886C32.797 8.54533 33.035 8.13233 33.203 7.647C33.371 7.157 33.455 6.604 33.455 5.988ZM40.9419 9.922C41.3573 9.922 41.7283 9.852 42.0549 9.712C42.3816 9.572 42.6569 9.376 42.8809 9.124C43.1096 8.872 43.2823 8.571 43.3989 8.221C43.5203 7.871 43.5809 7.486 43.5809 7.066V0.968999H44.9319V7.066C44.9319 7.64467 44.8386 8.18133 44.6519 8.676C44.4699 9.17067 44.2063 9.6 43.8609 9.964C43.5203 10.3233 43.1026 10.6057 42.6079 10.811C42.1133 11.0163 41.5579 11.119 40.9419 11.119C40.3259 11.119 39.7706 11.0163 39.2759 10.811C38.7813 10.6057 38.3613 10.3233 38.0159 9.964C37.6706 9.6 37.4046 9.17067 37.2179 8.676C37.0359 8.18133 36.9449 7.64467 36.9449 7.066V0.968999H38.2959V7.059C38.2959 7.479 38.3543 7.864 38.4709 8.214C38.5923 8.564 38.7649 8.865 38.9889 9.117C39.2176 9.369 39.4953 9.56733 39.8219 9.712C40.1533 9.852 40.5266 9.922 40.9419 9.922ZM50.4248 5.827C50.8168 5.827 51.1622 5.78033 51.4608 5.687C51.7642 5.589 52.0162 5.45367 52.2168 5.281C52.4222 5.10367 52.5762 4.89367 52.6788 4.651C52.7815 4.40833 52.8328 4.14 52.8328 3.846C52.8328 3.24867 52.6368 2.79833 52.2448 2.495C51.8528 2.19167 51.2648 2.04 50.4808 2.04H48.9968V5.827H50.4248ZM55.0588 11H53.8548C53.6075 11 53.4255 10.9043 53.3088 10.713L50.7048 7.129C50.6255 7.017 50.5392 6.93767 50.4458 6.891C50.3572 6.83967 50.2172 6.814 50.0258 6.814H48.9968V11H47.6458V0.968999H50.4808C51.1155 0.968999 51.6638 1.03433 52.1258 1.165C52.5878 1.291 52.9682 1.47533 53.2668 1.718C53.5702 1.96067 53.7942 2.25467 53.9388 2.6C54.0835 2.94067 54.1558 3.32333 54.1558 3.748C54.1558 4.10267 54.0998 4.434 53.9878 4.742C53.8758 5.05 53.7125 5.32767 53.4978 5.575C53.2878 5.81767 53.0288 6.02533 52.7208 6.198C52.4175 6.37067 52.0722 6.50133 51.6848 6.59C51.8575 6.688 52.0068 6.83033 52.1328 7.017L55.0588 11ZM63.6495 8.928C63.7242 8.928 63.7895 8.95833 63.8455 9.019L64.3845 9.6C63.9738 10.076 63.4745 10.447 62.8865 10.713C62.3032 10.979 61.5962 11.112 60.7655 11.112C60.0468 11.112 59.3935 10.9883 58.8055 10.741C58.2175 10.489 57.7158 10.139 57.3005 9.691C56.8852 9.23833 56.5632 8.697 56.3345 8.067C56.1058 7.437 55.9915 6.744 55.9915 5.988C55.9915 5.232 56.1105 4.539 56.3485 3.909C56.5865 3.279 56.9202 2.73767 57.3495 2.285C57.7835 1.83233 58.3015 1.48233 58.9035 1.235C59.5055 0.982999 60.1705 0.856999 60.8985 0.856999C61.6125 0.856999 62.2425 0.971333 62.7885 1.2C63.3345 1.42867 63.8152 1.739 64.2305 2.131L63.7825 2.754C63.7545 2.80067 63.7172 2.84033 63.6705 2.873C63.6285 2.901 63.5702 2.915 63.4955 2.915C63.4115 2.915 63.3088 2.87067 63.1875 2.782C63.0662 2.68867 62.9075 2.586 62.7115 2.474C62.5155 2.362 62.2705 2.26167 61.9765 2.173C61.6825 2.07967 61.3208 2.033 60.8915 2.033C60.3735 2.033 59.8998 2.124 59.4705 2.306C59.0412 2.48333 58.6702 2.74233 58.3575 3.083C58.0495 3.42367 57.8092 3.839 57.6365 4.329C57.4638 4.819 57.3775 5.372 57.3775 5.988C57.3775 6.61333 57.4662 7.171 57.6435 7.661C57.8255 8.151 58.0705 8.56633 58.3785 8.907C58.6912 9.243 59.0575 9.49967 59.4775 9.677C59.9022 9.85433 60.3595 9.943 60.8495 9.943C61.1482 9.943 61.4165 9.92667 61.6545 9.894C61.8972 9.85667 62.1188 9.80067 62.3195 9.726C62.5248 9.65133 62.7138 9.558 62.8865 9.446C63.0638 9.32933 63.2388 9.19167 63.4115 9.033C63.4908 8.963 63.5702 8.928 63.6495 8.928ZM72.427 9.894L72.42 11H66.239V0.968999H72.42V2.075H67.597V5.407H71.503V6.471H67.597V9.894H72.427ZM79.7301 2.537C79.6881 2.607 79.6415 2.66067 79.5901 2.698C79.5435 2.73067 79.4851 2.747 79.4151 2.747C79.3358 2.747 79.2425 2.70733 79.1351 2.628C79.0278 2.54867 78.8925 2.46233 78.7291 2.369C78.5705 2.271 78.3768 2.18233 78.1481 2.103C77.9241 2.02367 77.6511 1.984 77.3291 1.984C77.0258 1.984 76.7575 2.026 76.5241 2.11C76.2955 2.18933 76.1018 2.299 75.9431 2.439C75.7891 2.579 75.6725 2.74467 75.5931 2.936C75.5138 3.12267 75.4741 3.32567 75.4741 3.545C75.4741 3.825 75.5418 4.05833 75.6771 4.245C75.8171 4.427 75.9991 4.58333 76.2231 4.714C76.4518 4.84467 76.7085 4.959 76.9931 5.057C77.2825 5.15033 77.5765 5.24833 77.8751 5.351C78.1785 5.45367 78.4725 5.57033 78.7571 5.701C79.0465 5.827 79.3031 5.988 79.5271 6.184C79.7558 6.38 79.9378 6.62033 80.0731 6.905C80.2131 7.18967 80.2831 7.53967 80.2831 7.955C80.2831 8.39367 80.2085 8.80667 80.0591 9.194C79.9098 9.57667 79.6905 9.91033 79.4011 10.195C79.1165 10.4797 78.7641 10.7037 78.3441 10.867C77.9288 11.0303 77.4551 11.112 76.9231 11.112C76.2698 11.112 75.6771 10.9953 75.1451 10.762C74.6131 10.524 74.1581 10.2043 73.7801 9.803L74.1721 9.159C74.2095 9.10767 74.2538 9.06567 74.3051 9.033C74.3611 8.99567 74.4218 8.977 74.4871 8.977C74.5478 8.977 74.6155 9.00267 74.6901 9.054C74.7695 9.10067 74.8581 9.16133 74.9561 9.236C75.0541 9.31067 75.1661 9.39233 75.2921 9.481C75.4181 9.56967 75.5605 9.65133 75.7191 9.726C75.8825 9.80067 76.0668 9.86367 76.2721 9.915C76.4775 9.96167 76.7085 9.985 76.9651 9.985C77.2871 9.985 77.5741 9.94067 77.8261 9.852C78.0781 9.76333 78.2905 9.63967 78.4631 9.481C78.6405 9.31767 78.7758 9.124 78.8691 8.9C78.9625 8.676 79.0091 8.42633 79.0091 8.151C79.0091 7.84767 78.9391 7.60033 78.7991 7.409C78.6638 7.213 78.4841 7.04967 78.2601 6.919C78.0361 6.78833 77.7795 6.67867 77.4901 6.59C77.2008 6.49667 76.9068 6.40333 76.6081 6.31C76.3095 6.212 76.0155 6.1 75.7261 5.974C75.4368 5.848 75.1801 5.68467 74.9561 5.484C74.7321 5.28333 74.5501 5.03367 74.4101 4.735C74.2748 4.43167 74.2071 4.05833 74.2071 3.615C74.2071 3.26033 74.2748 2.91733 74.4101 2.586C74.5501 2.25467 74.7508 1.96067 75.0121 1.704C75.2781 1.44733 75.6025 1.242 75.9851 1.088C76.3725 0.933999 76.8158 0.856999 77.3151 0.856999C77.8751 0.856999 78.3838 0.945666 78.8411 1.123C79.3031 1.30033 79.7091 1.557 80.0591 1.893L79.7301 2.537Z" fill="#232323"/>
</svg>
